<?xml version="1.0" encoding="utf-8"?>
<!-- Generator: Adobe Illustrator 27.5.0, SVG Export Plug-In . SVG Version: 6.00 Build 0)  -->
<svg version="1.1" id="Camada_1" xmlns="http://www.w3.org/2000/svg" xmlns:xlink="http://www.w3.org/1999/xlink" x="0px" y="0px"
	 viewBox="0 0 2008 1030" style="enable-background:new 0 0 2008 1030;" xml:space="preserve">
<style type="text/css">
	.st0{fill:#B1CCFC;}
	.st1{opacity:0.7;fill:#F8FBFF;}
	.st2{fill:#CAE0FF;}
	.st3{fill:#E1EFFF;}
	.st4{fill:#8CB6F4;}
	.st5{clip-path:url(#SVGID_00000131326941951567003070000004131548523517099915_);}
	.st6{fill:#F8FBFF;}
	.st7{fill:#554EDD;}
	.st8{opacity:0.7;fill:url(#SVGID_00000128481511114278468190000008869941919821030542_);}
	.st9{fill:#6E92F9;}
	.st10{clip-path:url(#SVGID_00000124870767967445880620000004425887318928699041_);}
	.st11{opacity:0.7;fill:url(#SVGID_00000082339439398610158890000005426129983788223673_);}
	.st12{opacity:0.7;fill:url(#SVGID_00000179627736298460996320000012720388220431420857_);}
	.st13{opacity:0.7;fill:url(#SVGID_00000183250589836346046690000013351501540997642934_);}
	.st14{opacity:0.74;fill:#003177;}
	.st15{fill:#3838BA;}
	.st16{fill:#003177;}
	.st17{fill:#FAC4B6;}
	.st18{fill:#7A6CF2;}
	.st19{opacity:0.5;fill:#554EDD;}
	.st20{fill:#002756;}
	.st21{fill:#9952BD;}
	.st22{fill:#543E8B;}
	.st23{fill:#F6AD83;}
	.st24{fill:#F4A076;}
	.st25{fill:#F28D77;}
	.st26{fill:#00C689;}
	.st27{fill:#14966A;}
	.st28{fill:#A9CA5A;}
	.st29{fill:#E5C3FF;}
	.st30{opacity:0.3;fill:#9952BD;}
	.st31{clip-path:url(#SVGID_00000150098824119703518220000017800332626622794675_);}
	.st32{clip-path:url(#SVGID_00000082327495966763877310000016854486769683577228_);}
	.st33{opacity:0.8;fill:#543E8B;}
	.st34{fill:#00859B;}
</style>
<path class="st0" d="M666.72,385.34c12.71-6.93-16.17-87.78-24.26-66.99C634.38,339.14,640.28,399.76,666.72,385.34z"/>
<path class="st0" d="M1739.8,575.99c0.92-150.46-87.54-270.66-219.48-318.26c-144.96-52.3-420.05-5.66-491.45-4.47
	c-176.9,2.93-176.85-66.02-277.77-39.42c-72.97,19.24-53.85,136.87-23.1,206.92c68.15,155.23-5.36,159.5,23.1,264.33
	c54.57,200.97,319.39,257.96,430.62,274.9C1352.68,986.03,1737.37,974.18,1739.8,575.99z"/>
<path class="st0" d="M702.93,620.96c24.2-0.22,29.08-100.16,14.9-143.33c-14.18-43.17-38.61-76.25-39.56-46.56
	c-2.31,72.08-8.23,47.57-15.02,73.24C649.01,558.19,689.03,621.09,702.93,620.96z"/>
<g>
	<circle class="st1" cx="801.16" cy="603" r="34.61"/>
	<circle class="st2" cx="801.16" cy="603" r="30.46"/>
	<path class="st1" d="M799.23,614.67v-8.93c0-0.85-0.56-1.57-1.36-1.86c-2.54-0.9-4.45-2.16-5.74-3.75
		c-1.51-1.87-2.26-4.14-2.26-6.81c0-2.7,0.85-4.97,2.56-6.81c1.7-1.83,3.97-2.89,6.81-3.17v-2.45h3.58v2.45
		c2.62,0.31,4.7,1.21,6.25,2.68c1.03,0.98,1.81,2.18,2.35,3.6c0.44,1.17-0.37,2.44-1.61,2.61l-2.41,0.31
		c-0.84,0.11-1.68-0.33-2.01-1.11c-0.51-1.23-1.37-2.11-2.57-2.63v8.2c0,0.86,0.59,1.61,1.42,1.87c3.19,1.01,5.41,2.26,6.66,3.75
		c1.43,1.7,2.15,3.89,2.15,6.56c0,2.98-0.9,5.49-2.71,7.53c-1.5,1.7-3.49,2.85-5.97,3.46c-0.89,0.22-1.55,0.96-1.55,1.87v3.05h-3.58
		v-2.86c0-0.95-0.69-1.71-1.62-1.93c-2.12-0.5-3.9-1.47-5.33-2.9c-1.34-1.34-2.32-3.1-2.93-5.27c-0.33-1.17,0.48-2.37,1.69-2.5
		l2.65-0.28c0.85-0.09,1.71,0.37,2,1.17c0.27,0.76,0.64,1.45,1.11,2.06C797.53,613.55,798.34,614.24,799.23,614.67z M799.23,588.73
		c-0.97,0.33-1.75,0.89-2.32,1.68c-0.57,0.79-0.86,1.66-0.86,2.62c0,0.87,0.27,1.68,0.79,2.43c0.53,0.75,1.33,1.35,2.4,1.81V588.73z
		 M802.81,615.01c1.23-0.23,2.24-0.8,3.01-1.72c0.77-0.91,1.16-1.99,1.16-3.22c0-1.1-0.33-2.05-0.97-2.85
		c-0.65-0.8-1.72-1.41-3.2-1.84V615.01z"/>
</g>
<g>
	<g>
		<path class="st3" d="M1667.03,259.97h-331.54c26.84,0,48.6,13.97,48.6,31.21v64.64c0,17.24-21.76,31.21-48.6,31.21h283.28
			c26.84,0,48.6-13.97,48.6-31.21v-95.63C1667.38,260.07,1667.22,259.97,1667.03,259.97z"/>
		<g>
			<path class="st4" d="M1644.58,292.61h-175.64c-2.27,0-4.12-1.84-4.12-4.12v-0.31c0-2.27,1.84-4.12,4.12-4.12h140.01h35.64
				c2.27,0,4.12,1.84,4.12,4.12v0.31C1648.7,290.77,1646.86,292.61,1644.58,292.61z"/>
			<g>
				<path class="st4" d="M1612.09,342.39h-80.39c-2.27,0-4.12-1.84-4.12-4.12v-0.31c0-2.27,1.84-4.12,4.12-4.12h80.39
					c2.27,0,4.12,1.84,4.12,4.12v0.31C1616.21,340.55,1614.36,342.39,1612.09,342.39z"/>
				<path class="st4" d="M1651.99,342.39h-27.26c-2.27,0-4.12-1.84-4.12-4.12v-0.31c0-2.27,1.84-4.12,4.12-4.12h27.26
					c2.27,0,4.12,1.84,4.12,4.12v0.31C1656.11,340.55,1654.27,342.39,1651.99,342.39z"/>
				<path class="st4" d="M1651.14,317.5h-38.07c-2.27,0-4.12-1.84-4.12-4.12v-0.31c0-2.27,1.84-4.12,4.12-4.12h38.07
					c2.27,0,4.12,1.84,4.12,4.12v0.31C1655.26,315.66,1653.41,317.5,1651.14,317.5z"/>
			</g>
			<g>
				<path class="st4" d="M1644.73,367.28h-59.74c-2.19,0-3.97-1.78-3.97-3.97v-0.6c0-2.19,1.78-3.97,3.97-3.97h59.74
					c2.19,0,3.97,1.78,3.97,3.97v0.6C1648.7,365.5,1646.92,367.28,1644.73,367.28z"/>
			</g>
		</g>
	</g>
	<path class="st4" d="M1293.14,284.53v-46.52v-54.16c0-26.84-21.76-48.6-48.6-48.6h283.28c26.84,0,48.6,21.76,48.6,48.6v54.16v95.12
		v5.55c0,26.84,21.76,48.6,48.6,48.6h-331.88v-54.16h-48.6C1271.38,333.13,1293.14,311.37,1293.14,284.53z"/>
</g>
<g>
	<defs>
		<path id="SVGID_1_" d="M1739.8,575.99c0.92-150.46-87.54-270.66-219.48-318.26c-144.96-52.3-420.05-5.66-491.45-4.47
			c-176.9,2.93-176.85-66.02-277.77-39.42c-72.97,19.24-53.85,136.87-23.1,206.92c68.15,155.23-5.36,159.5,23.1,264.33
			c54.57,200.97,319.39,257.96,430.62,274.9C1352.68,986.03,1737.37,974.18,1739.8,575.99z"/>
	</defs>
	<clipPath id="SVGID_00000154414109023423481280000008169207394939001221_">
		<use xlink:href="#SVGID_1_"  style="overflow:visible;"/>
	</clipPath>
	<g style="clip-path:url(#SVGID_00000154414109023423481280000008169207394939001221_);">
		<g>
			<path class="st6" d="M1523.61,982.49H1147.4c-10.74,0-19.44-8.7-19.44-19.44V198.72c0-10.74,8.7-19.44,19.44-19.44h376.21
				c10.74,0,19.44,8.7,19.44,19.44v764.32C1543.06,973.78,1534.35,982.49,1523.61,982.49z"/>
			<path class="st4" d="M1518.81,992.71H1152.2c-18.96,0-34.38-15.54-34.38-34.65V203.71c0-19.11,15.42-34.65,34.38-34.65h366.61
				c18.96,0,34.38,15.54,34.38,34.65v754.34C1553.2,977.16,1537.77,992.71,1518.81,992.71z M1152.2,189.5
				c-7.78,0-14.1,6.38-14.1,14.21v754.34c0,7.84,6.33,14.21,14.1,14.21h366.61c7.78,0,14.1-6.38,14.1-14.21V203.71
				c0-7.84-6.33-14.21-14.1-14.21H1152.2z"/>
		</g>
		<path class="st7" d="M1371.37,961.72h-70.21c-4.63,0-8.39-3.76-8.39-8.39v-4.31c0-4.63,3.76-8.39,8.39-8.39h70.21
			c4.63,0,8.39,3.76,8.39,8.39v4.31C1379.76,957.96,1376,961.72,1371.37,961.72z"/>
		<rect x="1151.08" y="229.54" class="st0" width="370.36" height="661.3"/>
		
			<linearGradient id="SVGID_00000109738791903058075440000008962978629271704722_" gradientUnits="userSpaceOnUse" x1="1151.7808" y1="376.0614" x2="1522.1372" y2="376.0614">
			<stop  offset="0" style="stop-color:#F3F8FE;stop-opacity:0.1287"/>
			<stop  offset="1" style="stop-color:#E1EFFF"/>
		</linearGradient>
		<polygon style="opacity:0.7;fill:url(#SVGID_00000109738791903058075440000008962978629271704722_);" points="1151.78,490.98 
			1522.14,335.93 1522.14,261.14 1151.78,415.23 		"/>
		<g>
			<path class="st9" d="M1553.2,992.71h-435.38V203.71c0-19.14,15.39-34.65,34.38-34.65h366.61c18.99,0,34.38,15.51,34.38,34.65
				V992.71z M1152.2,189.5c-7.79,0-14.1,6.36-14.1,14.21v768.55h394.82V203.71c0-7.85-6.31-14.21-14.1-14.21H1152.2z"/>
		</g>
		<g>
			<defs>
				<rect id="SVGID_00000148638601784340153420000000498635710747840436_" x="1151.08" y="229.54" width="370.36" height="661.3"/>
			</defs>
			<clipPath id="SVGID_00000102529752667059519490000012100260244762257593_">
				<use xlink:href="#SVGID_00000148638601784340153420000000498635710747840436_"  style="overflow:visible;"/>
			</clipPath>
			<g style="clip-path:url(#SVGID_00000102529752667059519490000012100260244762257593_);">
				<rect x="1152.37" y="812.94" class="st9" width="367.32" height="18.5"/>
				<rect x="1152.37" y="572.76" class="st4" width="367.32" height="240.18"/>
				<rect x="1152.37" y="572.76" class="st2" width="367.32" height="12.21"/>
				<polygon class="st0" points="1483.61,595.19 1336.03,505.3 1188.46,595.19 1198.72,595.19 1198.72,812.8 1473.34,812.94 
					1473.34,595.19 				"/>
				<rect x="1171.43" y="598.54" class="st9" width="329.19" height="15.02"/>
				<polygon class="st9" points="1486.13,607.45 1336.03,516.02 1185.94,607.45 1178.08,594.56 1336.03,498.35 1493.98,594.56 				
					"/>
				<g>
					<rect x="1168.33" y="618.32" class="st2" width="42.82" height="194.47"/>
					<rect x="1168.33" y="614.66" class="st0" width="42.82" height="7.32"/>
					<path class="st2" d="M1214.9,592.45h-50.33c-3.35,0-6.06,2.71-6.06,6.06v13.76c0,3.35,2.71,6.06,6.06,6.06h50.33
						c3.35,0,6.06-2.71,6.06-6.06v-13.76C1220.96,595.17,1218.25,592.45,1214.9,592.45z"/>
					<path class="st0" d="M1182.07,803.4h-4.21c-1.2,0-2.17-0.97-2.17-2.17V632.11c0-1.2,0.97-2.17,2.17-2.17h4.21
						c1.2,0,2.17,0.97,2.17,2.17v169.12C1184.25,802.43,1183.27,803.4,1182.07,803.4z"/>
					<path class="st0" d="M1199.57,803.4h-4.21c-1.2,0-2.17-0.97-2.17-2.17V632.11c0-1.2,0.97-2.17,2.17-2.17h4.21
						c1.2,0,2.17,0.97,2.17,2.17v169.12C1201.74,802.43,1200.77,803.4,1199.57,803.4z"/>
				</g>
				<g>
					<rect x="1462.06" y="618.32" class="st2" width="42.82" height="194.47"/>
					<rect x="1462.06" y="614.66" class="st0" width="42.82" height="7.32"/>
					<path class="st2" d="M1508.63,592.45h-50.33c-3.35,0-6.06,2.71-6.06,6.06v13.76c0,3.35,2.71,6.06,6.06,6.06h50.33
						c3.35,0,6.06-2.71,6.06-6.06v-13.76C1514.69,595.17,1511.98,592.45,1508.63,592.45z"/>
					<path class="st0" d="M1475.8,803.4h-4.21c-1.2,0-2.17-0.97-2.17-2.17V632.11c0-1.2,0.97-2.17,2.17-2.17h4.21
						c1.2,0,2.17,0.97,2.17,2.17v169.12C1477.97,802.43,1477,803.4,1475.8,803.4z"/>
					<path class="st0" d="M1493.3,803.4h-4.21c-1.2,0-2.17-0.97-2.17-2.17V632.11c0-1.2,0.97-2.17,2.17-2.17h4.21
						c1.2,0,2.17,0.97,2.17,2.17v169.12C1495.47,802.43,1494.5,803.4,1493.3,803.4z"/>
				</g>
				<g>
					<circle class="st4" cx="1336.03" cy="566.86" r="28.37"/>
					
						<ellipse transform="matrix(0.7071 -0.7071 0.7071 0.7071 -9.5161 1110.7458)" class="st0" cx="1336.03" cy="566.86" rx="24.97" ry="24.97"/>
					<path class="st2" d="M1334.45,576.43l0-7.32c0-0.7-0.46-1.29-1.12-1.52c-2.08-0.74-3.65-1.77-4.71-3.08
						c-1.24-1.53-1.85-3.39-1.85-5.58c0-2.21,0.7-4.07,2.1-5.58c1.4-1.5,3.26-2.37,5.58-2.6v-2.01h2.94v2.01
						c2.15,0.26,3.85,0.99,5.12,2.2c0.84,0.8,1.49,1.79,1.92,2.95c0.36,0.96-0.31,2-1.32,2.14l-1.97,0.26
						c-0.69,0.09-1.38-0.27-1.65-0.91c-0.42-1.01-1.12-1.73-2.11-2.15v6.72c0,0.71,0.48,1.32,1.16,1.53
						c2.61,0.82,4.43,1.85,5.46,3.07c1.18,1.4,1.76,3.19,1.76,5.38c0,2.44-0.74,4.5-2.22,6.18c-1.23,1.39-2.86,2.34-4.9,2.83
						c-0.73,0.18-1.27,0.78-1.27,1.53v2.5h-2.94l0-2.34c0-0.78-0.57-1.4-1.32-1.58c-1.74-0.41-3.2-1.21-4.37-2.38
						c-1.1-1.1-1.9-2.54-2.4-4.32c-0.27-0.96,0.4-1.94,1.38-2.05l2.17-0.23c0.7-0.07,1.4,0.3,1.64,0.96
						c0.23,0.62,0.53,1.19,0.91,1.69C1333.05,575.51,1333.72,576.08,1334.45,576.43z M1334.45,555.17c-0.8,0.27-1.43,0.73-1.9,1.38
						c-0.47,0.65-0.71,1.36-0.71,2.15c0,0.72,0.22,1.38,0.65,2c0.43,0.61,1.09,1.11,1.97,1.49V555.17z M1337.38,576.71
						c1.01-0.19,1.84-0.66,2.47-1.41c0.63-0.75,0.95-1.63,0.95-2.64c0-0.9-0.27-1.68-0.8-2.34c-0.53-0.66-1.41-1.16-2.62-1.51
						V576.71z"/>
				</g>
				<g>
					<rect x="1306.74" y="689.82" class="st2" width="58.59" height="102.53"/>
					<path class="st0" d="M1333.6,745.91h-1.44c-0.19,0-0.34-0.15-0.34-0.34v-9.34c0-0.19,0.15-0.34,0.34-0.34h1.44
						c0.19,0,0.34,0.15,0.34,0.34v9.34C1333.94,745.76,1333.79,745.91,1333.6,745.91z"/>
					<path class="st0" d="M1339.85,745.91h-1.44c-0.19,0-0.34-0.15-0.34-0.34v-9.34c0-0.19,0.15-0.34,0.34-0.34h1.44
						c0.19,0,0.34,0.15,0.34,0.34v9.34C1340.19,745.76,1340.03,745.91,1339.85,745.91z"/>
				</g>
				<g>
					<rect x="1234.63" y="618.32" class="st2" width="42.82" height="194.47"/>
					<rect x="1234.63" y="614.66" class="st0" width="42.82" height="7.32"/>
					<path class="st2" d="M1281.2,592.45h-50.33c-3.35,0-6.06,2.71-6.06,6.06v13.76c0,3.35,2.71,6.06,6.06,6.06h50.33
						c3.35,0,6.06-2.71,6.06-6.06v-13.76C1287.26,595.17,1284.55,592.45,1281.2,592.45z"/>
					<path class="st0" d="M1248.38,803.4h-4.21c-1.2,0-2.17-0.97-2.17-2.17V632.11c0-1.2,0.97-2.17,2.17-2.17h4.21
						c1.2,0,2.17,0.97,2.17,2.17v169.12C1250.55,802.43,1249.57,803.4,1248.38,803.4z"/>
					<path class="st0" d="M1265.87,803.4h-4.21c-1.2,0-2.17-0.97-2.17-2.17V632.11c0-1.2,0.97-2.17,2.17-2.17h4.21
						c1.2,0,2.17,0.97,2.17,2.17v169.12C1268.05,802.43,1267.07,803.4,1265.87,803.4z"/>
				</g>
				<g>
					<rect x="1395.75" y="618.32" class="st2" width="42.82" height="194.47"/>
					<rect x="1395.75" y="614.66" class="st0" width="42.82" height="7.32"/>
					<path class="st2" d="M1442.33,592.45H1392c-3.35,0-6.06,2.71-6.06,6.06v13.76c0,3.35,2.71,6.06,6.06,6.06h50.33
						c3.35,0,6.06-2.71,6.06-6.06v-13.76C1448.39,595.17,1445.68,592.45,1442.33,592.45z"/>
					<path class="st0" d="M1409.5,803.4h-4.21c-1.2,0-2.17-0.97-2.17-2.17V632.11c0-1.2,0.97-2.17,2.17-2.17h4.21
						c1.2,0,2.17,0.97,2.17,2.17v169.12C1411.67,802.43,1410.7,803.4,1409.5,803.4z"/>
					<path class="st0" d="M1427,803.4h-4.21c-1.2,0-2.17-0.97-2.17-2.17V632.11c0-1.2,0.97-2.17,2.17-2.17h4.21
						c1.2,0,2.17,0.97,2.17,2.17v169.12C1429.17,802.43,1428.2,803.4,1427,803.4z"/>
				</g>
				<rect x="1294.78" y="791.71" class="st1" width="82.5" height="13.33"/>
				<rect x="1294.78" y="800.96" class="st4" width="82.5" height="4.08"/>
				<rect x="1281.03" y="804.39" class="st1" width="110" height="13.33"/>
				<rect x="1281.03" y="813.64" class="st4" width="110" height="4.08"/>
				<rect x="1260.64" y="817.72" class="st1" width="150.79" height="13.33"/>
				<rect x="1260.64" y="826.97" class="st4" width="150.79" height="4.08"/>
			</g>
		</g>
		<g id="блик_2_">
			
				<linearGradient id="SVGID_00000055674819342100678640000015447650238468041388_" gradientUnits="userSpaceOnUse" x1="1150.3832" y1="485.5655" x2="1520.7397" y2="485.5655">
				<stop  offset="0" style="stop-color:#F3F8FE;stop-opacity:0.1287"/>
				<stop  offset="1" style="stop-color:#E1EFFF"/>
			</linearGradient>
			<polygon style="opacity:0.7;fill:url(#SVGID_00000055674819342100678640000015447650238468041388_);" points="1150.38,576.62 
				1520.74,421.58 1520.74,394.51 1150.38,549.56 			"/>
			
				<linearGradient id="SVGID_00000123423061545373339040000003975267930294562195_" gradientUnits="userSpaceOnUse" x1="1150.3832" y1="812.0569" x2="1520.7397" y2="812.0569">
				<stop  offset="0" style="stop-color:#F3F8FE;stop-opacity:0.1287"/>
				<stop  offset="1" style="stop-color:#E1EFFF"/>
			</linearGradient>
			<polygon style="opacity:0.7;fill:url(#SVGID_00000123423061545373339040000003975267930294562195_);" points="1150.38,903.11 
				1520.74,748.07 1520.74,721 1150.38,876.05 			"/>
			
				<linearGradient id="SVGID_00000167365431412957491420000013552730223389868945_" gradientUnits="userSpaceOnUse" x1="1150.3832" y1="751.5931" x2="1520.7397" y2="751.5931">
				<stop  offset="0" style="stop-color:#F3F8FE;stop-opacity:0.1287"/>
				<stop  offset="1" style="stop-color:#E1EFFF"/>
			</linearGradient>
			<polygon style="opacity:0.7;fill:url(#SVGID_00000167365431412957491420000013552730223389868945_);" points="1150.38,851.23 
				1520.74,696.19 1520.74,651.95 1150.38,807 			"/>
		</g>
	</g>
</g>
<g>
	<path class="st6" d="M1520.32,257.73c7.73,2.79,15.31,5.84,22.74,9.12v-63.23c0-13.44-10.9-24.34-24.34-24.34h-366.42
		c-13.44,0-24.34,10.9-24.34,24.34v41.27C1242.65,233.83,1415.5,219.92,1520.32,257.73z"/>
</g>
<g>
	<path class="st9" d="M1138.1,243.91v-40.2c0-7.85,6.31-14.21,14.1-14.21h366.61c7.79,0,14.1,6.36,14.1,14.21v58.84
		c6.89,2.79,13.65,5.79,20.28,8.98v-67.82c0-19.14-15.39-34.65-34.38-34.65H1152.2c-18.99,0-34.38,15.51-34.38,34.65v42.15
		C1124.37,245.23,1131.14,244.57,1138.1,243.91z"/>
</g>
<path class="st0" d="M1520.32,257.73c0.37,0.14,0.74,0.28,1.12,0.42v-28.6h-370.36v13.16
	C1264.88,232.24,1422.33,222.38,1520.32,257.73z"/>
<g>
	<g>
		<path class="st7" d="M1493.13,353.51H1175.5c-4.57,0-9.25-4.67-9.25-10.43l0,0c0-5.76,4.67-10.43,10.43-10.43h317.63
			c5.76,0,10.43,4.67,10.43,10.43l0,0C1504.75,348.83,1500.08,353.51,1493.13,353.51z"/>
		<path class="st14" d="M1482.74,349.48h-301.95c-2.46,0-4.46-2-4.46-4.46v-4.48c0-2.46,2-4.46,4.46-4.46h301.95
			c2.46,0,4.46,2,4.46,4.46v4.48C1487.19,347.48,1485.2,349.48,1482.74,349.48z"/>
	</g>
	<g>
		<path class="st3" d="M1477.31,322.71V161.35c0-14.41,11.68-26.09,26.1-26.09h-300.32c-14.41,0-26.1,11.68-26.1,26.1v173.1
			c0,5.05,4.09,9.14,9.14,9.14h296.88C1483.01,343.59,1477.25,335.37,1477.31,322.71z"/>
		<g>
			<g>
				<path class="st4" d="M1308.46,203.57v0.11c0,2.36,1.91,4.27,4.27,4.27h57.91c2.36,0,4.27-1.91,4.27-4.27v-0.11
					c0-2.36-1.91-4.27-4.27-4.27h-57.91C1310.38,199.3,1308.46,201.21,1308.46,203.57z"/>
				<path class="st4" d="M1216.83,203.62L1216.83,203.62c0-2.39-1.94-4.32-4.32-4.32h-13.22c-2.36,0-4.27,1.91-4.27,4.27v0.11
					c0,2.36,1.91,4.27,4.27,4.27h13.22C1214.89,207.95,1216.83,206.01,1216.83,203.62z"/>
				<path class="st4" d="M1295.99,199.3h-59c-2.36,0-4.27,1.91-4.27,4.27v0.11c0,2.36,1.91,4.27,4.27,4.27h59
					c2.36,0,4.27-1.91,4.27-4.27v-0.11C1300.26,201.21,1298.35,199.3,1295.99,199.3z"/>
			</g>
			<g>
				<path class="st4" d="M1318.77,258.66v0.07c0,2.37,1.92,4.29,4.29,4.29h81.49c2.37,0,4.29-1.92,4.29-4.29v-0.07
					c0-2.37-1.92-4.29-4.29-4.29h-81.49C1320.69,254.37,1318.77,256.29,1318.77,258.66z"/>
				<path class="st4" d="M1250.46,258.69L1250.46,258.69c0-2.39-1.94-4.32-4.32-4.32h-46.8c-2.39,0-4.32,1.94-4.32,4.32l0,0
					c0,2.39,1.94,4.32,4.32,4.32h46.8C1248.53,263.02,1250.46,261.08,1250.46,258.69z"/>
				<path class="st4" d="M1295.98,254.37h-21.52c-2.37,0-4.29,1.92-4.29,4.29v0.07c0,2.37,1.92,4.29,4.29,4.29h21.52
					c2.37,0,4.29-1.92,4.29-4.29v-0.07C1300.27,256.29,1298.35,254.37,1295.98,254.37z"/>
			</g>
			<g>
				<path class="st4" d="M1292.61,231.08v0.15c0,2.35,1.9,4.25,4.25,4.25h40.58c2.35,0,4.25-1.9,4.25-4.25v-0.15
					c0-2.35-1.9-4.25-4.25-4.25h-40.58C1294.51,226.83,1292.61,228.74,1292.61,231.08z"/>
				<path class="st4" d="M1275.72,231.16L1275.72,231.16c0-2.39-1.94-4.32-4.32-4.32h-72.06c-2.39,0-4.32,1.94-4.32,4.32l0,0
					c0,2.39,1.94,4.32,4.32,4.32h72.06C1273.79,235.48,1275.72,233.55,1275.72,231.16z"/>
			</g>
			<g>
				<path class="st4" d="M1225.39,286.23L1225.39,286.23c0-2.39-1.94-4.32-4.32-4.32h-21.72c-2.39,0-4.32,1.94-4.32,4.32l0,0
					c0,2.39,1.94,4.32,4.32,4.32h21.72C1223.45,290.55,1225.39,288.62,1225.39,286.23z"/>
				<path class="st4" d="M1376.09,281.9h-127.88c-2.36,0-4.27,1.91-4.27,4.27v0.1c0,2.36,1.91,4.27,4.27,4.27h127.88
					c2.36,0,4.27-1.91,4.27-4.27v-0.1C1380.36,283.82,1378.45,281.9,1376.09,281.9z"/>
			</g>
		</g>
		<g>
			<path class="st4" d="M1402.4,324.4h-1.61c-0.58,0-1.05-0.47-1.05-1.05v-11.58c0-0.51-0.58-0.81-0.99-0.5
				c-0.71,0.54-1.47,1-2.29,1.38c-0.7,0.32-1.5-0.19-1.5-0.95v-1.1c0-0.43,0.27-0.79,0.66-0.97c0.78-0.34,1.61-0.86,2.49-1.54
				c0.93-0.72,1.61-1.54,2.06-2.46c0.18-0.38,0.54-0.63,0.96-0.63h1.27c0.58,0,1.05,0.47,1.05,1.05v17.32
				C1403.44,323.93,1402.97,324.4,1402.4,324.4z"/>
			<path class="st4" d="M1421.49,322v1.35c0,0.58-0.47,1.05-1.05,1.05h-10.67c-0.69,0-1.2-0.66-1.02-1.33
				c0.22-0.82,0.56-1.61,1.02-2.37c0.7-1.16,2.09-2.71,4.17-4.63c1.67-1.56,2.7-2.61,3.07-3.16c0.51-0.76,0.77-1.52,0.77-2.27
				c0-0.83-0.22-1.46-0.67-1.91c-0.44-0.44-1.06-0.67-1.84-0.67c-0.77,0-1.39,0.23-1.85,0.7c-0.31,0.32-0.53,0.78-0.67,1.38
				c-0.11,0.52-0.59,0.89-1.12,0.84l-1.58-0.16c-0.63-0.06-1.06-0.67-0.92-1.29c0.33-1.44,0.95-2.51,1.88-3.21
				c1.16-0.89,2.61-1.33,4.35-1.33c1.91,0,3.41,0.51,4.5,1.54c1.09,1.03,1.63,2.31,1.63,3.84c0,0.87-0.16,1.7-0.47,2.49
				c-0.31,0.79-0.81,1.61-1.48,2.47c-0.45,0.57-1.26,1.39-2.42,2.47c-1.17,1.07-1.91,1.78-2.22,2.14c-0.31,0.35-0.57,0.69-0.76,1.03
				h6.31C1421.02,320.96,1421.49,321.42,1421.49,322z"/>
			<path class="st4" d="M1430.26,304.99c1.87,0,3.33,0.67,4.39,2c1.26,1.58,1.88,4.21,1.88,7.87c0,3.66-0.63,6.28-1.9,7.88
				c-1.05,1.32-2.51,1.98-4.38,1.98c-1.88,0-3.4-0.72-4.55-2.17c-1.15-1.45-1.73-4.02-1.73-7.73c0-3.64,0.63-6.26,1.9-7.86
				C1426.93,305.65,1428.39,304.99,1430.26,304.99z M1430.26,308.06c-0.45,0-0.85,0.14-1.2,0.43c-0.35,0.29-0.62,0.8-0.82,1.54
				c-0.26,0.96-0.38,2.57-0.38,4.84c0,2.27,0.11,3.83,0.34,4.67c0.23,0.85,0.52,1.41,0.86,1.69c0.35,0.28,0.74,0.42,1.19,0.42
				c0.45,0,0.85-0.14,1.2-0.43c0.35-0.29,0.62-0.8,0.82-1.54c0.25-0.95,0.38-2.56,0.38-4.83c0-2.27-0.12-3.83-0.34-4.67
				c-0.23-0.85-0.52-1.41-0.86-1.7C1431.11,308.2,1430.71,308.06,1430.26,308.06z"/>
			<path class="st4" d="M1451.82,321.54v-4.77c0-0.45-0.3-0.84-0.73-0.99c-1.36-0.48-2.38-1.15-3.06-2c-0.8-1-1.21-2.21-1.21-3.63
				c0-1.44,0.45-2.65,1.36-3.63c0.91-0.98,2.12-1.54,3.63-1.69v-1.31h1.91v1.31c1.4,0.17,2.51,0.64,3.33,1.43
				c0.55,0.52,0.97,1.16,1.25,1.92c0.23,0.62-0.2,1.3-0.86,1.39l-1.28,0.17c-0.45,0.06-0.9-0.18-1.07-0.59
				c-0.27-0.66-0.73-1.12-1.37-1.4v4.38c0,0.46,0.32,0.86,0.76,1c1.7,0.54,2.89,1.2,3.56,2c0.77,0.91,1.15,2.08,1.15,3.5
				c0,1.59-0.48,2.93-1.44,4.02c-0.8,0.91-1.87,1.52-3.19,1.85c-0.47,0.12-0.83,0.51-0.83,1l0,1.63h-1.91v-1.52
				c0-0.51-0.37-0.91-0.86-1.03c-1.13-0.27-2.08-0.78-2.84-1.55c-0.71-0.72-1.24-1.65-1.56-2.81c-0.18-0.62,0.26-1.26,0.9-1.33
				l1.41-0.15c0.45-0.05,0.91,0.2,1.07,0.63c0.15,0.41,0.34,0.77,0.59,1.1C1450.91,320.94,1451.34,321.31,1451.82,321.54z
				 M1451.82,307.69c-0.52,0.18-0.93,0.47-1.24,0.9c-0.31,0.42-0.46,0.89-0.46,1.4c0,0.47,0.14,0.9,0.42,1.3
				c0.28,0.4,0.71,0.72,1.28,0.97V307.69z M1453.73,321.72c0.66-0.12,1.19-0.43,1.61-0.92c0.41-0.49,0.62-1.06,0.62-1.72
				c0-0.59-0.17-1.1-0.52-1.52c-0.35-0.43-0.92-0.75-1.71-0.98V321.72z"/>
		</g>
		<path class="st4" d="M1384.35,324.41h-190.09c-1.24,0-2.24-1-2.24-2.24s1.01-2.24,2.24-2.24h190.09c1.24,0,2.24,1,2.24,2.24
			S1385.59,324.41,1384.35,324.41z"/>
		<path class="st4" d="M1384.35,174.01h-190.09c-1.24,0-2.24-1-2.24-2.24s1.01-2.24,2.24-2.24h190.09c1.24,0,2.24,1,2.24,2.24
			S1385.59,174.01,1384.35,174.01z"/>
	</g>
</g>
<ellipse class="st4" cx="990.76" cy="1005.35" rx="269.84" ry="24.65"/>
<path class="st7" d="M1042.29,484.23c28.82,173.49,42.38,242.55,37.7,271.68c-7.79,48.46-61.7,132.08-80.98,192.27
	c-1.01,3.14-15.42,4.29-25.21-3.6c-8.72-7.03-12.99-23.04-12.99-23.04s3.06-109.46,30.56-189.39c5.66-16.45-12.19-46.18-22.33-80.96
	c-16.53-56.72-22.58-117.12-10.68-144.24C965.63,490.36,1042.29,484.23,1042.29,484.23z"/>
<path class="st15" d="M1014.36,668.52c-9.28-37.53-16.05-159.91-16.81-174.12c-1.08,0.1-2.16,0.2-3.23,0.31l-38.75,20.38
	c-7.93,29.87-1.57,84.5,13.47,136.09c10.14,34.79,27.99,64.51,22.33,80.96c-27.5,79.93-30.56,189.39-30.56,189.39
	s5.68,14.13,12.99,20.16c4.64-24.29,14.78-82.53,23.68-118.46c12.22-49.33,31.32-93.98,31.32-93.98S1024.21,708.39,1014.36,668.52z"
	/>
<path class="st16" d="M960.06,918.27c0,0,5.89,11.28,16.02,19.11c7.92,6.12,22.92,10.8,22.92,10.8s14.32,27.62,32.85,38.89
	c23.68,14.4,3.43,19.02-1.1,18.7c-4.03-0.28-49.27-7.4-49.27-7.4l-27.13-31.64l-5.55-17.77
	C945.22,937.52,949.74,925.19,960.06,918.27L960.06,918.27z"/>
<polygon class="st17" points="911.35,932.98 913.55,974.98 935.48,998.26 963.33,983.45 948.58,948.91 "/>
<path class="st18" d="M948.58,948.91c0,0,5.35-106.95,18.33-214.97c2.13-17.75,22.15-224.68,13.81-231.4
	c-22.09-17.81-61.96-36.55-81.13-43.31c-4.45,1.39-14.54-3.36-19.77,0c0,0-17.18,34.26-14.27,69.51
	c2.91,35.25,23.68,172.32,26.1,184.48c2.42,12.16-24.79,46.32-16.5,90.87c7.69,41.35,32.77,128.48,37.13,143.38L948.58,948.91z"/>
<path class="st19" d="M899.6,459.23c-4.45,1.39-14.54-3.36-19.77,0c0,0-17.18,34.26-14.27,69.51
	c2.91,35.25,23.68,172.32,26.1,184.48c2.42,12.16-24.79,46.32-16.5,90.87c7.69,41.35,32.77,128.48,37.13,143.38l14.7,0.17
	c-6.08-27.1-26.49-117.41-34.7-144.44c-9.69-31.93,18.29-87.61,18.29-87.61s-13.95-115.94-17.72-158.05
	c-3.26-36.43,8.26-84.31,11.43-96.57C902.63,460.32,901.05,459.74,899.6,459.23z"/>
<path class="st15" d="M904.37,985.45c0,0-0.49,9.19,11.67,13.23c12.17,4.04,11.93,4.95,11.93,4.95s21.81,17.32,36.09,18.67
	c14.28,1.35,31.24,3.31,36.71-1.84c3.57-3.36,0.57-22.21-10.07-25.58c-10.64-3.37-32.78-34.27-32.78-38c0-3.73-20.51-7.2-29.03,4.45
	c-7.14,9.76-16.85-6.46-16.85-6.46L904.37,985.45z"/>
<g>
	<path class="st16" d="M1014.16,170.99c0.73,1.65-1.37,35.89,1.77,50.85c3.14,14.96,45.89,49.8,27.79,86.32
		c-7.67,15.48-27.92,15.48-27.92,15.48l-52.73-91.23l8.47-32.73L1014.16,170.99z"/>
	<path class="st20" d="M988.15,208.83c0,0-1.53,39.06,10.05,54.99c18.92,26.01-2.96,49.66-2.96,49.66l-42.12-92.95L988.15,208.83z"
		/>
	<path class="st20" d="M934.9,107.45c0,0,0.38-3.17-7.79-4.22c-21.4-2.75-59.51,15.69-59.33,76.21
		c0.13,44.03,17.01,75.96,27.09,94.44c10.08,18.48,55.83-8.89,55.83-8.89l-2.72-60.8c0,0-19.8-35.63-19.8-57.47
		C928.18,124.88,934.9,107.45,934.9,107.45z"/>
	<path class="st20" d="M890.62,280.08c-0.41,0-0.81-0.22-1.02-0.6l-0.12-0.21c-3.75-6.73-16.41-30.91-21.96-59.56
		c-3.45-17.82-3.53-34.14-0.25-48.52c4.08-17.86,13.39-32.78,27.67-44.37c7.91-6.41,13.84-9.13,17.63-8.07
		c2.15,0.6,2.77,2.18,2.83,2.35c0.22,0.6-0.1,1.27-0.7,1.49c-0.6,0.21-1.25-0.09-1.48-0.67c-0.03-0.06-0.34-0.7-1.37-0.95
		c-1.72-0.42-6.01,0.01-15.45,7.66c-25.32,20.53-34.27,51.03-26.6,90.64c5.48,28.31,18,52.22,21.71,58.87l0.12,0.22
		c0.31,0.56,0.11,1.27-0.45,1.58C891,280.03,890.81,280.08,890.62,280.08z"/>
	<path class="st20" d="M1047.07,280.97c-0.19,0-0.38-0.04-0.56-0.14c-0.61-0.31-0.84-1.06-0.53-1.66c0.04-0.09,4.54-9.08,0-17.91
		c-2.47-4.82-8.28-6.98-15.62-9.72c-6.15-2.29-13.12-4.89-19.7-9.73c-14.62-10.75-15.69-55.18-15.73-57.06
		c-0.01-0.68,0.53-1.24,1.21-1.26c0.01,0,0.02,0,0.03,0c0.67,0,1.22,0.54,1.23,1.21c0.01,0.45,1.08,45.09,14.72,55.13
		c6.3,4.64,13.1,7.17,19.1,9.41c7.54,2.81,14.04,5.24,16.95,10.9c5.13,9.99,0.21,19.76,0,20.17
		C1047.94,280.72,1047.51,280.97,1047.07,280.97z"/>
	<path class="st16" d="M911.82,253.26c0.28-7.73-0.38-17.96-2.44-31.45c-12.99-84.94,12.57-101.53,16.45-99.65
		c0.62-1.94,12.19-13.37,12.19-13.37s-2.75-4.51-10.91-5.55c-21.4-2.75-59.51,15.69-59.33,76.21c0.1,34.66,10.59,61.82,19.96,80.83
		C896.39,258.43,904.62,255.77,911.82,253.26z"/>
</g>
<g>
	<g>
		<path class="st21" d="M860.44,285.1c0,0,4.07-20.69,22.73-23.95c18.66-3.25,35.93-10.94,45.92-13.89
			c9.99-2.96,40.63,0.33,56.06,7.55c15.42,7.23,31.35,20.24,32.25,30.29c0.91,10.05,0.91,30.15,2.09,34.29
			c1.18,4.14,8.28,62.08,11.23,70.95c2.96,8.87,16.55,75.68-4.14,87.5c-20.69,11.82-47.3,8.87-65.63,14.19
			c-18.33,5.32-109.38-18.19-109.38-30.01S865.17,296.93,860.44,285.1z"/>
		<path class="st22" d="M974.07,266.76c0,0,11.56,0.31,35.36,28.99c3.5,4.22,6.47,8.03,9.01,11.48c-0.31-7.43-0.54-16.4-1.05-22.12
			c-0.91-10.05-16.83-23.06-32.25-30.29c-3.41-1.6-7.57-3-12.08-4.19L974.07,266.76z"/>
		<path class="st22" d="M909.95,371.67c1.53-60.4-1.09-103.47-18.83-112.17c-2.61,0.62-5.27,1.19-7.95,1.66
			c-8.27,1.44-13.66,6.3-17.12,11.28c-2.06,4.02-3.83,8.66-5.33,13.67c2.96,14.47-5.35,123.34-9.15,175.92
			c-1.07,14.78,57.69,21.91,59.09,21.1C919.2,450.36,908.72,420.35,909.95,371.67z"/>
		<path class="st22" d="M1031.73,394.03c-0.4-1.63-0.75-2.89-1.01-3.69c-1.64-4.92-4.55-24.93-7.02-42.48
			c0.66,18.85-3.99,39.53-18.4,39.53c-20.81,0-28.38,4.14-39.02,10.64c-7.98,4.87-8.28,14.19-8.28,14.19s30.58-10.8,46.71-9.46
			C1017.33,403.81,1026.01,399.8,1031.73,394.03L1031.73,394.03z"/>
	</g>
</g>
<g>
	<path class="st20" d="M932.03,102.8c44.9-26.32,81.34,14.96,83.69,37c1.18,11.02-11.17-16.09-32.93-26.69
		c-12.95-6.31-36.83,0.92-47.86,0.31C927.43,113.02,928.9,104.64,932.03,102.8z"/>
	<g>
		<path class="st23" d="M982.28,227.86c0,0-2.29,20.81,2.86,26.96c1.99,2.37,4.79,26.74-18.87,26.74
			c-36.66,0-43.16-32.52-43.16-32.52s4.73-4.73,8.87-21.28c2.89-11.56-0.08-25-0.08-25L982.28,227.86z"/>
		<path class="st24" d="M931.93,227.97c9.62,9.47,25.13,15.75,35.14,15.75c5.14,0,10.1-0.97,14.76-2.76
			c-0.25-6.73,0.45-13.1,0.45-13.1l-50.38-25.11c0,0,2.97,13.44,0.08,25C931.96,227.83,931.94,227.89,931.93,227.97z"/>
		<path class="st24" d="M985.14,254.82c3.5,14.06-7.05,23.19-18.28,22.6c-5.98-0.31-17.74-2.36-28.84-10.66
			c-11.1-8.3-12.91-20.57-12.91-20.57c-1.22,2.06-2.01,2.86-2.01,2.86s6.5,32.52,43.16,32.52
			C989.94,281.56,987.13,257.19,985.14,254.82z"/>
		<g>
			<path class="st23" d="M907.06,149.36c1.86,0,3.63,0.37,5.25,1.04c6.21-27.21,26.58-47.17,50.77-47.17
				c29.12,0,52.73,28.92,52.73,64.59c0,35.67-23.61,64.59-52.73,64.59c-26.71,0-48.77-24.34-52.24-55.9
				c-1.2,0.34-2.47,0.54-3.78,0.54c-7.64,0-13.84-6.2-13.84-13.84C893.22,155.56,899.41,149.36,907.06,149.36z"/>
			<path class="st24" d="M1011.36,135.8c-6.72-12.6-12.64-18.89-17.64-21.84c-5-2.95-22.45-13.82-38.53-10.69
				c-16.08,3.13-22.8,7.33-22.8,7.33s-0.06,0.65,0.45,2.64c-2.84,0.91-21.06,7.53-26.27,28.25c-1.48,5.87-0.76,12.37,0.29,17.3
				c0.9,4.24,5.45,6.59,9.43,4.89l2.51-1.07c0.97-0.41,1.37-1.57,0.87-2.5c-2.57-4.71-2.66-10.37-0.26-15.16l1.55-3.08
				c0.04-0.07,0.15-0.04,0.14,0.04l-0.43,3.22c-0.58,4.3,0.26,8.68,2.37,12.47l0.38,0.68c0.67,1.19,2.12,1.7,3.39,1.17l7.89-3.29
				c4-1.67,6.62-5.56,6.67-9.9c0.04-3.47,0.01-7.88-0.18-12.54c2.86,6.38,5.38,11.99,6.46,14.37c0.34,0.76,1.04,1.29,1.87,1.41
				l33.88,5.18c1.54,0.24,2.91-1,2.83-2.55c-0.12-2.44-0.68-6.18-2.58-10.46c-1.43-3.21-4.7-8.73-6.43-11.59
				c-0.18-0.29,0.2-0.59,0.44-0.36c2.6,2.53,7.74,7.89,10.19,12.79c2.76,5.51,7.18,13.6,7.18,13.6l1.22-0.16c0,0-0.24-5.99-0.84-8.4
				c-0.61-2.44-2.46-6.28-3.43-8.21c-0.14-0.28,0.2-0.55,0.44-0.35c1.73,1.43,5.12,4.42,6.35,6.88c1.68,3.36,3.63,10.92,3.63,10.92
				s8.97,2.52,10.65,5.88C1014.72,166.04,1015.51,143.59,1011.36,135.8z"/>
			<path class="st16" d="M935.7,108.78c0,0,7.55,12.79,8,23.26c0.2,4.66,0.22,9.07,0.18,12.54c-0.05,4.34-2.67,8.23-6.67,9.9
				l-7.89,3.29c-1.26,0.53-2.72,0.02-3.39-1.17l-0.38-0.68c-2.12-3.79-2.95-8.17-2.37-12.47l0.43-3.22c0.01-0.08-0.1-0.11-0.14-0.04
				l-1.55,3.08c-2.4,4.79-2.31,10.46,0.26,15.16l0,0c0.51,0.93,0.1,2.09-0.87,2.5l-2.51,1.07c-3.99,1.7-17.18-0.58-13.31-24.57
				C909.21,114.53,935.7,108.78,935.7,108.78z"/>
			<path class="st16" d="M929.51,111.11c0,0,5.11,0.58,10.29,12.21c4.22,9.49,8.8,19.66,10.35,23.1c0.34,0.76,1.04,1.29,1.87,1.41
				l33.88,5.18c1.54,0.24,2.91-1,2.83-2.55c-0.12-2.44-0.68-6.18-2.58-10.46c-1.43-3.21-4.7-8.73-6.43-11.59
				c-0.17-0.29,0.2-0.59,0.44-0.36c2.6,2.53,7.73,7.89,10.19,12.79c2.76,5.51,7.18,13.6,7.18,13.6l1.22-0.16c0,0-0.24-5.99-0.84-8.4
				c-0.61-2.44-2.46-6.28-3.43-8.21c-0.14-0.28,0.2-0.55,0.44-0.35c1.73,1.43,5.12,4.42,6.35,6.88c1.68,3.36,3.63,10.92,3.63,10.92
				s8.97,2.52,10.65,5.88c1.68,3.36,3.24-19.56-1.68-26.88c-9.08-13.51-15.68-19.85-20.69-22.8c-5-2.95-21.27-13.41-37.35-10.28
				C939.75,104.17,929.51,111.11,929.51,111.11z"/>
			<g>
				<path class="st25" d="M939.95,195.19c-0.1,3.64,2.76,6.67,6.4,6.78c3.64,0.1,6.67-2.76,6.78-6.4c0.1-3.64-2.76-6.67-6.4-6.78
					C943.09,188.69,940.05,191.56,939.95,195.19z"/>
				<g>
					<path d="M978.13,190.26c-0.06-0.09-0.12-0.19-0.19-0.28c0.1,0.13,0.21,0.27,0.31,0.4c-0.18-0.22-0.37-0.42-0.6-0.59
						c0.13,0.1,0.27,0.21,0.4,0.31c-0.25-0.19-0.51-0.34-0.8-0.46c0.16,0.07,0.31,0.13,0.47,0.2c-0.26-0.1-0.53-0.18-0.81-0.22
						c0.18,0.02,0.35,0.05,0.53,0.07c-0.28-0.04-0.57-0.04-0.85-0.01c0.18-0.02,0.35-0.05,0.53-0.07c-0.32,0.04-0.62,0.13-0.91,0.25
						c0.16-0.07,0.31-0.13,0.47-0.2c-0.27,0.12-0.51,0.26-0.74,0.44c0.13-0.1,0.27-0.21,0.4-0.31c-0.23,0.18-0.43,0.38-0.61,0.61
						c0.1-0.13,0.21-0.27,0.31-0.4c-0.05,0.07-0.1,0.14-0.15,0.21c-0.29,0.43-0.67,0.77-1.18,0.91c-0.47,0.13-1.1,0.07-1.52-0.2
						c-0.85-0.55-1.33-1.79-0.71-2.71c1.02-1.52,2.73-2.55,4.6-2.51c1.84,0.04,3.5,1.03,4.49,2.56c0.56,0.87,0.21,2.22-0.71,2.71
						C979.85,191.49,978.73,191.19,978.13,190.26L978.13,190.26z"/>
					<g>
						<path d="M978.17,212.83c0.58,0,1.16-0.02,1.75-0.05l0.35-0.02c1.09-0.07,1.92-1,1.85-2.09c-0.06-1.09-0.94-1.91-2.09-1.86
							l-0.36,0.02c-5.5,0.34-11.06-1.19-15.63-4.29c-0.9-0.61-2.13-0.38-2.75,0.52c-0.61,0.9-0.38,2.13,0.52,2.75
							C966.63,211.07,972.37,212.83,978.17,212.83z"/>
					</g>
					<path class="st25" d="M993.88,195.31c-0.1,3.64,2.76,6.67,6.4,6.78c3.64,0.1,6.67-2.76,6.78-6.4c0.1-3.64-2.76-6.67-6.4-6.78
						C997.02,188.81,993.98,191.67,993.88,195.31z"/>
					<g>
						<path d="M994.95,182.85L994.95,182.85c2.55,0.07,4.67-1.93,4.74-4.48l0.19-6.59c0.07-2.55-1.93-4.67-4.48-4.74l0,0
							c-2.55-0.07-4.67,1.93-4.74,4.48l-0.19,6.59C990.4,180.65,992.41,182.78,994.95,182.85z"/>
						<path d="M999.76,172.05c2.5,0.07,5.01-0.48,7.26-1.62c0.97-0.5,1.36-1.69,0.86-2.66c-0.5-0.97-1.69-1.36-2.66-0.86
							c-2.64,1.35-5.77,1.57-8.57,0.62c-1.03-0.35-2.16,0.2-2.51,1.24c-0.35,1.03,0.2,2.16,1.24,2.51
							C996.8,171.75,998.28,172.01,999.76,172.05z"/>
						<path d="M956.02,181.82L956.02,181.82c-2.55-0.07-4.55-2.2-4.48-4.74l0.19-6.59c0.07-2.55,2.2-4.55,4.74-4.48l0,0
							c2.55,0.07,4.55,2.2,4.48,4.74l-0.19,6.59C960.69,179.89,958.56,181.9,956.02,181.82z"/>
						<path d="M951.84,170.77c1.48,0.04,2.97-0.13,4.41-0.53c1.05-0.29,1.67-1.38,1.38-2.43c-0.29-1.05-1.38-1.67-2.43-1.38
							c-2.86,0.79-5.96,0.39-8.52-1.11c-0.94-0.55-2.15-0.23-2.7,0.71c-0.55,0.94-0.23,2.15,0.71,2.7
							C946.87,170,949.34,170.69,951.84,170.77z"/>
						<path d="M1008.7,163.46c0.58,0.02,1.16-0.22,1.57-0.7c0.71-0.83,0.6-2.08-0.23-2.79c-5.22-4.41-11.34-6.3-18.74-5.77
							c-1.09,0.08-1.91,1.02-1.83,2.11c0.08,1.09,1.02,1.9,2.11,1.83c6.4-0.46,11.45,1.08,15.9,4.85
							C1007.83,163.3,1008.26,163.45,1008.7,163.46z"/>
						<path d="M941.73,162.95c-0.58-0.02-1.15-0.29-1.53-0.79c-0.66-0.87-0.48-2.11,0.39-2.77c5.46-4.11,11.69-5.64,19.04-4.69
							c1.08,0.14,1.85,1.13,1.71,2.22c-0.14,1.08-1.13,1.84-2.22,1.71c-6.36-0.82-11.49,0.42-16.15,3.93
							C942.6,162.84,942.16,162.96,941.73,162.95z"/>
					</g>
				</g>
			</g>
			<path class="st20" d="M919.47,161.72c-0.67-0.57-1.9-1.43-3.99-2.72c-8.04-4.96-2.02-21.36-2.02-21.36l-4.35,2.13
				c0,0.01-0.01,0.02-0.01,0.04c-1.48,5.87-0.76,12.37,0.29,17.3c0.9,4.24,5.45,6.59,9.43,4.89L919.47,161.72z"/>
			<path class="st20" d="M955.71,148.39c1.23-1.63-0.45-6.11-5-14.92c-2.8-5.43-7.18-7.58-10.13-8.43c4,8.97,8.13,18.15,9.59,21.38
				c0.34,0.76,1.04,1.29,1.87,1.41L955.71,148.39L955.71,148.39z"/>
			<path class="st20" d="M998.28,154.34c0-0.08,0-0.14-0.01-0.22c-0.33-4.42-4.31-11.83-8.18-18.8c-3.87-6.97-10.23-7.42-9.93-7.27
				c0.78,0.39,1.65,1.32,2.55,2.6c2.62,2.79,5.85,6.61,7.64,10.19c2.76,5.51,7.18,13.6,7.18,13.6L998.28,154.34z"/>
			<path class="st20" d="M1004.9,155.12c0,0,2.26,0.63,4.72,1.69c-0.68-1.51-1.36-4.77-2.83-7.66
				c-5.87-11.51-12.07-11.99-11.87-11.83c1.73,1.43,5.12,4.42,6.35,6.88C1002.95,147.56,1004.9,155.12,1004.9,155.12z"/>
			<g>
				<path class="st20" d="M924.29,139.19c0,0-0.29,0.37-0.68,0.99c0.01,0.01,0.02,0.03,0.02,0.06l-0.43,3.22
					c-0.58,4.3,0.26,8.68,2.37,12.47l0.38,0.68c0.67,1.19,2.12,1.7,3.39,1.17l3.37-1.4c-0.65-0.69-3.03-0.8-5.31-4.02
					C924.05,147.63,924.29,140.74,924.29,139.19z"/>
				<path class="st20" d="M922.12,142.91l0.84-1.67C922.68,141.74,922.39,142.31,922.12,142.91z"/>
			</g>
		</g>
	</g>
</g>
<g>
	<path class="st26" d="M1150.8,449.27l-208.54,58.82c-10.62,3-21.66-3.19-24.66-13.81l-31.93-113.22
		c-3-10.62,3.19-21.66,13.81-24.66l208.54-58.82c10.62-3,21.66,3.19,24.66,13.81l31.93,113.22
		C1167.61,435.23,1161.43,446.28,1150.8,449.27z"/>
	<path class="st7" d="M1117.52,343.52l-56.76,16.01c-3.51,0.99-7.16-1.05-8.15-4.57l-2.4-8.51c-0.99-3.51,1.05-7.16,4.57-8.15
		l56.76-16.01c3.51-0.99,7.16,1.05,8.15,4.57l2.4,8.51C1123.07,338.88,1121.03,342.53,1117.52,343.52z"/>
	<path class="st7" d="M971.24,460.88l-39.02,11c-2.47,0.7-5.04-0.74-5.74-3.22l-1.77-6.29c-0.7-2.47,0.74-5.04,3.22-5.74l39.02-11
		c2.47-0.7,5.04,0.74,5.74,3.22l1.77,6.29C975.16,457.62,973.72,460.19,971.24,460.88z"/>
	<path class="st7" d="M1035.73,466.93l-99.05,27.94c-1.44,0.41-2.94-0.43-3.34-1.87l-1.25-4.44c-0.41-1.44,0.43-2.94,1.87-3.34
		l99.05-27.94c1.44-0.41,2.94,0.43,3.34,1.87l1.25,4.44C1038.01,465.03,1037.17,466.52,1035.73,466.93z"/>
	<path class="st7" d="M1128.75,368.13l-64.96,18.32c-1.17,0.33-2.39-0.35-2.72-1.52l-1.52-5.4c-0.33-1.17,0.35-2.39,1.52-2.72
		l64.96-18.32c1.17-0.33,2.39,0.35,2.72,1.52l1.52,5.4C1130.6,366.58,1129.92,367.8,1128.75,368.13z"/>
	<path class="st7" d="M1027.64,444.98l-39.02,11c-2.47,0.7-5.04-0.74-5.74-3.22l-1.77-6.29c-0.7-2.47,0.74-5.04,3.22-5.74l39.02-11
		c2.47-0.7,5.04,0.74,5.74,3.22l1.77,6.29C1031.56,441.71,1030.12,444.28,1027.64,444.98z"/>
	<path class="st7" d="M1084.05,429.07l-39.02,11c-2.47,0.7-5.04-0.74-5.74-3.22l-1.77-6.29c-0.7-2.47,0.74-5.04,3.22-5.74l39.02-11
		c2.47-0.7,5.04,0.74,5.74,3.22l1.77,6.29C1087.96,425.8,1086.52,428.37,1084.05,429.07z"/>
	<path class="st7" d="M1140.45,413.16l-39.02,11c-2.47,0.7-5.04-0.74-5.74-3.22l-1.77-6.29c-0.7-2.47,0.74-5.04,3.22-5.74l39.02-11
		c2.47-0.7,5.04,0.74,5.74,3.22l1.77,6.29C1144.36,409.9,1142.92,412.47,1140.45,413.16z"/>
	<g>
		<path class="st27" d="M970.95,400.61l-51.49,14.52c-4.97,1.4-10.13-1.49-11.53-6.46l-6.9-24.47c-1.4-4.97,1.49-10.13,6.46-11.53
			l51.49-14.52c4.97-1.4,10.13,1.49,11.53,6.46l6.9,24.47C978.81,394.05,975.92,399.21,970.95,400.61z"/>
		<path class="st28" d="M975.6,382.66l-21.8,6.15c-0.7,0.2-1.1,0.92-0.9,1.61c0.2,0.7,0.92,1.1,1.62,0.9l21.8-6.15L975.6,382.66z"/>
		
			<rect x="949.42" y="361.34" transform="matrix(0.9625 -0.2714 0.2714 0.9625 -68.3746 272.4525)" class="st28" width="2.62" height="44.11"/>
		
			<rect x="922.83" y="368.84" transform="matrix(0.9625 -0.2714 0.2714 0.9625 -71.4097 265.5286)" class="st28" width="2.62" height="44.11"/>
		<path class="st28" d="M924.35,397.12l-18.23,5.14l0.71,2.52l18.23-5.14c0.7-0.2,1.1-0.92,0.9-1.62
			C925.77,397.33,925.05,396.92,924.35,397.12z"/>
		<path class="st28" d="M921.51,381.56l-19.66,5.54l0.71,2.52l19.66-5.54c0.7-0.2,1.1-0.92,0.9-1.61S922.2,381.37,921.51,381.56z"/>
	</g>
</g>
<g>
	<path class="st23" d="M1146.44,337.24c-0.39-5.02-2.94-9.63-7.02-12.57c-6.3-4.55-16.09-9.99-24.14-7.25
		c-4.95,1.68-5.73,37.39,6.03,42.46c5.68,2.45,12.63-1.52,18.99,3.06c5.11,3.67,8.61,9.67,8.61,9.67l0,0
		c2.31-7.12,2.59-14.74,0.8-22L1146.44,337.24z"/>
	<g>
		<path class="st24" d="M1111.87,331.96c2.59-1.15,6.16-2.37,9.71-2.44c6.54-0.11,13.85,5.13,14.16,5.35
			c0.33,0.24,0.4,0.7,0.16,1.03c-0.1,0.14-0.24,0.23-0.4,0.28c-0.21,0.06-0.44,0.03-0.63-0.11c-0.07-0.05-7.63-4-13.67-3.9
			c-3.55,0.06-6.82,0.25-9.32,1.41C1111.87,333.04,1111.86,332.5,1111.87,331.96z"/>
		<path class="st24" d="M1112.36,340.89c2.19-1.24,5.63-2.57,10.36-2.58c8.7-0.02,13.86,4.78,14.08,4.98
			c0.29,0.28,0.31,0.74,0.03,1.04c-0.09,0.1-0.21,0.17-0.33,0.2c-0.24,0.07-0.51,0.01-0.71-0.17c-0.05-0.05-4.97-4.6-13.06-4.58
			c-4.8,0.01-8.18,1.5-10.15,2.71C1112.49,341.96,1112.42,341.43,1112.36,340.89z"/>
		<path class="st24" d="M1138.31,351.14c0.35,0.2,0.47,0.65,0.26,1.01c-0.1,0.17-0.26,0.29-0.44,0.34
			c-0.19,0.05-0.39,0.03-0.57-0.07c-0.09-0.05-9.08-5.1-22.84-1.03c-0.17-0.45-0.32-0.92-0.47-1.39
			C1128.64,345.71,1137.91,350.9,1138.31,351.14z"/>
		<path class="st24" d="M1112.65,323.09c1.83-0.17,4.13-0.28,6.44-0.15c10.67,0.61,17.17,4.61,17.44,4.78
			c0.34,0.22,0.45,0.67,0.23,1.01c-0.1,0.16-0.25,0.27-0.42,0.32c-0.19,0.05-0.41,0.03-0.59-0.08c-0.06-0.04-4.92-3.85-15.19-4.26
			c-4.41-0.18-6.82,1.17-8.44,2.29C1112.24,325.58,1112.43,324.27,1112.65,323.09z"/>
	</g>
</g>
<g>
	<path class="st16" d="M951.47,487.59c-1.76,13.47,0.93,24.93,6.02,25.59c5.08,0.66,10.63-9.72,12.39-23.18
		c1.76-13.47-0.93-24.93-6.02-25.59C958.78,463.74,953.23,474.12,951.47,487.59z"/>
	<g>
		<path class="st23" d="M929.54,462.03l39.29,15.06c4.34-2.41,12.18-6.46,18.12-7.83c8.67-1.99,20.09-5.46,20.51-3.03
			c0.42,2.43-0.24,8.44-2.93,9.71c-2.69,1.27-4.58,3.6,4.29,4.83c8.87,1.23,24.19,0.09,25.57-0.65c1.38-0.74,9.54,2.42,5.5,8.35
			c-4.04,5.92-15.85,23.82-22.38,25.53c-6.53,1.71-19.1,3.21-28.77-0.05c-9.67-3.26-15.09-8.53-17.48-7.92
			c-7.47,1.89-45.61-0.53-77.2-3.43C872.85,500.64,929.54,462.03,929.54,462.03z"/>
		<path class="st24" d="M905.36,493.83c12.33,1.3,67.26,4.77,67.26,4.77s4.44,0.49,13.91,8.67c7.07,6.1,28.89,2.22,39.51-0.15
			c-3.12,3.52-6.17,6.25-8.53,6.87c-6.53,1.71-19.1,3.21-28.77-0.05c-9.67-3.26-15.09-8.53-17.48-7.92
			c-6.37,1.61-35.06,0.08-62.97-2.2C881.52,501.63,893.03,492.53,905.36,493.83z"/>
		<path class="st24" d="M1015.63,506.31c3.09-0.25,8.57-1.46,13.3-2.63c-0.39,0.48-0.77,0.96-1.16,1.42
			c-4.39,1.06-9.17,2.07-12.05,2.3c-6.26,0.5-13.99,0.65-14.07,0.65c-0.17,0-0.32-0.07-0.42-0.19c-0.08-0.1-0.14-0.22-0.14-0.36
			c-0.01-0.3,0.24-0.56,0.54-0.56C1001.7,506.95,1009.41,506.8,1015.63,506.31z"/>
		<path class="st24" d="M1004.69,499.15c-0.14-0.02-0.27-0.08-0.35-0.18c-0.1-0.11-0.15-0.26-0.14-0.42c0.03-0.3,0.3-0.52,0.61-0.49
			c0.16,0.02,16.51,1.72,27.16-0.19c0.59-0.11,1.13-0.22,1.64-0.35c-0.32,0.44-0.64,0.89-0.97,1.33c-0.16,0.03-0.3,0.07-0.47,0.1
			C1021.35,500.89,1004.86,499.17,1004.69,499.15z"/>
		<path class="st24" d="M1033.1,491.24c-10.95,0.9-27.21-2.37-27.37-2.41c-0.12-0.02-0.23-0.09-0.3-0.17
			c-0.11-0.12-0.16-0.3-0.13-0.48c0.06-0.3,0.35-0.49,0.65-0.43c0.16,0.03,16.27,3.28,27.06,2.39c3.84-0.32,5.97-1.2,7.15-2.11
			c-0.08,0.14-0.17,0.28-0.27,0.43c-0.31,0.46-0.68,1-1.08,1.58C1037.31,490.65,1035.41,491.05,1033.1,491.24z"/>
	</g>
	<path class="st21" d="M818.69,370.7c0.78-3.4,1.62-6.76,2.52-10.08c14.19-51.89,36.88-97.95,59.31-93.56
		c25.6,5.02,21.95,56.6,17.89,82.93c-4.08,26.45-22.3,73.26-27.77,85.62l0,0l84.04,25.84l-9.99,49.1c0,0-88.02-10.5-120.75-26.7
		C791.31,467.72,817.83,373.78,818.69,370.7z"/>
	<path class="st22" d="M823.93,465.56c-17.27-18.89,1.28-96.24,20.67-143.57c4.43-10.8,25.25-41.87,37.45-54.53
		c-0.5-0.14-1-0.29-1.52-0.4c-22.43-4.4-45.12,41.67-59.31,93.56c-0.91,3.31-1.75,6.68-2.52,10.08
		c-0.86,3.08-27.38,97.02,5.25,113.17c32.73,16.2,120.75,26.7,120.75,26.7l2.83-13.89l0,0
		C921.23,492.25,840.68,483.88,823.93,465.56z"/>
	<path class="st29" d="M942.66,484.22c1.66-9.96,4.89-18.54,8.58-23.83c6.98,2.17,12.42,3.93,14.19,4.39
		c-5-0.22-10.36,10.01-12.08,23.2c-1.64,12.54,0.58,23.34,5,25.3c-3.21-0.67-11.68-2.43-15.06-2.94
		C941.3,504.14,940.93,494.61,942.66,484.22z"/>
	<path class="st30" d="M941.58,495.18c4.17,0.69,7.96,1.3,11.23,1.84c0.15,8.39,2.23,14.8,5.53,16.27
		c-3.21-0.67-11.68-2.43-15.06-2.94C942.03,506.41,941.42,501.15,941.58,495.18z"/>
</g>
<g>
	<path class="st2" d="M764.57,344.5l0-29.77c0-2.83-1.88-5.25-4.54-6.2c-8.47-3.02-14.85-7.19-19.14-12.51
		c-5.03-6.23-7.54-13.8-7.54-22.7c0-9.01,2.84-16.57,8.52-22.7c5.69-6.12,13.25-9.65,22.7-10.58v-8.16h11.95v8.16
		c8.73,1.04,15.68,4.02,20.83,8.93c3.43,3.27,6.04,7.27,7.83,12.01c1.46,3.89-1.25,8.15-5.36,8.69l-8.03,1.05
		c-2.81,0.37-5.61-1.11-6.7-3.72c-1.71-4.1-4.57-7.02-8.57-8.76l0,27.35c0,2.88,1.97,5.37,4.72,6.24
		c10.63,3.36,18.03,7.52,22.21,12.5c4.78,5.68,7.17,12.97,7.17,21.87c0,9.94-3.01,18.32-9.03,25.12
		c-5.01,5.67-11.65,9.52-19.92,11.53c-2.96,0.72-5.16,3.19-5.16,6.24l0,10.15h-11.95l0-9.53c0-3.16-2.31-5.69-5.39-6.42
		c-7.07-1.68-13-4.9-17.77-9.67c-4.46-4.47-7.72-10.33-9.76-17.58c-1.09-3.89,1.61-7.89,5.63-8.32l8.83-0.95
		c2.84-0.3,5.7,1.22,6.67,3.91c0.92,2.54,2.15,4.83,3.7,6.88C758.91,340.77,761.61,343.07,764.57,344.5z M764.57,258.01
		c-3.24,1.1-5.82,2.97-7.75,5.6c-1.92,2.63-2.88,5.55-2.88,8.73c0,2.91,0.89,5.62,2.64,8.12c1.76,2.5,4.43,4.52,7.99,6.05V258.01z
		 M776.52,345.65c4.12-0.77,7.47-2.67,10.05-5.72c2.58-3.05,3.87-6.63,3.87-10.75c0-3.68-1.09-6.85-3.25-9.51
		c-2.17-2.66-5.73-4.71-10.67-6.14V345.65z"/>
</g>
<g>
	<defs>
		<path id="SVGID_00000038405855384662290550000003568394552585361081_" d="M1739.8,575.99c0.92-150.46-87.54-270.66-219.48-318.26
			c-144.96-52.3-420.05-5.66-491.45-4.47c-176.9,2.93-176.85-66.02-277.77-39.42c-72.97,19.24-53.85,136.87-23.1,206.92
			c68.15,155.23-5.36,159.5,23.1,264.33c54.57,200.97,319.39,257.96,430.62,274.9C1352.68,986.03,1737.37,974.18,1739.8,575.99z"/>
	</defs>
	<clipPath id="SVGID_00000124884362740355677930000008213317413843164813_">
		<use xlink:href="#SVGID_00000038405855384662290550000003568394552585361081_"  style="overflow:visible;"/>
	</clipPath>
	<g style="clip-path:url(#SVGID_00000124884362740355677930000008213317413843164813_);">
		
			<ellipse transform="matrix(0.1602 -0.9871 0.9871 0.1602 -50.7388 1412.7079)" class="st1" cx="804.85" cy="736.17" rx="66.07" ry="66.07"/>
		
			<ellipse transform="matrix(0.1602 -0.9871 0.9871 0.1602 -50.7388 1412.7079)" class="st2" cx="804.85" cy="736.17" rx="58.14" ry="58.14"/>
		<path class="st1" d="M801.16,758.46l0-17.04c0-1.62-1.07-3-2.6-3.55c-4.85-1.73-8.5-4.11-10.96-7.16
			c-2.88-3.57-4.32-7.9-4.32-12.99c0-5.16,1.62-9.49,4.88-12.99c3.25-3.5,7.59-5.52,12.99-6.06v-4.67H808v4.67
			c5,0.6,8.98,2.3,11.93,5.11c1.97,1.87,3.46,4.16,4.48,6.88c0.84,2.22-0.71,4.67-3.07,4.97l-4.59,0.6
			c-1.61,0.21-3.21-0.63-3.84-2.13c-0.98-2.35-2.61-4.02-4.91-5.02v15.66c0,1.65,1.13,3.07,2.7,3.57
			c6.08,1.92,10.32,4.31,12.72,7.16c2.74,3.25,4.11,7.43,4.11,12.52c0,5.69-1.72,10.49-5.17,14.38c-2.87,3.25-6.67,5.45-11.4,6.6
			c-1.7,0.41-2.95,1.83-2.95,3.57l0,5.81h-6.84v-5.45c0-1.81-1.32-3.26-3.08-3.68c-4.05-0.96-7.44-2.81-10.17-5.54
			c-2.56-2.56-4.42-5.91-5.59-10.06c-0.63-2.23,0.92-4.52,3.22-4.76l5.06-0.54c1.63-0.17,3.26,0.7,3.82,2.24
			c0.52,1.46,1.23,2.77,2.12,3.94C797.92,756.32,799.46,757.64,801.16,758.46z M801.16,708.94c-1.85,0.63-3.33,1.7-4.44,3.21
			c-1.1,1.51-1.65,3.18-1.65,5c0,1.67,0.51,3.22,1.51,4.65c1.01,1.43,2.53,2.59,4.58,3.46V708.94z M808,759.11
			c2.36-0.44,4.27-1.53,5.75-3.28c1.48-1.75,2.22-3.8,2.22-6.15c0-2.11-0.62-3.92-1.86-5.45c-1.24-1.53-3.28-2.7-6.11-3.51V759.11z"
			/>
	</g>
</g>
<g>
	<defs>
		<path id="SVGID_00000109707870066665482220000002197012136417797286_" d="M1739.8,575.99c0.92-150.46-87.54-270.66-219.48-318.26
			c-144.96-52.3-420.05-5.66-491.45-4.47c-176.9,2.93-176.85-66.02-277.77-39.42c-72.97,19.24-53.85,136.87-23.1,206.92
			c68.15,155.23-5.36,159.5,23.1,264.33c54.57,200.97,319.39,257.96,430.62,274.9C1352.68,986.03,1737.37,974.18,1739.8,575.99z"/>
	</defs>
	<clipPath id="SVGID_00000010307366968337544760000018434416260196728982_">
		<use xlink:href="#SVGID_00000109707870066665482220000002197012136417797286_"  style="overflow:visible;"/>
	</clipPath>
	<g style="clip-path:url(#SVGID_00000010307366968337544760000018434416260196728982_);">
		<path class="st7" d="M1471.83,959.86l-13.13-1.66c-6.79-0.86-11.59-7.05-10.74-13.83l3.93-31.21c0.86-6.79,7.05-11.59,13.83-10.74
			l13.13,1.65c6.79,0.86,11.59,7.05,10.74,13.83l-3.93,31.21C1484.81,955.91,1478.62,960.71,1471.83,959.86z"/>
		<path class="st7" d="M1603.22,949.32l-13.2,0.98c-6.82,0.51-12.76-4.61-13.27-11.43l-2.34-31.37
			c-0.51-6.82,4.61-12.76,11.43-13.27l13.2-0.98c6.82-0.51,12.76,4.61,13.27,11.43l2.34,31.37
			C1615.16,942.87,1610.04,948.81,1603.22,949.32z"/>
		<path class="st7" d="M1702.68,786.71c0.31,0,0.62,0.05,0.93,0.16c1.55,0.53,2.38,2.2,1.86,3.75c-0.22,0.65-5.56,16.06-19.26,22.13
			c-5.17,2.29-10.78,2.93-16.78,1.93c-0.79,1.04-1.69,1.98-2.7,2.82c-5.89,4.91-14.62,5.51-23.94,1.65
			c-1.51-0.62-2.23-2.36-1.61-3.87c0.62-1.51,2.36-2.23,3.87-1.61c7.3,3.02,13.64,2.77,17.84-0.69c-1.17-0.41-2.35-0.87-3.55-1.39
			c-11.63-5.08-11.55-12.05-10.98-14.81c1.17-5.67,7.26-10.29,13.57-10.31c5.54-0.05,9.6,3.53,10.87,9.5c1,4.71,0.81,9.21-0.46,13.1
			c4.1,0.39,7.92-0.19,11.43-1.73c11.31-4.98,16.03-18.49,16.08-18.62C1700.27,787.48,1701.44,786.7,1702.68,786.71z
			 M1666.47,807.91c1.17-3.04,1.38-6.75,0.54-10.7c-0.68-3.17-2.35-4.78-4.99-4.8c-0.02,0-0.05,0-0.07,0
			c-3.41,0.01-7.19,2.72-7.78,5.58c-0.59,2.84,2.16,5.82,7.55,8.17C1663.33,806.86,1664.92,807.45,1666.47,807.91z"/>
		
			<ellipse transform="matrix(0.9972 -0.0743 0.0743 0.9972 -51.3018 110.0856)" class="st18" cx="1454.93" cy="745.02" rx="22.25" ry="34.51"/>
		
			<ellipse transform="matrix(0.9972 -0.0742 0.0742 0.9972 -56.9977 117.1519)" class="st18" cx="1547.13" cy="825.16" rx="136.61" ry="112.37"/>
		<path class="st0" d="M1618.61,747.29c-0.61,0.05-1.24-0.07-1.82-0.35c-18.39-9.01-39.4-14.35-60.76-15.46
			c-17.06-0.88-33.81,0.86-49.78,5.2c-1.9,0.52-3.85-0.61-4.36-2.5c-0.52-1.9,0.6-3.85,2.5-4.36c16.69-4.53,34.19-6.36,52.01-5.44
			c22.31,1.15,44.27,6.75,63.52,16.17c1.76,0.86,2.49,2.99,1.63,4.76C1620.97,746.48,1619.83,747.19,1618.61,747.29z"/>
		<path class="st33" d="M1529.05,737.89c-0.3,17.01-3.82,33.9-20.4,30.44c-10.73-2.24-19.61-14.14-19.31-31.15
			c0.3-17.01,9.44-30.64,20.4-30.44C1520.71,706.93,1529.35,720.88,1529.05,737.89z"/>
		<path class="st7" d="M1617.56,749.49c-0.61,0.05-1.24-0.07-1.82-0.35c-18.39-9.01-39.4-14.35-60.76-15.46
			c-17.06-0.88-33.81,0.86-49.78,5.2c-1.9,0.52-3.85-0.61-4.36-2.5c-0.52-1.9,0.6-3.85,2.5-4.36c16.69-4.53,34.19-6.36,52.01-5.44
			c22.31,1.15,44.27,6.75,63.52,16.17c1.76,0.86,2.49,2.99,1.63,4.76C1619.92,748.68,1618.78,749.4,1617.56,749.49z"/>
		<path class="st18" d="M1524.84,741.45c-4.13,16.5-8.03,35.53-26.74,25.05c-9.57-5.36-15.91-18.2-11.78-34.7
			c4.13-16.5,16.1-27.72,26.74-25.05C1523.69,709.41,1528.97,724.95,1524.84,741.45z"/>
		<path class="st7" d="M1489.84,778.98c0.47,6.29-1.4,11.55-4.16,11.76c-2.77,0.21-5.39-4.73-5.86-11.01
			c-0.47-6.29,1.4-11.55,4.16-11.76C1486.75,767.76,1489.37,772.69,1489.84,778.98z"/>
		<path class="st18" d="M1517.92,961.78l-13.2,0.98c-6.82,0.51-12.76-4.61-13.27-11.43l-2.34-31.37
			c-0.51-6.82,4.61-12.76,11.43-13.27l13.2-0.98c6.82-0.51,12.76,4.61,13.27,11.43l2.34,31.37
			C1529.86,955.33,1524.74,961.27,1517.92,961.78z"/>
		<path class="st18" d="M1645.98,949.82l-12.71,3.67c-6.57,1.9-13.44-1.89-15.33-8.46l-8.73-30.22c-1.9-6.57,1.89-13.44,8.46-15.33
			l12.71-3.67c6.57-1.9,13.44,1.89,15.33,8.46l8.73,30.22C1656.34,941.06,1652.55,947.92,1645.98,949.82z"/>
		<path class="st7" d="M1664.17,764.46c4.74,10.21,7.7,21.21,8.57,32.78c4.61,61.89-52.65,116.6-127.89,122.21
			c-52.57,3.91-100-17.19-125.39-51.36c20.61,44.38,74.84,73.7,136.02,69.14c75.24-5.6,132.5-60.32,127.89-122.21
			C1681.98,796.37,1675.12,779.2,1664.17,764.46z"/>
		<path class="st0" d="M1527.04,802.75c3.55,6.16-2.2,16.13-12.85,22.26s-22.15,6.11-25.7-0.05c-3.55-6.16,2.2-16.13,12.85-22.26
			C1511.98,796.57,1523.49,796.59,1527.04,802.75z"/>
		<path class="st7" d="M1428.05,873.26L1428.05,873.26c-18.51,1.38-34.64-12.51-36.02-31.03l-1.88-25.3
			c-1.38-18.51,12.51-34.64,31.03-36.02h0c18.51-1.38,34.64,12.51,36.02,31.03l1.88,25.3
			C1460.45,855.76,1446.56,871.88,1428.05,873.26z"/>
		<path class="st18" d="M1420.7,871.2L1420.7,871.2c-19.95,1.49-37.32-13.48-38.81-33.43l-1.3-17.51
			c-1.49-19.95,13.48-37.32,33.43-38.81l0,0c19.95-1.49,37.32,13.48,38.81,33.43l1.3,17.51
			C1455.62,852.34,1440.65,869.71,1420.7,871.2z"/>
		<path class="st0" d="M1425.41,791.24c-10.63-9.15-26.97-7.93-36.13,2.69c-6.05,7.02-9.43,16.35-8.68,26.33l1.3,17.51
			c0.74,9.98,5.46,18.71,12.49,24.76c10.63,9.15,26.97,7.93,36.13-2.69c6.05-7.02,9.43-16.35,8.68-26.33l-1.3-17.51
			C1437.16,806.02,1432.44,797.29,1425.41,791.24z"/>
		<g>
			<path class="st18" d="M1419.7,823.2c0.47,6.29-1.4,11.55-4.16,11.76c-2.77,0.21-5.39-4.73-5.86-11.01
				c-0.47-6.29,1.4-11.55,4.16-11.76C1416.61,811.98,1419.23,816.91,1419.7,823.2z"/>
			<path class="st7" d="M1415.01,812.41c-2.13,1.34-3.44,5.97-3.04,11.36c0.4,5.39,2.39,9.77,4.69,10.79
				c2.13-1.34,3.44-5.97,3.04-11.36S1417.31,813.43,1415.01,812.41z"/>
		</g>
		<g>
			<path class="st18" d="M1401.61,823.87c0.47,6.29-1.4,11.55-4.16,11.76s-5.39-4.73-5.86-11.01c-0.47-6.29,1.4-11.55,4.16-11.76
				C1398.52,812.65,1401.15,817.58,1401.61,823.87z"/>
			<path class="st7" d="M1396.93,813.08c-2.13,1.34-3.44,5.97-3.04,11.36s2.39,9.77,4.69,10.79c2.13-1.34,3.44-5.97,3.04-11.36
				C1401.21,818.48,1399.23,814.1,1396.93,813.08z"/>
		</g>
	</g>
</g>
<g>
	
		<ellipse transform="matrix(0.7071 -0.7071 0.7071 0.7071 45.8719 1357.2361)" class="st7" cx="1661.26" cy="623.25" rx="35.82" ry="35.82"/>
	
		<ellipse transform="matrix(0.7071 -0.7071 0.7071 0.7071 45.8719 1357.2361)" class="st26" cx="1661.26" cy="623.25" rx="31.52" ry="31.52"/>
	<path class="st34" d="M1659.26,635.33v-9.24c0-0.88-0.58-1.63-1.41-1.92c-2.63-0.94-4.61-2.23-5.94-3.88
		c-1.56-1.93-2.34-4.28-2.34-7.04c0-2.8,0.88-5.14,2.65-7.04c1.76-1.9,4.11-2.99,7.04-3.28v-2.53h3.71v2.53
		c2.71,0.32,4.87,1.25,6.47,2.77c1.07,1.02,1.88,2.26,2.43,3.73c0.45,1.21-0.39,2.53-1.66,2.7l-2.49,0.33
		c-0.87,0.11-1.74-0.34-2.08-1.15c-0.53-1.27-1.42-2.18-2.66-2.72v8.49c0,0.89,0.61,1.67,1.46,1.94c3.3,1.04,5.6,2.33,6.89,3.88
		c1.48,1.76,2.23,4.03,2.23,6.79c0,3.08-0.93,5.68-2.8,7.8c-1.56,1.76-3.62,2.95-6.18,3.58c-0.92,0.22-1.6,0.99-1.6,1.94l0,3.15
		h-3.71v-2.96c0-0.98-0.72-1.77-1.67-1.99c-2.2-0.52-4.03-1.52-5.51-3c-1.39-1.39-2.4-3.21-3.03-5.45c-0.34-1.21,0.5-2.45,1.75-2.58
		l2.74-0.29c0.88-0.09,1.77,0.38,2.07,1.21c0.28,0.79,0.67,1.5,1.15,2.13C1657.51,634.17,1658.34,634.88,1659.26,635.33z
		 M1659.26,608.48c-1.01,0.34-1.81,0.92-2.4,1.74c-0.59,0.82-0.9,1.72-0.9,2.71c0,0.9,0.27,1.74,0.82,2.52
		c0.55,0.77,1.37,1.4,2.48,1.88V608.48z M1662.97,635.68c1.28-0.24,2.32-0.83,3.12-1.78c0.8-0.95,1.2-2.06,1.2-3.34
		c0-1.14-0.34-2.13-1.01-2.95c-0.67-0.83-1.78-1.46-3.31-1.9V635.68z"/>
</g>
<g>
	
		<ellipse transform="matrix(0.2298 -0.9732 0.9732 0.2298 771.3475 1942.9064)" class="st7" cx="1613.16" cy="484.13" rx="19.56" ry="19.56"/>
	
		<ellipse transform="matrix(0.2298 -0.9732 0.9732 0.2298 771.3475 1942.9064)" class="st26" cx="1613.16" cy="484.13" rx="17.21" ry="17.21"/>
	<path class="st34" d="M1612.06,490.73v-5.05c0-0.48-0.32-0.89-0.77-1.05c-1.44-0.51-2.52-1.22-3.24-2.12
		c-0.85-1.06-1.28-2.34-1.28-3.85c0-1.53,0.48-2.81,1.44-3.85c0.96-1.04,2.25-1.64,3.85-1.79v-1.38h2.02v1.38
		c1.48,0.18,2.66,0.68,3.53,1.51c0.58,0.55,1.02,1.23,1.33,2.04c0.25,0.66-0.21,1.38-0.91,1.47l-1.36,0.18
		c-0.48,0.06-0.95-0.19-1.14-0.63c-0.29-0.7-0.77-1.19-1.45-1.49v4.64c0,0.49,0.33,0.91,0.8,1.06c1.8,0.57,3.06,1.27,3.76,2.12
		c0.81,0.96,1.22,2.2,1.22,3.71c0,1.68-0.51,3.1-1.53,4.26c-0.85,0.96-1.97,1.61-3.38,1.95c-0.5,0.12-0.87,0.54-0.87,1.06v1.72
		h-2.02v-1.61c0-0.54-0.39-0.96-0.91-1.09c-1.2-0.28-2.2-0.83-3.01-1.64c-0.76-0.76-1.31-1.75-1.65-2.98
		c-0.19-0.66,0.27-1.34,0.95-1.41l1.5-0.16c0.48-0.05,0.97,0.21,1.13,0.66c0.16,0.43,0.36,0.82,0.63,1.17
		C1611.1,490.1,1611.56,490.49,1612.06,490.73z M1612.06,476.07c-0.55,0.19-0.99,0.5-1.31,0.95c-0.32,0.45-0.49,0.94-0.49,1.48
		c0,0.49,0.15,0.95,0.45,1.38c0.3,0.42,0.75,0.77,1.35,1.03V476.07z M1614.09,490.93c0.7-0.13,1.27-0.45,1.7-0.97
		c0.44-0.52,0.66-1.12,0.66-1.82c0-0.62-0.18-1.16-0.55-1.61c-0.37-0.45-0.97-0.8-1.81-1.04V490.93z"/>
</g>
</svg>
