<?xml version="1.0" encoding="utf-8"?>
<!-- Generator: Adobe Illustrator 27.5.0, SVG Export Plug-In . SVG Version: 6.00 Build 0)  -->
<svg version="1.1" id="Camada_1" xmlns="http://www.w3.org/2000/svg" xmlns:xlink="http://www.w3.org/1999/xlink" x="0px" y="0px"
	 viewBox="0 0 2008 1030" style="enable-background:new 0 0 2008 1030;" xml:space="preserve">
<style type="text/css">
	.st0{fill:#B1CCFC;}
	.st1{opacity:0.7;fill:#F8FBFF;enable-background:new    ;}
	.st2{fill:#CAE0FF;}
	.st3{fill:#E1EFFF;}
	.st4{fill:#8CB6F4;}
	.st5{clip-path:url(#SVGID_00000021077448060398897340000014425077421243320963_);}
	.st6{fill:#F8FBFF;}
	.st7{fill:#554EDD;}
	.st8{opacity:0.7;fill:url(#SVGID_00000044159731316831068270000004321119192627399061_);enable-background:new    ;}
	.st9{fill:#6E92F9;}
	.st10{clip-path:url(#SVGID_00000096052607435495799300000010273963479716981430_);}
	.st11{opacity:0.7;fill:url(#SVGID_00000065056304477567583320000017107278229907210643_);enable-background:new    ;}
	.st12{opacity:0.7;fill:url(#SVGID_00000112615625755952049530000010488917391523325578_);enable-background:new    ;}
	.st13{opacity:0.7;fill:url(#SVGID_00000100348749274221383170000000591398848834761399_);enable-background:new    ;}
	.st14{opacity:0.74;fill:#003177;enable-background:new    ;}
	.st15{fill:#3838BA;}
	.st16{fill:#003177;}
	.st17{fill:#FAC4B6;}
	.st18{fill:#7A6CF2;}
	.st19{opacity:0.5;fill:#554EDD;enable-background:new    ;}
	.st20{fill:#002756;}
	.st21{fill:#9952BD;}
	.st22{fill:#543E8B;}
	.st23{fill:#F6AD83;}
	.st24{fill:#F4A076;}
	.st25{fill:#F28D77;}
	.st26{fill:#00C689;}
	.st27{fill:#14966A;}
	.st28{fill:#A9CA5A;}
	.st29{fill:#E5C3FF;}
	.st30{opacity:0.3;fill:#9952BD;enable-background:new    ;}
	.st31{clip-path:url(#SVGID_00000112599498425614343270000007660937240682303410_);}
	.st32{clip-path:url(#SVGID_00000024002534952323286670000008187963431111809459_);}
	.st33{opacity:0.8;fill:#543E8B;enable-background:new    ;}
	.st34{fill:#00859B;}
</style>
<g>
	<path class="st0" d="M481.3,385.3c12.7-6.9-16.2-87.8-24.3-67C448.9,339.1,454.8,399.8,481.3,385.3z"/>
	<path class="st0" d="M1554.3,576c0.9-150.5-87.5-270.7-219.5-318.3c-145-52.3-420.1-5.7-491.5-4.5c-176.9,2.9-176.8-66-277.8-39.4
		c-73,19.2-53.8,136.9-23.1,206.9c68.2,155.2-5.4,159.5,23.1,264.3C620.2,886.1,885,943,996.3,960
		C1167.2,986,1551.9,974.2,1554.3,576z"/>
	<path class="st0" d="M517.5,621c24.2-0.2,29.1-100.2,14.9-143.3c-14.2-43.2-38.6-76.2-39.6-46.6c-2.3,72.1-8.2,47.6-15,73.2
		C463.6,558.2,503.6,621.1,517.5,621z"/>
	<g>
		<circle class="st1" cx="615.7" cy="603" r="34.6"/>
		<circle class="st2" cx="615.7" cy="603" r="30.5"/>
		<path class="st1" d="M613.8,614.7v-8.9c0-0.8-0.6-1.6-1.4-1.9c-2.5-0.9-4.5-2.2-5.7-3.8c-1.5-1.9-2.3-4.1-2.3-6.8
			c0-2.7,0.8-5,2.6-6.8c1.7-1.8,4-2.9,6.8-3.2v-2.5h3.6v2.5c2.6,0.3,4.7,1.2,6.2,2.7c1,1,1.8,2.2,2.3,3.6c0.4,1.2-0.4,2.4-1.6,2.6
			l-2.4,0.3c-0.8,0.1-1.7-0.3-2-1.1c-0.5-1.2-1.4-2.1-2.6-2.6v8.2c0,0.9,0.6,1.6,1.4,1.9c3.2,1,5.4,2.3,6.7,3.8
			c1.4,1.7,2.2,3.9,2.2,6.6c0,3-0.9,5.5-2.7,7.5c-1.5,1.7-3.5,2.8-6,3.5c-0.9,0.2-1.5,1-1.5,1.9v3h-3.6v-2.9c0-1-0.7-1.7-1.6-1.9
			c-2.1-0.5-3.9-1.5-5.3-2.9c-1.3-1.3-2.3-3.1-2.9-5.3c-0.3-1.2,0.5-2.4,1.7-2.5l2.7-0.3c0.8-0.1,1.7,0.4,2,1.2
			c0.3,0.8,0.6,1.5,1.1,2.1C612.1,613.5,612.9,614.2,613.8,614.7z M613.8,588.7c-1,0.3-1.8,0.9-2.3,1.7s-0.9,1.7-0.9,2.6
			c0,0.9,0.3,1.7,0.8,2.4c0.5,0.8,1.3,1.3,2.4,1.8L613.8,588.7L613.8,588.7z M617.4,615c1.2-0.2,2.2-0.8,3-1.7
			c0.8-0.9,1.2-2,1.2-3.2c0-1.1-0.3-2-1-2.8c-0.7-0.8-1.7-1.4-3.2-1.8V615z"/>
	</g>
	<g>
		<g>
			<path class="st3" d="M1481.6,260H1150c26.8,0,48.6,14,48.6,31.2v64.6c0,17.2-21.8,31.2-48.6,31.2h283.3c26.8,0,48.6-14,48.6-31.2
				v-95.6C1481.9,260.1,1481.8,260,1481.6,260z"/>
			<g>
				<path class="st4" d="M1459.1,292.6h-175.6c-2.3,0-4.1-1.8-4.1-4.1v-0.3c0-2.3,1.8-4.1,4.1-4.1h140h35.6c2.3,0,4.1,1.8,4.1,4.1
					v0.3C1463.2,290.8,1461.4,292.6,1459.1,292.6z"/>
				<g>
					<path class="st4" d="M1426.6,342.4h-80.4c-2.3,0-4.1-1.8-4.1-4.1V338c0-2.3,1.8-4.1,4.1-4.1h80.4c2.3,0,4.1,1.8,4.1,4.1v0.3
						C1430.8,340.5,1428.9,342.4,1426.6,342.4z"/>
					<path class="st4" d="M1466.5,342.4h-27.3c-2.3,0-4.1-1.8-4.1-4.1V338c0-2.3,1.8-4.1,4.1-4.1h27.3c2.3,0,4.1,1.8,4.1,4.1v0.3
						C1470.7,340.5,1468.8,342.4,1466.5,342.4z"/>
					<path class="st4" d="M1465.7,317.5h-38.1c-2.3,0-4.1-1.8-4.1-4.1v-0.3c0-2.3,1.8-4.1,4.1-4.1h38.1c2.3,0,4.1,1.8,4.1,4.1v0.3
						C1469.8,315.7,1468,317.5,1465.7,317.5z"/>
				</g>
				<g>
					<path class="st4" d="M1459.3,367.3h-59.7c-2.2,0-4-1.8-4-4v-0.6c0-2.2,1.8-4,4-4h59.7c2.2,0,4,1.8,4,4v0.6
						C1463.2,365.5,1461.5,367.3,1459.3,367.3z"/>
				</g>
			</g>
		</g>
		<path class="st4" d="M1107.7,284.5V238v-54.2c0-26.8-21.8-48.6-48.6-48.6h283.3c26.8,0,48.6,21.8,48.6,48.6V238v95.1v5.5
			c0,26.8,21.8,48.6,48.6,48.6h-331.9v-54.2h-48.6C1085.9,333.1,1107.7,311.4,1107.7,284.5z"/>
	</g>
	<g>
		<g>
			<defs>
				<path id="SVGID_1_" d="M1554.3,576c0.9-150.5-87.5-270.7-219.5-318.3c-145-52.3-420.1-5.7-491.5-4.5
					c-176.9,2.9-176.8-66-277.8-39.4c-73,19.2-53.8,136.9-23.1,206.9c68.2,155.2-5.4,159.5,23.1,264.3
					C620.2,886.1,885,943,996.3,960C1167.2,986,1551.9,974.2,1554.3,576z"/>
			</defs>
			<clipPath id="SVGID_00000149359624311324298690000007935120882738742691_">
				<use xlink:href="#SVGID_1_"  style="overflow:visible;"/>
			</clipPath>
			<g style="clip-path:url(#SVGID_00000149359624311324298690000007935120882738742691_);">
				<g>
					<path class="st6" d="M1338.2,982.5H961.9c-10.7,0-19.4-8.7-19.4-19.4V198.7c0-10.7,8.7-19.4,19.4-19.4h376.2
						c10.7,0,19.4,8.7,19.4,19.4V963C1357.6,973.8,1348.9,982.5,1338.2,982.5z"/>
					<path class="st4" d="M1333.4,992.7H966.7c-19,0-34.4-15.5-34.4-34.7V203.7c0-19.1,15.4-34.7,34.4-34.7h366.6
						c19,0,34.4,15.5,34.4,34.6v754.3C1367.7,977.2,1352.3,992.7,1333.4,992.7z M966.7,189.5c-7.8,0-14.1,6.4-14.1,14.2v754.3
						c0,7.8,6.3,14.2,14.1,14.2h366.6c7.8,0,14.1-6.4,14.1-14.2V203.7c0-7.8-6.3-14.2-14.1-14.2H966.7z"/>
				</g>
				<path class="st7" d="M1185.9,961.7h-70.2c-4.6,0-8.4-3.8-8.4-8.4V949c0-4.6,3.8-8.4,8.4-8.4h70.2c4.6,0,8.4,3.8,8.4,8.4v4.3
					C1194.3,958,1190.5,961.7,1185.9,961.7z"/>
				<rect x="965.6" y="229.5" class="st0" width="370.4" height="661.3"/>
				
					<linearGradient id="SVGID_00000021090723140134649890000007414220912760665517_" gradientUnits="userSpaceOnUse" x1="966.3256" y1="652.94" x2="1336.6857" y2="652.94" gradientTransform="matrix(1 0 0 -1 0 1029)">
					<stop  offset="0" style="stop-color:#F3F8FE;stop-opacity:0.1287"/>
					<stop  offset="1" style="stop-color:#E1EFFF"/>
				</linearGradient>
				
					<polygon style="opacity:0.7;fill:url(#SVGID_00000021090723140134649890000007414220912760665517_);enable-background:new    ;" points="
					966.3,491 1336.7,335.9 1336.7,261.1 966.3,415.2 				"/>
				<g>
					<path class="st9" d="M1367.7,992.7H932.4v-789c0-19.1,15.4-34.7,34.4-34.7h366.6c19,0,34.4,15.5,34.4,34.6L1367.7,992.7
						L1367.7,992.7z M966.7,189.5c-7.8,0-14.1,6.4-14.1,14.2v768.5h394.8V203.7c0-7.9-6.3-14.2-14.1-14.2H966.7z"/>
				</g>
				<g>
					<g>
						<defs>
							<rect id="SVGID_00000078013059937017287230000011225274008640759690_" x="965.6" y="229.5" width="370.4" height="661.3"/>
						</defs>
						<clipPath id="SVGID_00000002369923695032129270000015851942289335597244_">
							<use xlink:href="#SVGID_00000078013059937017287230000011225274008640759690_"  style="overflow:visible;"/>
						</clipPath>
						<g style="clip-path:url(#SVGID_00000002369923695032129270000015851942289335597244_);">
							<rect x="966.9" y="812.9" class="st9" width="367.3" height="18.5"/>
							<rect x="966.9" y="572.8" class="st4" width="367.3" height="240.2"/>
							<rect x="966.9" y="572.8" class="st2" width="367.3" height="12.2"/>
							<polygon class="st0" points="1298.2,595.2 1150.6,505.3 1003,595.2 1013.3,595.2 1013.3,812.8 1287.9,812.9 1287.9,595.2 
															"/>
							<rect x="986" y="598.5" class="st9" width="329.2" height="15"/>
							<polygon class="st9" points="1300.7,607.5 1150.6,516 1000.5,607.5 992.6,594.6 1150.6,498.4 1308.5,594.6 							"/>
							<g>
								<rect x="982.9" y="618.3" class="st2" width="42.8" height="194.5"/>
								<rect x="982.9" y="614.7" class="st0" width="42.8" height="7.3"/>
								<path class="st2" d="M1029.4,592.5h-50.3c-3.3,0-6.1,2.7-6.1,6.1v13.8c0,3.3,2.7,6.1,6.1,6.1h50.3c3.3,0,6.1-2.7,6.1-6.1
									v-13.8C1035.5,595.2,1032.8,592.5,1029.4,592.5z"/>
								<path class="st0" d="M996.6,803.4h-4.2c-1.2,0-2.2-1-2.2-2.2V632.1c0-1.2,1-2.2,2.2-2.2h4.2c1.2,0,2.2,1,2.2,2.2v169.1
									C998.8,802.4,997.8,803.4,996.6,803.4z"/>
								<path class="st0" d="M1014.1,803.4h-4.2c-1.2,0-2.2-1-2.2-2.2V632.1c0-1.2,1-2.2,2.2-2.2h4.2c1.2,0,2.2,1,2.2,2.2v169.1
									C1016.3,802.4,1015.3,803.4,1014.1,803.4z"/>
							</g>
							<g>
								<rect x="1276.6" y="618.3" class="st2" width="42.8" height="194.5"/>
								<rect x="1276.6" y="614.7" class="st0" width="42.8" height="7.3"/>
								<path class="st2" d="M1323.2,592.5h-50.3c-3.3,0-6.1,2.7-6.1,6.1v13.8c0,3.3,2.7,6.1,6.1,6.1h50.3c3.3,0,6.1-2.7,6.1-6.1
									v-13.8C1329.2,595.2,1326.5,592.5,1323.2,592.5z"/>
								<path class="st0" d="M1290.3,803.4h-4.2c-1.2,0-2.2-1-2.2-2.2V632.1c0-1.2,1-2.2,2.2-2.2h4.2c1.2,0,2.2,1,2.2,2.2v169.1
									C1292.5,802.4,1291.5,803.4,1290.3,803.4z"/>
								<path class="st0" d="M1307.8,803.4h-4.2c-1.2,0-2.2-1-2.2-2.2V632.1c0-1.2,1-2.2,2.2-2.2h4.2c1.2,0,2.2,1,2.2,2.2v169.1
									C1310,802.4,1309,803.4,1307.8,803.4z"/>
							</g>
							<g>
								<circle class="st4" cx="1150.6" cy="566.9" r="28.4"/>
								<ellipse class="st0" cx="1150.6" cy="566.9" rx="25" ry="25"/>
								<path class="st2" d="M1149,576.4v-7.3c0-0.7-0.5-1.3-1.1-1.5c-2.1-0.7-3.7-1.8-4.7-3.1c-1.2-1.5-1.8-3.4-1.8-5.6
									c0-2.2,0.7-4.1,2.1-5.6c1.4-1.5,3.3-2.4,5.6-2.6v-2h2.9v2c2.2,0.3,3.8,1,5.1,2.2c0.8,0.8,1.5,1.8,1.9,3c0.4,1-0.3,2-1.3,2.1
									l-2,0.3c-0.7,0.1-1.4-0.3-1.7-0.9c-0.4-1-1.1-1.7-2.1-2.2v6.7c0,0.7,0.5,1.3,1.2,1.5c2.6,0.8,4.4,1.8,5.5,3.1
									c1.2,1.4,1.8,3.2,1.8,5.4c0,2.4-0.7,4.5-2.2,6.2c-1.2,1.4-2.9,2.3-4.9,2.8c-0.7,0.2-1.3,0.8-1.3,1.5v2.5h-2.9v-2.3
									c0-0.8-0.6-1.4-1.3-1.6c-1.7-0.4-3.2-1.2-4.4-2.4c-1.1-1.1-1.9-2.5-2.4-4.3c-0.3-1,0.4-1.9,1.4-2l2.2-0.2
									c0.7-0.1,1.4,0.3,1.6,1c0.2,0.6,0.5,1.2,0.9,1.7C1147.6,575.5,1148.3,576.1,1149,576.4z M1149,555.2
									c-0.8,0.3-1.4,0.7-1.9,1.4s-0.7,1.4-0.7,2.2c0,0.7,0.2,1.4,0.7,2c0.4,0.6,1.1,1.1,2,1.5L1149,555.2L1149,555.2z
									 M1151.9,576.7c1-0.2,1.8-0.7,2.5-1.4s0.9-1.6,0.9-2.6c0-0.9-0.3-1.7-0.8-2.3c-0.5-0.7-1.4-1.2-2.6-1.5L1151.9,576.7
									L1151.9,576.7z"/>
							</g>
							<g>
								<rect x="1121.3" y="689.8" class="st2" width="58.6" height="102.5"/>
								<path class="st0" d="M1148.1,745.9h-1.4c-0.2,0-0.3-0.2-0.3-0.3v-9.3c0-0.2,0.2-0.3,0.3-0.3h1.4c0.2,0,0.3,0.2,0.3,0.3v9.3
									C1148.5,745.8,1148.3,745.9,1148.1,745.9z"/>
								<path class="st0" d="M1154.4,745.9h-1.4c-0.2,0-0.3-0.2-0.3-0.3v-9.3c0-0.2,0.2-0.3,0.3-0.3h1.4c0.2,0,0.3,0.2,0.3,0.3v9.3
									C1154.7,745.8,1154.6,745.9,1154.4,745.9z"/>
							</g>
							<g>
								<rect x="1049.2" y="618.3" class="st2" width="42.8" height="194.5"/>
								<rect x="1049.2" y="614.7" class="st0" width="42.8" height="7.3"/>
								<path class="st2" d="M1095.7,592.5h-50.3c-3.3,0-6.1,2.7-6.1,6.1v13.8c0,3.3,2.7,6.1,6.1,6.1h50.3c3.3,0,6.1-2.7,6.1-6.1
									v-13.8C1101.8,595.2,1099.1,592.5,1095.7,592.5z"/>
								<path class="st0" d="M1062.9,803.4h-4.2c-1.2,0-2.2-1-2.2-2.2V632.1c0-1.2,1-2.2,2.2-2.2h4.2c1.2,0,2.2,1,2.2,2.2v169.1
									C1065.1,802.4,1064.1,803.4,1062.9,803.4z"/>
								<path class="st0" d="M1080.4,803.4h-4.2c-1.2,0-2.2-1-2.2-2.2V632.1c0-1.2,1-2.2,2.2-2.2h4.2c1.2,0,2.2,1,2.2,2.2v169.1
									C1082.6,802.4,1081.6,803.4,1080.4,803.4z"/>
							</g>
							<g>
								<rect x="1210.3" y="618.3" class="st2" width="42.8" height="194.5"/>
								<rect x="1210.3" y="614.7" class="st0" width="42.8" height="7.3"/>
								<path class="st2" d="M1256.9,592.5h-50.3c-3.3,0-6.1,2.7-6.1,6.1v13.8c0,3.3,2.7,6.1,6.1,6.1h50.3c3.3,0,6.1-2.7,6.1-6.1
									v-13.8C1262.9,595.2,1260.2,592.5,1256.9,592.5z"/>
								<path class="st0" d="M1224,803.4h-4.2c-1.2,0-2.2-1-2.2-2.2V632.1c0-1.2,1-2.2,2.2-2.2h4.2c1.2,0,2.2,1,2.2,2.2v169.1
									C1226.2,802.4,1225.2,803.4,1224,803.4z"/>
								<path class="st0" d="M1241.5,803.4h-4.2c-1.2,0-2.2-1-2.2-2.2V632.1c0-1.2,1-2.2,2.2-2.2h4.2c1.2,0,2.2,1,2.2,2.2v169.1
									C1243.7,802.4,1242.7,803.4,1241.5,803.4z"/>
							</g>
							<rect x="1109.3" y="791.7" class="st1" width="82.5" height="13.3"/>
							<rect x="1109.3" y="801" class="st4" width="82.5" height="4.1"/>
							<rect x="1095.6" y="804.4" class="st1" width="110" height="13.3"/>
							<rect x="1095.6" y="813.6" class="st4" width="110" height="4.1"/>
							<rect x="1075.2" y="817.7" class="st1" width="150.8" height="13.3"/>
							<rect x="1075.2" y="827" class="st4" width="150.8" height="4.1"/>
						</g>
					</g>
				</g>
				<g id="блик_2_">
					
						<linearGradient id="SVGID_00000158022789910535733310000014205935273931576473_" gradientUnits="userSpaceOnUse" x1="964.9256" y1="543.435" x2="1335.2856" y2="543.435" gradientTransform="matrix(1 0 0 -1 0 1029)">
						<stop  offset="0" style="stop-color:#F3F8FE;stop-opacity:0.1287"/>
						<stop  offset="1" style="stop-color:#E1EFFF"/>
					</linearGradient>
					
						<polygon style="opacity:0.7;fill:url(#SVGID_00000158022789910535733310000014205935273931576473_);enable-background:new    ;" points="
						964.9,576.6 1335.3,421.6 1335.3,394.5 964.9,549.6 					"/>
					
						<linearGradient id="SVGID_00000152949128123552990670000004595266842456532356_" gradientUnits="userSpaceOnUse" x1="964.9256" y1="216.945" x2="1335.2856" y2="216.945" gradientTransform="matrix(1 0 0 -1 0 1029)">
						<stop  offset="0" style="stop-color:#F3F8FE;stop-opacity:0.1287"/>
						<stop  offset="1" style="stop-color:#E1EFFF"/>
					</linearGradient>
					
						<polygon style="opacity:0.7;fill:url(#SVGID_00000152949128123552990670000004595266842456532356_);enable-background:new    ;" points="
						964.9,903.1 1335.3,748.1 1335.3,721 964.9,876 					"/>
					
						<linearGradient id="SVGID_00000101794668813841304980000006585852133704955572_" gradientUnits="userSpaceOnUse" x1="964.9256" y1="277.41" x2="1335.2856" y2="277.41" gradientTransform="matrix(1 0 0 -1 0 1029)">
						<stop  offset="0" style="stop-color:#F3F8FE;stop-opacity:0.1287"/>
						<stop  offset="1" style="stop-color:#E1EFFF"/>
					</linearGradient>
					
						<polygon style="opacity:0.7;fill:url(#SVGID_00000101794668813841304980000006585852133704955572_);enable-background:new    ;" points="
						964.9,851.2 1335.3,696.2 1335.3,652 964.9,807 					"/>
				</g>
			</g>
		</g>
	</g>
	<g>
		<path class="st6" d="M1334.9,257.7c7.7,2.8,15.3,5.8,22.7,9.1v-63.2c0-13.4-10.9-24.3-24.3-24.3H966.8
			c-13.4,0-24.3,10.9-24.3,24.3v41.3C1057.2,233.8,1230,219.9,1334.9,257.7z"/>
	</g>
	<g>
		<path class="st9" d="M952.6,243.9v-40.2c0-7.9,6.3-14.2,14.1-14.2h366.6c7.8,0,14.1,6.4,14.1,14.2v58.8c6.9,2.8,13.7,5.8,20.3,9
			v-67.8c0-19.1-15.4-34.6-34.4-34.6H966.7c-19,0-34.4,15.5-34.4,34.6v42.1C938.9,245.2,945.7,244.6,952.6,243.9z"/>
	</g>
	<path class="st0" d="M1334.9,257.7c0.4,0.1,0.7,0.3,1.1,0.4v-28.6H965.6v13.2C1079.4,232.2,1236.9,222.4,1334.9,257.7z"/>
	<g>
		<g>
			<path class="st7" d="M1307.7,353.5H990c-4.6,0-9.2-4.7-9.2-10.4l0,0c0-5.8,4.7-10.4,10.4-10.4h317.6c5.8,0,10.4,4.7,10.4,10.4
				l0,0C1319.3,348.8,1314.6,353.5,1307.7,353.5z"/>
			<path class="st14" d="M1297.3,349.5h-302c-2.5,0-4.5-2-4.5-4.5v-4.5c0-2.5,2-4.5,4.5-4.5h302c2.5,0,4.5,2,4.5,4.5v4.5
				C1301.7,347.5,1299.7,349.5,1297.3,349.5z"/>
		</g>
		<g>
			<path class="st3" d="M1291.9,322.7V161.4c0-14.4,11.7-26.1,26.1-26.1h-300.3c-14.4,0-26.1,11.7-26.1,26.1v173.1
				c0,5,4.1,9.1,9.1,9.1h296.9C1297.6,343.6,1291.8,335.4,1291.9,322.7z"/>
			<g>
				<g>
					<path class="st4" d="M1123,203.6v0.1c0,2.4,1.9,4.3,4.3,4.3h57.9c2.4,0,4.3-1.9,4.3-4.3v-0.1c0-2.4-1.9-4.3-4.3-4.3h-57.9
						C1124.9,199.3,1123,201.2,1123,203.6z"/>
					<path class="st4" d="M1031.4,203.6L1031.4,203.6c0-2.4-1.9-4.3-4.3-4.3h-13.2c-2.4,0-4.3,1.9-4.3,4.3v0.1
						c0,2.4,1.9,4.3,4.3,4.3h13.2C1029.4,207.9,1031.4,206,1031.4,203.6z"/>
					<path class="st4" d="M1110.5,199.3h-59c-2.4,0-4.3,1.9-4.3,4.3v0.1c0,2.4,1.9,4.3,4.3,4.3h59c2.4,0,4.3-1.9,4.3-4.3v-0.1
						C1114.8,201.2,1112.9,199.3,1110.5,199.3z"/>
				</g>
				<g>
					<path class="st4" d="M1133.3,258.7L1133.3,258.7c0,2.4,1.9,4.4,4.3,4.4h81.5c2.4,0,4.3-1.9,4.3-4.3v-0.1c0-2.4-1.9-4.3-4.3-4.3
						h-81.5C1135.2,254.4,1133.3,256.3,1133.3,258.7z"/>
					<path class="st4" d="M1065,258.7L1065,258.7c0-2.4-1.9-4.3-4.3-4.3h-46.8c-2.4,0-4.3,1.9-4.3,4.3l0,0c0,2.4,1.9,4.3,4.3,4.3
						h46.8C1063.1,263,1065,261.1,1065,258.7z"/>
					<path class="st4" d="M1110.5,254.4H1089c-2.4,0-4.3,1.9-4.3,4.3v0.1c0,2.4,1.9,4.3,4.3,4.3h21.5c2.4,0,4.3-1.9,4.3-4.3v-0.1
						C1114.8,256.3,1112.9,254.4,1110.5,254.4z"/>
				</g>
				<g>
					<path class="st4" d="M1107.2,231.1v0.1c0,2.4,1.9,4.2,4.2,4.2h40.6c2.3,0,4.2-1.9,4.2-4.2v-0.1c0-2.4-1.9-4.2-4.2-4.2h-40.6
						C1109.1,226.8,1107.2,228.7,1107.2,231.1z"/>
					<path class="st4" d="M1090.3,231.2L1090.3,231.2c0-2.4-1.9-4.3-4.3-4.3h-72.1c-2.4,0-4.3,1.9-4.3,4.3l0,0
						c0,2.4,1.9,4.3,4.3,4.3h72.1C1088.3,235.5,1090.3,233.6,1090.3,231.2z"/>
				</g>
				<g>
					<path class="st4" d="M1039.9,286.2L1039.9,286.2c0-2.4-1.9-4.3-4.3-4.3h-21.7c-2.4,0-4.3,1.9-4.3,4.3l0,0
						c0,2.4,1.9,4.3,4.3,4.3h21.7C1038,290.5,1039.9,288.6,1039.9,286.2z"/>
					<path class="st4" d="M1190.6,281.9h-127.9c-2.4,0-4.3,1.9-4.3,4.3v0.1c0,2.4,1.9,4.3,4.3,4.3h127.9c2.4,0,4.3-1.9,4.3-4.3v-0.1
						C1194.9,283.8,1193,281.9,1190.6,281.9z"/>
				</g>
			</g>
			<g>
				<path class="st4" d="M1216.9,324.4h-1.6c-0.6,0-1.1-0.5-1.1-1v-11.6c0-0.5-0.6-0.8-1-0.5c-0.7,0.5-1.5,1-2.3,1.4
					c-0.7,0.3-1.5-0.2-1.5-1v-1.1c0-0.4,0.3-0.8,0.7-1c0.8-0.3,1.6-0.9,2.5-1.5c0.9-0.7,1.6-1.5,2.1-2.5c0.2-0.4,0.5-0.6,1-0.6h1.3
					c0.6,0,1.1,0.5,1.1,1v17.3C1218,323.9,1217.5,324.4,1216.9,324.4z"/>
				<path class="st4" d="M1236,322v1.4c0,0.6-0.5,1-1.1,1h-10.7c-0.7,0-1.2-0.7-1-1.3c0.2-0.8,0.6-1.6,1-2.4
					c0.7-1.2,2.1-2.7,4.2-4.6c1.7-1.6,2.7-2.6,3.1-3.2c0.5-0.8,0.8-1.5,0.8-2.3c0-0.8-0.2-1.5-0.7-1.9c-0.4-0.4-1.1-0.7-1.8-0.7
					c-0.8,0-1.4,0.2-1.8,0.7c-0.3,0.3-0.5,0.8-0.7,1.4c-0.1,0.5-0.6,0.9-1.1,0.8l-1.6-0.2c-0.6-0.1-1.1-0.7-0.9-1.3
					c0.3-1.4,0.9-2.5,1.9-3.2c1.2-0.9,2.6-1.3,4.3-1.3c1.9,0,3.4,0.5,4.5,1.5s1.6,2.3,1.6,3.8c0,0.9-0.2,1.7-0.5,2.5
					c-0.3,0.8-0.8,1.6-1.5,2.5c-0.4,0.6-1.3,1.4-2.4,2.5c-1.2,1.1-1.9,1.8-2.2,2.1c-0.3,0.4-0.6,0.7-0.8,1h6.3
					C1235.6,321,1236,321.4,1236,322z"/>
				<path class="st4" d="M1244.8,305c1.9,0,3.3,0.7,4.4,2c1.3,1.6,1.9,4.2,1.9,7.9s-0.6,6.3-1.9,7.9c-1.1,1.3-2.5,2-4.4,2
					c-1.9,0-3.4-0.7-4.6-2.2s-1.7-4-1.7-7.7c0-3.6,0.6-6.3,1.9-7.9C1241.5,305.6,1242.9,305,1244.8,305z M1244.8,308.1
					c-0.4,0-0.8,0.1-1.2,0.4c-0.3,0.3-0.6,0.8-0.8,1.5c-0.3,1-0.4,2.6-0.4,4.8s0.1,3.8,0.3,4.7c0.2,0.9,0.5,1.4,0.9,1.7
					c0.3,0.3,0.7,0.4,1.2,0.4s0.8-0.1,1.2-0.4c0.3-0.3,0.6-0.8,0.8-1.5c0.2-1,0.4-2.6,0.4-4.8s-0.1-3.8-0.3-4.7
					c-0.2-0.9-0.5-1.4-0.9-1.7C1245.7,308.2,1245.3,308.1,1244.8,308.1z"/>
				<path class="st4" d="M1266.4,321.5v-4.8c0-0.5-0.3-0.8-0.7-1c-1.4-0.5-2.4-1.1-3.1-2c-0.8-1-1.2-2.2-1.2-3.6
					c0-1.4,0.4-2.6,1.4-3.6s2.1-1.5,3.6-1.7v-1.3h1.9v1.3c1.4,0.2,2.5,0.6,3.3,1.4c0.6,0.5,1,1.2,1.2,1.9c0.2,0.6-0.2,1.3-0.9,1.4
					l-1.3,0.2c-0.4,0.1-0.9-0.2-1.1-0.6c-0.3-0.7-0.7-1.1-1.4-1.4v4.4c0,0.5,0.3,0.9,0.8,1c1.7,0.5,2.9,1.2,3.6,2
					c0.8,0.9,1.2,2.1,1.2,3.5c0,1.6-0.5,2.9-1.4,4c-0.8,0.9-1.9,1.5-3.2,1.9c-0.5,0.1-0.8,0.5-0.8,1v1.6h-1.9v-1.5
					c0-0.5-0.4-0.9-0.9-1c-1.1-0.3-2.1-0.8-2.8-1.5c-0.7-0.7-1.2-1.6-1.6-2.8c-0.2-0.6,0.3-1.3,0.9-1.3l1.4-0.1
					c0.4,0,0.9,0.2,1.1,0.6c0.2,0.4,0.3,0.8,0.6,1.1C1265.5,320.9,1265.9,321.3,1266.4,321.5z M1266.4,307.7
					c-0.5,0.2-0.9,0.5-1.2,0.9c-0.3,0.4-0.5,0.9-0.5,1.4c0,0.5,0.1,0.9,0.4,1.3s0.7,0.7,1.3,1L1266.4,307.7L1266.4,307.7z
					 M1268.3,321.7c0.7-0.1,1.2-0.4,1.6-0.9c0.4-0.5,0.6-1.1,0.6-1.7c0-0.6-0.2-1.1-0.5-1.5c-0.3-0.4-0.9-0.8-1.7-1V321.7z"/>
			</g>
			<path class="st4" d="M1198.9,324.4h-190.1c-1.2,0-2.2-1-2.2-2.2s1-2.2,2.2-2.2h190.1c1.2,0,2.2,1,2.2,2.2
				S1200.1,324.4,1198.9,324.4z"/>
			<path class="st4" d="M1198.9,174h-190.1c-1.2,0-2.2-1-2.2-2.2s1-2.2,2.2-2.2h190.1c1.2,0,2.2,1,2.2,2.2S1200.1,174,1198.9,174z"
				/>
		</g>
	</g>
	<ellipse class="st4" cx="805.3" cy="1005.3" rx="269.8" ry="24.7"/>
	<path class="st7" d="M856.8,484.2c28.8,173.5,42.4,242.6,37.7,271.7c-7.8,48.5-61.7,132.1-81,192.3c-1,3.1-15.4,4.3-25.2-3.6
		c-8.7-7-13-23-13-23s3.1-109.5,30.6-189.4c5.7-16.5-12.2-46.2-22.3-81C767.1,594.5,761,534.1,772.9,507
		C780.2,490.4,856.8,484.2,856.8,484.2z"/>
	<path class="st15" d="M828.9,668.5c-9.3-37.5-16-159.9-16.8-174.1c-1.1,0.1-2.2,0.2-3.2,0.3l-38.8,20.4
		c-7.9,29.9-1.6,84.5,13.5,136.1c10.1,34.8,28,64.5,22.3,81c-27.5,79.9-30.6,189.4-30.6,189.4s5.7,14.1,13,20.2
		c4.6-24.3,14.8-82.5,23.7-118.5c12.2-49.3,31.3-94,31.3-94S838.8,708.4,828.9,668.5z"/>
	<path class="st16" d="M774.6,918.3c0,0,5.9,11.3,16,19.1c7.9,6.1,22.9,10.8,22.9,10.8s14.3,27.6,32.8,38.9
		c23.7,14.4,3.4,19-1.1,18.7c-4-0.3-49.3-7.4-49.3-7.4l-27.1-31.6l-5.5-17.8C759.8,937.5,764.3,925.2,774.6,918.3L774.6,918.3z"/>
	<polygon class="st17" points="725.9,933 728.1,975 750,998.3 777.9,983.5 763.1,948.9 	"/>
	<path class="st18" d="M763.1,948.9c0,0,5.3-107,18.3-215c2.1-17.8,22.2-224.7,13.8-231.4c-22.1-17.8-62-36.5-81.1-43.3
		c-4.5,1.4-14.5-3.4-19.8,0c0,0-17.2,34.3-14.3,69.5s23.7,172.3,26.1,184.5s-24.8,46.3-16.5,90.9c7.7,41.3,32.8,128.5,37.1,143.4
		L763.1,948.9z"/>
	<path class="st19" d="M714.1,459.2c-4.5,1.4-14.5-3.4-19.8,0c0,0-17.2,34.3-14.3,69.5s23.7,172.3,26.1,184.5s-24.8,46.3-16.5,90.9
		c7.7,41.3,32.8,128.5,37.1,143.4l14.7,0.2c-6.1-27.1-26.5-117.4-34.7-144.4c-9.7-31.9,18.3-87.6,18.3-87.6s-14-115.9-17.7-158
		c-3.3-36.4,8.3-84.3,11.4-96.6C717.2,460.3,715.6,459.7,714.1,459.2z"/>
	<path class="st15" d="M718.9,985.5c0,0-0.5,9.2,11.7,13.2c12.2,4,11.9,5,11.9,5s21.8,17.3,36.1,18.7s31.2,3.3,36.7-1.8
		c3.6-3.4,0.6-22.2-10.1-25.6s-32.8-34.3-32.8-38s-20.5-7.2-29,4.5c-7.1,9.8-16.8-6.5-16.8-6.5L718.9,985.5z"/>
	<g>
		<path class="st16" d="M828.7,171c0.7,1.6-1.4,35.9,1.8,50.8c3.1,15,45.9,49.8,27.8,86.3c-7.7,15.5-27.9,15.5-27.9,15.5l-52.7-91.2
			l8.5-32.7L828.7,171z"/>
		<path class="st20" d="M802.7,208.8c0,0-1.5,39.1,10,55c18.9,26-3,49.7-3,49.7l-42.1-92.9L802.7,208.8z"/>
		<path class="st20" d="M749.4,107.4c0,0,0.4-3.2-7.8-4.2c-21.4-2.8-59.5,15.7-59.3,76.2c0.1,44,17,76,27.1,94.4s55.8-8.9,55.8-8.9
			l-2.7-60.8c0,0-19.8-35.6-19.8-57.5C742.7,124.9,749.4,107.4,749.4,107.4z"/>
		<path class="st20" d="M705.2,280.1c-0.4,0-0.8-0.2-1-0.6l-0.1-0.2c-3.8-6.7-16.4-30.9-22-59.6c-3.5-17.8-3.5-34.1-0.2-48.5
			c4.1-17.9,13.4-32.8,27.7-44.4c7.9-6.4,13.8-9.1,17.6-8.1c2.2,0.6,2.8,2.2,2.8,2.3c0.2,0.6-0.1,1.3-0.7,1.5
			c-0.6,0.2-1.2-0.1-1.5-0.7c0-0.1-0.3-0.7-1.4-0.9c-1.7-0.4-6,0-15.5,7.7c-25.3,20.5-34.3,51-26.6,90.6c5.5,28.3,18,52.2,21.7,58.9
			l0.1,0.2c0.3,0.6,0.1,1.3-0.5,1.6C705.5,280,705.4,280.1,705.2,280.1z"/>
		<path class="st20" d="M861.6,281c-0.2,0-0.4,0-0.6-0.1c-0.6-0.3-0.8-1.1-0.5-1.7c0-0.1,4.5-9.1,0-17.9c-2.5-4.8-8.3-7-15.6-9.7
			c-6.2-2.3-13.1-4.9-19.7-9.7c-14.6-10.8-15.7-55.2-15.7-57.1c0-0.7,0.5-1.2,1.2-1.3c0,0,0,0,0,0c0.7,0,1.2,0.5,1.2,1.2
			c0,0.4,1.1,45.1,14.7,55.1c6.3,4.6,13.1,7.2,19.1,9.4c7.5,2.8,14,5.2,16.9,10.9c5.1,10,0.2,19.8,0,20.2
			C862.5,280.7,862.1,281,861.6,281z"/>
		<path class="st16" d="M726.4,253.3c0.3-7.7-0.4-18-2.4-31.4c-13-84.9,12.6-101.5,16.5-99.7c0.6-1.9,12.2-13.4,12.2-13.4
			s-2.8-4.5-10.9-5.6c-21.4-2.8-59.5,15.7-59.3,76.2c0.1,34.7,10.6,61.8,20,80.8C710.9,258.4,719.2,255.8,726.4,253.3z"/>
	</g>
	<g>
		<g>
			<path class="st21" d="M675,285.1c0,0,4.1-20.7,22.7-24c18.7-3.2,35.9-10.9,45.9-13.9c10-3,40.6,0.3,56.1,7.6
				c15.4,7.2,31.3,20.2,32.2,30.3c0.9,10,0.9,30.1,2.1,34.3c1.2,4.1,8.3,62.1,11.2,71c3,8.9,16.6,75.7-4.1,87.5
				c-20.7,11.8-47.3,8.9-65.6,14.2s-109.4-18.2-109.4-30S679.7,296.9,675,285.1z"/>
			<path class="st22" d="M788.6,266.8c0,0,11.6,0.3,35.4,29c3.5,4.2,6.5,8,9,11.5c-0.3-7.4-0.5-16.4-1-22.1
				c-0.9-10-16.8-23.1-32.2-30.3c-3.4-1.6-7.6-3-12.1-4.2L788.6,266.8z"/>
			<path class="st22" d="M724.5,371.7c1.5-60.4-1.1-103.5-18.8-112.2c-2.6,0.6-5.3,1.2-8,1.7c-8.3,1.4-13.7,6.3-17.1,11.3
				c-2.1,4-3.8,8.7-5.3,13.7c3,14.5-5.3,123.3-9.2,175.9c-1.1,14.8,57.7,21.9,59.1,21.1C733.7,450.4,723.3,420.4,724.5,371.7z"/>
			<path class="st22" d="M846.3,394c-0.4-1.6-0.8-2.9-1-3.7c-1.6-4.9-4.6-24.9-7-42.5c0.7,18.9-4,39.5-18.4,39.5
				c-20.8,0-28.4,4.1-39,10.6c-8,4.9-8.3,14.2-8.3,14.2s30.6-10.8,46.7-9.5C831.9,403.8,840.6,399.8,846.3,394L846.3,394z"/>
		</g>
	</g>
	<g>
		<path class="st20" d="M746.6,102.8c44.9-26.3,81.3,15,83.7,37c1.2,11-11.2-16.1-32.9-26.7c-13-6.3-36.8,0.9-47.9,0.3
			C742,113,743.4,104.6,746.6,102.8z"/>
		<g>
			<path class="st23" d="M796.8,227.9c0,0-2.3,20.8,2.9,27c2,2.4,4.8,26.7-18.9,26.7c-36.7,0-43.2-32.5-43.2-32.5s4.7-4.7,8.9-21.3
				c2.9-11.6-0.1-25-0.1-25L796.8,227.9z"/>
			<path class="st24" d="M746.5,228c9.6,9.5,25.1,15.8,35.1,15.8c5.1,0,10.1-1,14.8-2.8c-0.2-6.7,0.5-13.1,0.5-13.1l-50.4-25.1
				c0,0,3,13.4,0.1,25C746.5,227.8,746.5,227.9,746.5,228z"/>
			<path class="st24" d="M799.7,254.8c3.5,14.1-7,23.2-18.3,22.6c-6-0.3-17.7-2.4-28.8-10.7c-11.1-8.3-12.9-20.6-12.9-20.6
				c-1.2,2.1-2,2.9-2,2.9s6.5,32.5,43.2,32.5C804.5,281.6,801.7,257.2,799.7,254.8z"/>
			<g>
				<path class="st23" d="M721.6,149.4c1.9,0,3.6,0.4,5.2,1c6.2-27.2,26.6-47.2,50.8-47.2c29.1,0,52.7,28.9,52.7,64.6
					s-23.6,64.6-52.7,64.6c-26.7,0-48.8-24.3-52.2-55.9c-1.2,0.3-2.5,0.5-3.8,0.5c-7.6,0-13.8-6.2-13.8-13.8
					C707.8,155.6,714,149.4,721.6,149.4z"/>
				<path class="st24" d="M825.9,135.8c-6.7-12.6-12.6-18.9-17.6-21.8s-22.5-13.8-38.5-10.7s-22.8,7.3-22.8,7.3s-0.1,0.7,0.5,2.6
					c-2.8,0.9-21.1,7.5-26.3,28.2c-1.5,5.9-0.8,12.4,0.3,17.3c0.9,4.2,5.5,6.6,9.4,4.9l2.5-1.1c1-0.4,1.4-1.6,0.9-2.5
					c-2.6-4.7-2.7-10.4-0.3-15.2l1.5-3.1c0-0.1,0.2,0,0.1,0l-0.4,3.2c-0.6,4.3,0.3,8.7,2.4,12.5l0.4,0.7c0.7,1.2,2.1,1.7,3.4,1.2
					l7.9-3.3c4-1.7,6.6-5.6,6.7-9.9c0-3.5,0-7.9-0.2-12.5c2.9,6.4,5.4,12,6.5,14.4c0.3,0.8,1,1.3,1.9,1.4l33.9,5.2
					c1.5,0.2,2.9-1,2.8-2.6c-0.1-2.4-0.7-6.2-2.6-10.5c-1.4-3.2-4.7-8.7-6.4-11.6c-0.2-0.3,0.2-0.6,0.4-0.4
					c2.6,2.5,7.7,7.9,10.2,12.8c2.8,5.5,7.2,13.6,7.2,13.6l1.2-0.2c0,0-0.2-6-0.8-8.4c-0.6-2.4-2.5-6.3-3.4-8.2
					c-0.1-0.3,0.2-0.6,0.4-0.4c1.7,1.4,5.1,4.4,6.3,6.9c1.7,3.4,3.6,10.9,3.6,10.9s9,2.5,10.7,5.9
					C829.3,166,830.1,143.6,825.9,135.8z"/>
				<path class="st16" d="M750.2,108.8c0,0,7.5,12.8,8,23.3c0.2,4.7,0.2,9.1,0.2,12.5c0,4.3-2.7,8.2-6.7,9.9l-7.9,3.3
					c-1.3,0.5-2.7,0-3.4-1.2l-0.4-0.7c-2.1-3.8-3-8.2-2.4-12.5l0.4-3.2c0-0.1-0.1-0.1-0.1,0l-1.5,3.1c-2.4,4.8-2.3,10.5,0.3,15.2
					l0,0c0.5,0.9,0.1,2.1-0.9,2.5l-2.5,1.1c-4,1.7-17.2-0.6-13.3-24.6C723.8,114.5,750.2,108.8,750.2,108.8z"/>
				<path class="st16" d="M744.1,111.1c0,0,5.1,0.6,10.3,12.2c4.2,9.5,8.8,19.7,10.3,23.1c0.3,0.8,1,1.3,1.9,1.4l33.9,5.2
					c1.5,0.2,2.9-1,2.8-2.6c-0.1-2.4-0.7-6.2-2.6-10.5c-1.4-3.2-4.7-8.7-6.4-11.6c-0.2-0.3,0.2-0.6,0.4-0.4
					c2.6,2.5,7.7,7.9,10.2,12.8c2.8,5.5,7.2,13.6,7.2,13.6l1.2-0.2c0,0-0.2-6-0.8-8.4c-0.6-2.4-2.5-6.3-3.4-8.2
					c-0.1-0.3,0.2-0.6,0.4-0.4c1.7,1.4,5.1,4.4,6.3,6.9c1.7,3.4,3.6,10.9,3.6,10.9s9,2.5,10.7,5.9c1.7,3.4,3.2-19.6-1.7-26.9
					c-9.1-13.5-15.7-19.8-20.7-22.8c-5-2.9-21.3-13.4-37.3-10.3C754.3,104.2,744.1,111.1,744.1,111.1z"/>
				<g>
					<path class="st25" d="M754.5,195.2c-0.1,3.6,2.8,6.7,6.4,6.8c3.6,0.1,6.7-2.8,6.8-6.4c0.1-3.6-2.8-6.7-6.4-6.8
						C757.6,188.7,754.6,191.6,754.5,195.2z"/>
					<g>
						<path d="M792.7,190.3c-0.1-0.1-0.1-0.2-0.2-0.3c0.1,0.1,0.2,0.3,0.3,0.4c-0.2-0.2-0.4-0.4-0.6-0.6c0.1,0.1,0.3,0.2,0.4,0.3
							c-0.2-0.2-0.5-0.3-0.8-0.5c0.2,0.1,0.3,0.1,0.5,0.2c-0.3-0.1-0.5-0.2-0.8-0.2c0.2,0,0.3,0.1,0.5,0.1c-0.3,0-0.6,0-0.8,0
							c0.2,0,0.3-0.1,0.5-0.1c-0.3,0-0.6,0.1-0.9,0.2c0.2-0.1,0.3-0.1,0.5-0.2c-0.3,0.1-0.5,0.3-0.7,0.4c0.1-0.1,0.3-0.2,0.4-0.3
							c-0.2,0.2-0.4,0.4-0.6,0.6c0.1-0.1,0.2-0.3,0.3-0.4c0,0.1-0.1,0.1-0.2,0.2c-0.3,0.4-0.7,0.8-1.2,0.9c-0.5,0.1-1.1,0.1-1.5-0.2
							c-0.8-0.6-1.3-1.8-0.7-2.7c1-1.5,2.7-2.6,4.6-2.5c1.8,0,3.5,1,4.5,2.6c0.6,0.9,0.2,2.2-0.7,2.7
							C794.4,191.5,793.3,191.2,792.7,190.3L792.7,190.3z"/>
						<g>
							<path d="M792.7,212.8c0.6,0,1.2,0,1.8-0.1l0.3,0c1.1-0.1,1.9-1,1.8-2.1c-0.1-1.1-0.9-1.9-2.1-1.9l-0.4,0
								c-5.5,0.3-11.1-1.2-15.6-4.3c-0.9-0.6-2.1-0.4-2.8,0.5c-0.6,0.9-0.4,2.1,0.5,2.8C781.2,211.1,786.9,212.8,792.7,212.8z"/>
						</g>
						<path class="st25" d="M808.4,195.3c-0.1,3.6,2.8,6.7,6.4,6.8c3.6,0.1,6.7-2.8,6.8-6.4c0.1-3.6-2.8-6.7-6.4-6.8
							C811.6,188.8,808.5,191.7,808.4,195.3z"/>
						<g>
							<path d="M809.5,182.9L809.5,182.9c2.5,0.1,4.7-1.9,4.7-4.5l0.2-6.6c0.1-2.6-1.9-4.7-4.5-4.7l0,0c-2.5-0.1-4.7,1.9-4.7,4.5
								l-0.2,6.6C804.9,180.6,807,182.8,809.5,182.9z"/>
							<path d="M814.3,172.1c2.5,0.1,5-0.5,7.3-1.6c1-0.5,1.4-1.7,0.9-2.7s-1.7-1.4-2.7-0.9c-2.6,1.4-5.8,1.6-8.6,0.6
								c-1-0.4-2.2,0.2-2.5,1.2c-0.3,1,0.2,2.2,1.2,2.5C811.3,171.8,812.8,172,814.3,172.1z"/>
							<path d="M770.6,181.8L770.6,181.8c-2.5-0.1-4.5-2.2-4.5-4.7l0.2-6.6c0.1-2.6,2.2-4.6,4.7-4.5l0,0c2.5,0.1,4.5,2.2,4.5,4.7
								l-0.2,6.6C775.2,179.9,773.1,181.9,770.6,181.8z"/>
							<path d="M766.4,170.8c1.5,0,3-0.1,4.4-0.5c1-0.3,1.7-1.4,1.4-2.4c-0.3-1.1-1.4-1.7-2.4-1.4c-2.9,0.8-6,0.4-8.5-1.1
								c-0.9-0.6-2.2-0.2-2.7,0.7s-0.2,2.1,0.7,2.7C761.4,170,763.9,170.7,766.4,170.8z"/>
							<path d="M823.2,163.5c0.6,0,1.2-0.2,1.6-0.7c0.7-0.8,0.6-2.1-0.2-2.8c-5.2-4.4-11.3-6.3-18.7-5.8c-1.1,0.1-1.9,1-1.8,2.1
								c0.1,1.1,1,1.9,2.1,1.8c6.4-0.5,11.5,1.1,15.9,4.9C822.4,163.3,822.8,163.4,823.2,163.5z"/>
							<path d="M756.3,162.9c-0.6,0-1.2-0.3-1.5-0.8c-0.7-0.9-0.5-2.1,0.4-2.8c5.5-4.1,11.7-5.6,19-4.7c1.1,0.1,1.8,1.1,1.7,2.2
								c-0.1,1.1-1.1,1.8-2.2,1.7c-6.4-0.8-11.5,0.4-16.2,3.9C757.1,162.8,756.7,163,756.3,162.9z"/>
						</g>
					</g>
				</g>
				<path class="st20" d="M734,161.7c-0.7-0.6-1.9-1.4-4-2.7c-8-5-2-21.4-2-21.4l-4.3,2.1c0,0,0,0,0,0c-1.5,5.9-0.8,12.4,0.3,17.3
					c0.9,4.2,5.5,6.6,9.4,4.9L734,161.7z"/>
				<path class="st20" d="M770.3,148.4c1.2-1.6-0.5-6.1-5-14.9c-2.8-5.4-7.2-7.6-10.1-8.4c4,9,8.1,18.2,9.6,21.4
					c0.3,0.8,1,1.3,1.9,1.4L770.3,148.4L770.3,148.4z"/>
				<path class="st20" d="M812.8,154.3c0-0.1,0-0.1,0-0.2c-0.3-4.4-4.3-11.8-8.2-18.8s-10.2-7.4-9.9-7.3c0.8,0.4,1.7,1.3,2.5,2.6
					c2.6,2.8,5.8,6.6,7.6,10.2c2.8,5.5,7.2,13.6,7.2,13.6L812.8,154.3z"/>
				<path class="st20" d="M819.4,155.1c0,0,2.3,0.6,4.7,1.7c-0.7-1.5-1.4-4.8-2.8-7.7c-5.9-11.5-12.1-12-11.9-11.8
					c1.7,1.4,5.1,4.4,6.3,6.9C817.5,147.6,819.4,155.1,819.4,155.1z"/>
				<g>
					<path class="st20" d="M738.8,139.2c0,0-0.3,0.4-0.7,1c0,0,0,0,0,0.1l-0.4,3.2c-0.6,4.3,0.3,8.7,2.4,12.5l0.4,0.7
						c0.7,1.2,2.1,1.7,3.4,1.2l3.4-1.4c-0.7-0.7-3-0.8-5.3-4C738.6,147.6,738.8,140.7,738.8,139.2z"/>
					<path class="st20" d="M736.7,142.9l0.8-1.7C737.2,141.7,736.9,142.3,736.7,142.9z"/>
				</g>
			</g>
		</g>
	</g>
	<g>
		<path class="st26" d="M965.3,449.3l-208.5,58.8c-10.6,3-21.7-3.2-24.7-13.8l-31.9-113.2c-3-10.6,3.2-21.7,13.8-24.7l208.5-58.8
			c10.6-3,21.7,3.2,24.7,13.8l31.9,113.2C982.2,435.2,976,446.3,965.3,449.3z"/>
		<path class="st7" d="M932.1,343.5l-56.8,16c-3.5,1-7.2-1-8.2-4.6l-2.4-8.5c-1-3.5,1.1-7.2,4.6-8.1l56.8-16c3.5-1,7.2,1,8.2,4.6
			l2.4,8.5C937.6,338.9,935.6,342.5,932.1,343.5z"/>
		<path class="st7" d="M785.8,460.9l-39,11c-2.5,0.7-5-0.7-5.7-3.2l-1.8-6.3c-0.7-2.5,0.7-5,3.2-5.7l39-11c2.5-0.7,5,0.7,5.7,3.2
			l1.8,6.3C789.7,457.6,788.3,460.2,785.8,460.9z"/>
		<path class="st7" d="M850.3,466.9l-99,27.9c-1.4,0.4-2.9-0.4-3.3-1.9l-1.2-4.4c-0.4-1.4,0.4-2.9,1.9-3.3l99.1-27.9
			c1.4-0.4,2.9,0.4,3.3,1.9l1.2,4.4C852.6,465,851.7,466.5,850.3,466.9z"/>
		<path class="st7" d="M943.3,368.1l-65,18.3c-1.2,0.3-2.4-0.4-2.7-1.5l-1.5-5.4c-0.3-1.2,0.3-2.4,1.5-2.7l65-18.3
			c1.2-0.3,2.4,0.4,2.7,1.5l1.5,5.4C945.1,366.6,944.5,367.8,943.3,368.1z"/>
		<path class="st7" d="M842.2,445l-39,11c-2.5,0.7-5-0.7-5.7-3.2l-1.8-6.3c-0.7-2.5,0.7-5,3.2-5.7l39-11c2.5-0.7,5,0.7,5.7,3.2
			l1.8,6.3C846.1,441.7,844.7,444.3,842.2,445z"/>
		<path class="st7" d="M898.6,429.1l-39,11c-2.5,0.7-5-0.7-5.7-3.2l-1.8-6.3c-0.7-2.5,0.7-5,3.2-5.7l39-11c2.5-0.7,5,0.7,5.7,3.2
			l1.8,6.3C902.5,425.8,901.1,428.4,898.6,429.1z"/>
		<path class="st7" d="M955,413.2l-39,11c-2.5,0.7-5-0.7-5.7-3.2l-1.8-6.3c-0.7-2.5,0.7-5,3.2-5.7l39-11c2.5-0.7,5,0.7,5.7,3.2
			l1.8,6.3C958.9,409.9,957.5,412.5,955,413.2z"/>
		<g>
			<path class="st27" d="M785.5,400.6L734,415.1c-5,1.4-10.1-1.5-11.5-6.5l-6.9-24.5c-1.4-5,1.5-10.1,6.5-11.5l51.5-14.5
				c5-1.4,10.1,1.5,11.5,6.5l6.9,24.5C793.4,394,790.5,399.2,785.5,400.6z"/>
			<path class="st28" d="M790.1,382.7l-21.8,6.1c-0.7,0.2-1.1,0.9-0.9,1.6c0.2,0.7,0.9,1.1,1.6,0.9l21.8-6.1L790.1,382.7z"/>
			
				<rect x="764" y="361.4" transform="matrix(0.9625 -0.2714 0.2714 0.9625 -75.3404 222.0872)" class="st28" width="2.6" height="44.1"/>
			
				<rect x="737.4" y="368.9" transform="matrix(0.9625 -0.2714 0.2714 0.9625 -78.3769 215.1522)" class="st28" width="2.6" height="44.1"/>
			<path class="st28" d="M738.9,397.1l-18.2,5.1l0.7,2.5l18.2-5.1c0.7-0.2,1.1-0.9,0.9-1.6C740.3,397.3,739.6,396.9,738.9,397.1z"/>
			<path class="st28" d="M736.1,381.6l-19.7,5.5l0.7,2.5l19.7-5.5c0.7-0.2,1.1-0.9,0.9-1.6S736.7,381.4,736.1,381.6z"/>
		</g>
	</g>
	<g>
		<path class="st23" d="M961,337.2c-0.4-5-2.9-9.6-7-12.6c-6.3-4.5-16.1-10-24.1-7.2c-4.9,1.7-5.7,37.4,6,42.5
			c5.7,2.5,12.6-1.5,19,3.1c5.1,3.7,8.6,9.7,8.6,9.7l0,0c2.3-7.1,2.6-14.7,0.8-22L961,337.2z"/>
		<g>
			<path class="st24" d="M926.4,332c2.6-1.1,6.2-2.4,9.7-2.4c6.5-0.1,13.8,5.1,14.2,5.4c0.3,0.2,0.4,0.7,0.2,1
				c-0.1,0.1-0.2,0.2-0.4,0.3c-0.2,0.1-0.4,0-0.6-0.1c-0.1,0-7.6-4-13.7-3.9c-3.6,0.1-6.8,0.2-9.3,1.4
				C926.4,333,926.4,332.5,926.4,332z"/>
			<path class="st24" d="M926.9,340.9c2.2-1.2,5.6-2.6,10.4-2.6c8.7,0,13.9,4.8,14.1,5c0.3,0.3,0.3,0.7,0,1
				c-0.1,0.1-0.2,0.2-0.3,0.2c-0.2,0.1-0.5,0-0.7-0.2c-0.1,0-5-4.6-13.1-4.6c-4.8,0-8.2,1.5-10.2,2.7C927,342,927,341.4,926.9,340.9
				z"/>
			<path class="st24" d="M952.9,351.1c0.3,0.2,0.5,0.6,0.3,1c-0.1,0.2-0.3,0.3-0.4,0.3c-0.2,0-0.4,0-0.6-0.1c-0.1,0-9.1-5.1-22.8-1
				c-0.2-0.5-0.3-0.9-0.5-1.4C943.2,345.7,952.5,350.9,952.9,351.1z"/>
			<path class="st24" d="M927.2,323.1c1.8-0.2,4.1-0.3,6.4-0.1c10.7,0.6,17.2,4.6,17.4,4.8c0.3,0.2,0.4,0.7,0.2,1
				c-0.1,0.2-0.2,0.3-0.4,0.3c-0.2,0-0.4,0-0.6-0.1c-0.1,0-4.9-3.9-15.2-4.3c-4.4-0.2-6.8,1.2-8.4,2.3
				C926.8,325.6,927,324.3,927.2,323.1z"/>
		</g>
	</g>
	<g>
		<path class="st16" d="M766,487.6c-1.8,13.5,0.9,24.9,6,25.6c5.1,0.7,10.6-9.7,12.4-23.2c1.8-13.5-0.9-24.9-6-25.6
			C773.3,463.7,767.8,474.1,766,487.6z"/>
		<g>
			<path class="st23" d="M744.1,462l39.3,15.1c4.3-2.4,12.2-6.5,18.1-7.8c8.7-2,20.1-5.5,20.5-3s-0.2,8.4-2.9,9.7s-4.6,3.6,4.3,4.8
				c8.9,1.2,24.2,0.1,25.6-0.6s9.5,2.4,5.5,8.4c-4,5.9-15.8,23.8-22.4,25.5s-19.1,3.2-28.8,0c-9.7-3.3-15.1-8.5-17.5-7.9
				c-7.5,1.9-45.6-0.5-77.2-3.4C687.4,500.6,744.1,462,744.1,462z"/>
			<path class="st24" d="M719.9,493.8c12.3,1.3,67.3,4.8,67.3,4.8s4.4,0.5,13.9,8.7c7.1,6.1,28.9,2.2,39.5-0.1
				c-3.1,3.5-6.2,6.2-8.5,6.9c-6.5,1.7-19.1,3.2-28.8,0c-9.7-3.3-15.1-8.5-17.5-7.9c-6.4,1.6-35.1,0.1-63-2.2
				C696.1,501.6,707.6,492.5,719.9,493.8z"/>
			<path class="st24" d="M830.2,506.3c3.1-0.2,8.6-1.5,13.3-2.6c-0.4,0.5-0.8,1-1.2,1.4c-4.4,1.1-9.2,2.1-12,2.3
				c-6.3,0.5-14,0.6-14.1,0.6c-0.2,0-0.3-0.1-0.4-0.2c-0.1-0.1-0.1-0.2-0.1-0.4c0-0.3,0.2-0.6,0.5-0.6
				C816.2,507,824,506.8,830.2,506.3z"/>
			<path class="st24" d="M819.2,499.1c-0.1,0-0.3-0.1-0.3-0.2c-0.1-0.1-0.2-0.3-0.1-0.4c0-0.3,0.3-0.5,0.6-0.5
				c0.2,0,16.5,1.7,27.2-0.2c0.6-0.1,1.1-0.2,1.6-0.4c-0.3,0.4-0.6,0.9-1,1.3c-0.2,0-0.3,0.1-0.5,0.1
				C835.9,500.9,819.4,499.2,819.2,499.1z"/>
			<path class="st24" d="M847.6,491.2c-11,0.9-27.2-2.4-27.4-2.4c-0.1,0-0.2-0.1-0.3-0.2c-0.1-0.1-0.2-0.3-0.1-0.5
				c0.1-0.3,0.3-0.5,0.7-0.4c0.2,0,16.3,3.3,27.1,2.4c3.8-0.3,6-1.2,7.2-2.1c-0.1,0.1-0.2,0.3-0.3,0.4c-0.3,0.5-0.7,1-1.1,1.6
				C851.9,490.6,850,491,847.6,491.2z"/>
		</g>
		<path class="st21" d="M633.2,370.7c0.8-3.4,1.6-6.8,2.5-10.1c14.2-51.9,36.9-97.9,59.3-93.6c25.6,5,22,56.6,17.9,82.9
			c-4.1,26.5-22.3,73.3-27.8,85.6l0,0l84,25.8l-10,49.1c0,0-88-10.5-120.8-26.7C605.9,467.7,632.4,373.8,633.2,370.7z"/>
		<path class="st22" d="M638.5,465.6c-17.3-18.9,1.3-96.2,20.7-143.6c4.4-10.8,25.2-41.9,37.5-54.5c-0.5-0.1-1-0.3-1.5-0.4
			c-22.4-4.4-45.1,41.7-59.3,93.6c-0.9,3.3-1.8,6.7-2.5,10.1c-0.9,3.1-27.4,97,5.2,113.2c32.7,16.2,120.8,26.7,120.8,26.7l2.8-13.9
			l0,0C735.8,492.2,655.2,483.9,638.5,465.6z"/>
		<path class="st29" d="M757.2,484.2c1.7-10,4.9-18.5,8.6-23.8c7,2.2,12.4,3.9,14.2,4.4c-5-0.2-10.4,10-12.1,23.2
			c-1.6,12.5,0.6,23.3,5,25.3c-3.2-0.7-11.7-2.4-15.1-2.9C755.8,504.1,755.5,494.6,757.2,484.2z"/>
		<path class="st30" d="M756.1,495.2c4.2,0.7,8,1.3,11.2,1.8c0.2,8.4,2.2,14.8,5.5,16.3c-3.2-0.7-11.7-2.4-15.1-2.9
			C756.6,506.4,756,501.1,756.1,495.2z"/>
	</g>
	<g>
		<path class="st2" d="M579.1,344.5v-29.8c0-2.8-1.9-5.2-4.5-6.2c-8.5-3-14.8-7.2-19.1-12.5c-5-6.2-7.5-13.8-7.5-22.7
			c0-9,2.8-16.6,8.5-22.7c5.7-6.1,13.2-9.6,22.7-10.6v-8.2h12v8.2c8.7,1,15.7,4,20.8,8.9c3.4,3.3,6,7.3,7.8,12
			c1.5,3.9-1.2,8.1-5.4,8.7l-8,1c-2.8,0.4-5.6-1.1-6.7-3.7c-1.7-4.1-4.6-7-8.6-8.8v27.4c0,2.9,2,5.4,4.7,6.2
			c10.6,3.4,18,7.5,22.2,12.5c4.8,5.7,7.2,13,7.2,21.9c0,9.9-3,18.3-9,25.1c-5,5.7-11.7,9.5-19.9,11.5c-3,0.7-5.2,3.2-5.2,6.2v10.1
			h-12v-9.5c0-3.2-2.3-5.7-5.4-6.4c-7.1-1.7-13-4.9-17.8-9.7c-4.5-4.5-7.7-10.3-9.8-17.6c-1.1-3.9,1.6-7.9,5.6-8.3l8.8-1
			c2.8-0.3,5.7,1.2,6.7,3.9c0.9,2.5,2.2,4.8,3.7,6.9C573.5,340.8,576.2,343.1,579.1,344.5z M579.1,258c-3.2,1.1-5.8,3-7.8,5.6
			c-1.9,2.6-2.9,5.5-2.9,8.7c0,2.9,0.9,5.6,2.6,8.1c1.8,2.5,4.4,4.5,8,6V258z M591.1,345.6c4.1-0.8,7.5-2.7,10-5.7s3.9-6.6,3.9-10.8
			c0-3.7-1.1-6.9-3.2-9.5c-2.2-2.7-5.7-4.7-10.7-6.1V345.6z"/>
	</g>
	<g>
		<g>
			<defs>
				<path id="SVGID_00000021813227843382613010000008061488727070270872_" d="M1554.3,576c0.9-150.5-87.5-270.7-219.5-318.3
					c-145-52.3-420.1-5.7-491.5-4.5c-176.9,2.9-176.8-66-277.8-39.4c-73,19.2-53.8,136.9-23.1,206.9
					c68.2,155.2-5.4,159.5,23.1,264.3C620.2,886.1,885,943,996.3,960C1167.2,986,1551.9,974.2,1554.3,576z"/>
			</defs>
			<clipPath id="SVGID_00000008125144595033375260000001978699677684203686_">
				<use xlink:href="#SVGID_00000021813227843382613010000008061488727070270872_"  style="overflow:visible;"/>
			</clipPath>
			<g style="clip-path:url(#SVGID_00000008125144595033375260000001978699677684203686_);">
				<ellipse class="st1" cx="619.4" cy="736.2" rx="66.1" ry="66.1"/>
				<ellipse class="st2" cx="619.4" cy="736.2" rx="58.1" ry="58.1"/>
				<path class="st1" d="M615.7,758.5v-17c0-1.6-1.1-3-2.6-3.5c-4.8-1.7-8.5-4.1-11-7.2c-2.9-3.6-4.3-7.9-4.3-13
					c0-5.2,1.6-9.5,4.9-13c3.2-3.5,7.6-5.5,13-6.1V694h6.9v4.7c5,0.6,9,2.3,11.9,5.1c2,1.9,3.5,4.2,4.5,6.9c0.8,2.2-0.7,4.7-3.1,5
					l-4.6,0.6c-1.6,0.2-3.2-0.6-3.8-2.1c-1-2.3-2.6-4-4.9-5v15.7c0,1.7,1.1,3.1,2.7,3.6c6.1,1.9,10.3,4.3,12.7,7.2
					c2.7,3.2,4.1,7.4,4.1,12.5c0,5.7-1.7,10.5-5.2,14.4c-2.9,3.2-6.7,5.5-11.4,6.6c-1.7,0.4-3,1.8-3,3.6v5.8h-6.8v-5.5
					c0-1.8-1.3-3.3-3.1-3.7c-4-1-7.4-2.8-10.2-5.5c-2.6-2.6-4.4-5.9-5.6-10.1c-0.6-2.2,0.9-4.5,3.2-4.8l5.1-0.5
					c1.6-0.2,3.3,0.7,3.8,2.2c0.5,1.5,1.2,2.8,2.1,3.9C612.5,756.3,614,757.6,615.7,758.5z M615.7,708.9c-1.8,0.6-3.3,1.7-4.4,3.2
					c-1.1,1.5-1.7,3.2-1.7,5c0,1.7,0.5,3.2,1.5,4.7c1,1.4,2.5,2.6,4.6,3.5V708.9z M622.5,759.1c2.4-0.4,4.3-1.5,5.8-3.3
					s2.2-3.8,2.2-6.2c0-2.1-0.6-3.9-1.9-5.5s-3.3-2.7-6.1-3.5V759.1z"/>
			</g>
		</g>
	</g>
	<g>
		<g>
			<defs>
				<path id="SVGID_00000054954120995486975290000000808538569949690759_" d="M1554.3,576c0.9-150.5-87.5-270.7-219.5-318.3
					c-145-52.3-420.1-5.7-491.5-4.5c-176.9,2.9-176.8-66-277.8-39.4c-73,19.2-53.8,136.9-23.1,206.9
					c68.2,155.2-5.4,159.5,23.1,264.3C620.2,886.1,885,943,996.3,960C1167.2,986,1551.9,974.2,1554.3,576z"/>
			</defs>
			<clipPath id="SVGID_00000139989549691569877260000006314311156092357302_">
				<use xlink:href="#SVGID_00000054954120995486975290000000808538569949690759_"  style="overflow:visible;"/>
			</clipPath>
			<g style="clip-path:url(#SVGID_00000139989549691569877260000006314311156092357302_);">
				<path class="st7" d="M1286.4,959.9l-13.1-1.7c-6.8-0.9-11.6-7-10.7-13.8l3.9-31.2c0.9-6.8,7.1-11.6,13.8-10.7l13.1,1.7
					c6.8,0.9,11.6,7,10.7,13.8l-3.9,31.2C1299.4,955.9,1293.2,960.7,1286.4,959.9z"/>
				<path class="st7" d="M1417.8,949.3l-13.2,1c-6.8,0.5-12.8-4.6-13.3-11.4l-2.3-31.4c-0.5-6.8,4.6-12.8,11.4-13.3l13.2-1
					c6.8-0.5,12.8,4.6,13.3,11.4l2.3,31.4C1429.7,942.9,1424.6,948.8,1417.8,949.3z"/>
				<path class="st7" d="M1517.2,786.7c0.3,0,0.6,0,0.9,0.2c1.6,0.5,2.4,2.2,1.9,3.8c-0.2,0.7-5.6,16.1-19.3,22.1
					c-5.2,2.3-10.8,2.9-16.8,1.9c-0.8,1-1.7,2-2.7,2.8c-5.9,4.9-14.6,5.5-23.9,1.7c-1.5-0.6-2.2-2.4-1.6-3.9s2.4-2.2,3.9-1.6
					c7.3,3,13.6,2.8,17.8-0.7c-1.2-0.4-2.3-0.9-3.6-1.4c-11.6-5.1-11.6-12-11-14.8c1.2-5.7,7.3-10.3,13.6-10.3
					c5.5,0,9.6,3.5,10.9,9.5c1,4.7,0.8,9.2-0.5,13.1c4.1,0.4,7.9-0.2,11.4-1.7c11.3-5,16-18.5,16.1-18.6
					C1514.8,787.5,1516,786.7,1517.2,786.7z M1481,807.9c1.2-3,1.4-6.8,0.5-10.7c-0.7-3.2-2.3-4.8-5-4.8c0,0-0.1,0-0.1,0
					c-3.4,0-7.2,2.7-7.8,5.6c-0.6,2.8,2.2,5.8,7.6,8.2C1477.9,806.9,1479.5,807.5,1481,807.9z"/>
				
					<ellipse transform="matrix(0.9972 -7.430266e-02 7.430266e-02 0.9972 -51.8403 96.383)" class="st18" cx="1269.5" cy="744.9" rx="22.2" ry="34.5"/>
				
					<ellipse transform="matrix(0.9972 -7.420321e-02 7.420321e-02 0.9972 -57.4791 103.308)" class="st18" cx="1361.6" cy="825.2" rx="136.6" ry="112.4"/>
				<path class="st0" d="M1433.2,747.3c-0.6,0-1.2-0.1-1.8-0.3c-18.4-9-39.4-14.3-60.8-15.5c-17.1-0.9-33.8,0.9-49.8,5.2
					c-1.9,0.5-3.8-0.6-4.4-2.5c-0.5-1.9,0.6-3.8,2.5-4.4c16.7-4.5,34.2-6.4,52-5.4c22.3,1.2,44.3,6.8,63.5,16.2
					c1.8,0.9,2.5,3,1.6,4.8C1435.5,746.5,1434.4,747.2,1433.2,747.3z"/>
				<path class="st33" d="M1343.6,737.9c-0.3,17-3.8,33.9-20.4,30.4c-10.7-2.2-19.6-14.1-19.3-31.2c0.3-17,9.4-30.6,20.4-30.4
					C1335.3,706.9,1343.9,720.9,1343.6,737.9z"/>
				<path class="st7" d="M1432.1,749.5c-0.6,0-1.2-0.1-1.8-0.3c-18.4-9-39.4-14.3-60.8-15.5c-17.1-0.9-33.8,0.9-49.8,5.2
					c-1.9,0.5-3.8-0.6-4.4-2.5c-0.5-1.9,0.6-3.8,2.5-4.4c16.7-4.5,34.2-6.4,52-5.4c22.3,1.2,44.3,6.8,63.5,16.2
					c1.8,0.9,2.5,3,1.6,4.8C1434.5,748.7,1433.3,749.4,1432.1,749.5z"/>
				<path class="st18" d="M1339.4,741.5c-4.1,16.5-8,35.5-26.7,25c-9.6-5.4-15.9-18.2-11.8-34.7s16.1-27.7,26.7-25
					C1338.2,709.4,1343.5,725,1339.4,741.5z"/>
				<path class="st7" d="M1304.4,779c0.5,6.3-1.4,11.5-4.2,11.8c-2.8,0.2-5.4-4.7-5.9-11c-0.5-6.3,1.4-11.5,4.2-11.8
					C1301.3,767.8,1303.9,772.7,1304.4,779z"/>
				<path class="st18" d="M1332.5,961.8l-13.2,1c-6.8,0.5-12.8-4.6-13.3-11.4l-2.3-31.4c-0.5-6.8,4.6-12.8,11.4-13.3l13.2-1
					c6.8-0.5,12.8,4.6,13.3,11.4l2.3,31.4C1344.4,955.3,1339.3,961.3,1332.5,961.8z"/>
				<path class="st18" d="M1460.5,949.8l-12.7,3.7c-6.6,1.9-13.4-1.9-15.3-8.5l-8.7-30.2c-1.9-6.6,1.9-13.4,8.5-15.3l12.7-3.7
					c6.6-1.9,13.4,1.9,15.3,8.5l8.7,30.2C1470.9,941.1,1467.1,947.9,1460.5,949.8z"/>
				<path class="st7" d="M1478.7,764.5c4.7,10.2,7.7,21.2,8.6,32.8c4.6,61.9-52.7,116.6-127.9,122.2c-52.6,3.9-100-17.2-125.4-51.4
					c20.6,44.4,74.8,73.7,136,69.1c75.2-5.6,132.5-60.3,127.9-122.2C1496.5,796.4,1489.7,779.2,1478.7,764.5z"/>
				<path class="st0" d="M1341.6,802.8c3.6,6.2-2.2,16.1-12.8,22.3s-22.2,6.1-25.7,0c-3.6-6.2,2.2-16.1,12.8-22.3
					C1326.5,796.6,1338,796.6,1341.6,802.8z"/>
				<path class="st7" d="M1242.6,873.3L1242.6,873.3c-18.5,1.4-34.6-12.5-36-31l-1.9-25.3c-1.4-18.5,12.5-34.6,31-36l0,0
					c18.5-1.4,34.6,12.5,36,31l1.9,25.3C1275,855.8,1261.1,871.9,1242.6,873.3z"/>
				<path class="st18" d="M1235.2,871.2L1235.2,871.2c-19.9,1.5-37.3-13.5-38.8-33.4l-1.3-17.5c-1.5-20,13.5-37.3,33.4-38.8l0,0
					c19.9-1.5,37.3,13.5,38.8,33.4l1.3,17.5C1270.2,852.3,1255.2,869.7,1235.2,871.2z"/>
				<path class="st0" d="M1240,791.2c-10.6-9.2-27-7.9-36.1,2.7c-6.1,7-9.4,16.3-8.7,26.3l1.3,17.5c0.7,10,5.5,18.7,12.5,24.8
					c10.6,9.2,27,7.9,36.1-2.7c6.1-7,9.4-16.3,8.7-26.3l-1.3-17.5C1251.7,806,1247,797.3,1240,791.2z"/>
				<g>
					<path class="st18" d="M1234.2,823.2c0.5,6.3-1.4,11.5-4.2,11.8c-2.8,0.2-5.4-4.7-5.9-11c-0.5-6.3,1.4-11.5,4.2-11.8
						C1231.2,812,1233.8,816.9,1234.2,823.2z"/>
					<path class="st7" d="M1229.6,812.4c-2.1,1.3-3.4,6-3,11.4c0.4,5.4,2.4,9.8,4.7,10.8c2.1-1.3,3.4-6,3-11.4
						S1231.9,813.4,1229.6,812.4z"/>
				</g>
				<g>
					<path class="st18" d="M1216.2,823.9c0.5,6.3-1.4,11.5-4.2,11.8s-5.4-4.7-5.9-11c-0.5-6.3,1.4-11.5,4.2-11.8
						C1213.1,812.7,1215.7,817.6,1216.2,823.9z"/>
					<path class="st7" d="M1211.5,813.1c-2.1,1.3-3.4,6-3,11.4s2.4,9.8,4.7,10.8c2.1-1.3,3.4-6,3-11.4
						C1215.8,818.5,1213.8,814.1,1211.5,813.1z"/>
				</g>
			</g>
		</g>
	</g>
	<g>
		
			<ellipse transform="matrix(0.7071 -0.7071 0.7071 0.7071 -8.4606 1226.0927)" class="st7" cx="1475.8" cy="623.3" rx="35.8" ry="35.8"/>
		<ellipse class="st26" cx="1475.8" cy="623.3" rx="31.5" ry="31.5"/>
		<path class="st34" d="M1473.8,635.3v-9.2c0-0.9-0.6-1.6-1.4-1.9c-2.6-0.9-4.6-2.2-5.9-3.9c-1.6-1.9-2.3-4.3-2.3-7
			c0-2.8,0.9-5.1,2.7-7c1.8-1.9,4.1-3,7-3.3v-2.5h3.7v2.5c2.7,0.3,4.9,1.2,6.5,2.8c1.1,1,1.9,2.3,2.4,3.7c0.4,1.2-0.4,2.5-1.7,2.7
			l-2.5,0.3c-0.9,0.1-1.7-0.3-2.1-1.2c-0.5-1.3-1.4-2.2-2.7-2.7v8.5c0,0.9,0.6,1.7,1.5,1.9c3.3,1,5.6,2.3,6.9,3.9
			c1.5,1.8,2.2,4,2.2,6.8c0,3.1-0.9,5.7-2.8,7.8c-1.6,1.8-3.6,3-6.2,3.6c-0.9,0.2-1.6,1-1.6,1.9v3.2h-3.7v-3c0-1-0.7-1.8-1.7-2
			c-2.2-0.5-4-1.5-5.5-3c-1.4-1.4-2.4-3.2-3-5.5c-0.3-1.2,0.5-2.5,1.8-2.6l2.7-0.3c0.9-0.1,1.8,0.4,2.1,1.2c0.3,0.8,0.7,1.5,1.2,2.1
			C1472.1,634.2,1472.9,634.9,1473.8,635.3z M1473.8,608.5c-1,0.3-1.8,0.9-2.4,1.7s-0.9,1.7-0.9,2.7c0,0.9,0.3,1.7,0.8,2.5
			c0.6,0.8,1.4,1.4,2.5,1.9L1473.8,608.5L1473.8,608.5z M1477.5,635.7c1.3-0.2,2.3-0.8,3.1-1.8s1.2-2.1,1.2-3.3c0-1.1-0.3-2.1-1-3
			c-0.7-0.8-1.8-1.5-3.3-1.9L1477.5,635.7L1477.5,635.7z"/>
	</g>
	<g>
		
			<ellipse transform="matrix(0.2298 -0.9732 0.9732 0.2298 628.3709 1762.4915)" class="st7" cx="1427.8" cy="484.2" rx="19.6" ry="19.6"/>
		
			<ellipse transform="matrix(0.2298 -0.9732 0.9732 0.2298 628.371 1762.4915)" class="st26" cx="1427.8" cy="484.2" rx="17.2" ry="17.2"/>
		<path class="st34" d="M1426.6,490.7v-5c0-0.5-0.3-0.9-0.8-1c-1.4-0.5-2.5-1.2-3.2-2.1c-0.8-1.1-1.3-2.3-1.3-3.9
			c0-1.5,0.5-2.8,1.4-3.9s2.2-1.6,3.8-1.8v-1.4h2v1.4c1.5,0.2,2.7,0.7,3.5,1.5c0.6,0.5,1,1.2,1.3,2c0.2,0.7-0.2,1.4-0.9,1.5
			l-1.4,0.2c-0.5,0.1-0.9-0.2-1.1-0.6c-0.3-0.7-0.8-1.2-1.4-1.5v4.6c0,0.5,0.3,0.9,0.8,1.1c1.8,0.6,3.1,1.3,3.8,2.1
			c0.8,1,1.2,2.2,1.2,3.7c0,1.7-0.5,3.1-1.5,4.3c-0.8,1-2,1.6-3.4,2c-0.5,0.1-0.9,0.5-0.9,1.1v1.7h-2V495c0-0.5-0.4-1-0.9-1.1
			c-1.2-0.3-2.2-0.8-3-1.6c-0.8-0.8-1.3-1.8-1.7-3c-0.2-0.7,0.3-1.3,0.9-1.4l1.5-0.2c0.5,0,1,0.2,1.1,0.7c0.2,0.4,0.4,0.8,0.6,1.2
			C1425.6,490.1,1426.1,490.5,1426.6,490.7z M1426.6,476.1c-0.6,0.2-1,0.5-1.3,1c-0.3,0.5-0.5,0.9-0.5,1.5c0,0.5,0.2,1,0.4,1.4
			c0.3,0.4,0.8,0.8,1.3,1L1426.6,476.1L1426.6,476.1z M1428.6,490.9c0.7-0.1,1.3-0.5,1.7-1c0.4-0.5,0.7-1.1,0.7-1.8
			c0-0.6-0.2-1.2-0.6-1.6c-0.4-0.5-1-0.8-1.8-1L1428.6,490.9L1428.6,490.9z"/>
	</g>
</g>
</svg>
