<?xml version="1.0" encoding="utf-8"?>
<!-- Generator: Adobe Illustrator 27.5.0, SVG Export Plug-In . SVG Version: 6.00 Build 0)  -->
<svg version="1.1" id="Layer_1" xmlns="http://www.w3.org/2000/svg" xmlns:xlink="http://www.w3.org/1999/xlink" x="0px" y="0px"
	 viewBox="0 0 289.1 62.3" style="enable-background:new 0 0 289.1 62.3;" xml:space="preserve">
<style type="text/css">
	.st0{fill:#00859B;}
	.st1{fill:#00C689;}
	.st2{fill:#5E2CED;}
	.st3{fill:#283A50;}
	.st4{font-family:'Montserrat-SemiBold';}
	.st5{font-size:32px;}
</style>
<g>
	<g>
		<path class="st0" d="M42.45,2.93l-5.32,5.32l22.35,22.35c3.24,3.24,8.52,3.86,12.06,0.96c4.08-3.33,4.3-9.36,0.67-12.99
			L56.58,2.93C52.68-0.98,46.36-0.98,42.45,2.93z"/>
		<path class="st1" d="M59.84,30.94l-22.7-22.7l-9.45,9.45c-3.9,3.9-3.9,10.22,0,14.12l15.64,15.64c3.42,3.42,3.42,8.96,0,12.38
			l6.19-6.19l16.51-16.51l6.19-6.19C68.8,34.36,63.25,34.36,59.84,30.94z"/>
	</g>
	<path class="st2" d="M17.69,2.93L2.93,17.69c-3.9,3.9-3.9,10.22,0,14.12l27.67,27.67c3.24,3.24,8.52,3.86,12.06,0.96
		c4.08-3.33,4.3-9.36,0.67-12.99L27.69,31.82c-3.9-3.9-3.9-10.22,0-14.12l9.45-9.45l-5.32-5.32C27.92-0.98,21.59-0.98,17.69,2.93z
		 M11.71,27.91c-1.44,1.44-3.78,1.44-5.22,0c-1.44-1.44-1.44-3.78,0-5.22c1.44-1.44,3.78-1.44,5.22,0
		C13.15,24.13,13.15,26.47,11.71,27.91z"/>
</g>
<text transform="matrix(1 0 0 1 89.2582 40.6065)" class="st3 st4 st5">Heartwealth</text>
</svg>
