<?xml version="1.0" encoding="utf-8"?>
<!-- Generator: Adobe Illustrator 27.5.0, SVG Export Plug-In . SVG Version: 6.00 Build 0)  -->
<svg version="1.1" id="Camada_1" xmlns="http://www.w3.org/2000/svg" xmlns:xlink="http://www.w3.org/1999/xlink" x="0px" y="0px"
	 viewBox="0 0 1371 816" style="enable-background:new 0 0 1371 816;" xml:space="preserve">
<style type="text/css">
	.st0{fill:#E5E9FF;}
	.st1{fill:#F7B75D;}
	.st2{fill:#2143AF;}
	.st3{fill:#566CD3;}
	.st4{fill:#FFFFFF;}
	.st5{fill:#8EDEF2;}
	.st6{fill:#B9B8F1;}
	.st7{fill-rule:evenodd;clip-rule:evenodd;fill:#FFFFFF;}
	.st8{fill-rule:evenodd;clip-rule:evenodd;fill:#121F55;}
	.st9{fill-rule:evenodd;clip-rule:evenodd;fill:#2143AF;}
	.st10{fill-rule:evenodd;clip-rule:evenodd;fill:#566CD3;}
	.st11{fill:#F99AB6;}
	.st12{fill:#121F55;}
	.st13{fill:#FFFEFF;}
	.st14{fill:#F7A93E;}
	.st15{fill:#B8B9F1;}
	.st16{fill:#2747B3;}
	.st17{fill-rule:evenodd;clip-rule:evenodd;fill:#B9B8F1;}
</style>
<g>
	<g>
		<g>
			
				<ellipse transform="matrix(0.7071 -0.7071 0.7071 0.7071 -95.0923 603.9754)" class="st0" cx="681.5" cy="416.8" rx="369.6" ry="369.6"/>
		</g>
		<g>
			<path class="st0" d="M679.9,121.8h-236c-20,0-36.1-16.2-36.1-36.1l0,0c0-20,16.2-36.1,36.1-36.1h236c20,0,36.1,16.2,36.1,36.1
				l0,0C716,105.6,699.8,121.8,679.9,121.8z"/>
		</g>
		<g>
			<path class="st0" d="M384.7,630.6h151.7c15.6,0,28.3,12.7,28.3,28.3l0,0c0,15.6-12.7,28.3-28.3,28.3H384.7
				c-15.6,0-28.3-12.7-28.3-28.3l0,0C356.4,643.3,369.1,630.6,384.7,630.6z"/>
		</g>
		<g>
			<path class="st0" d="M354.8,741.7h224.7c10.1,0,18.3,8.2,18.3,18.3l0,0c0,10.1-8.2,18.3-18.3,18.3H354.8
				c-10.1,0-18.3-8.2-18.3-18.3l0,0C336.4,749.9,344.6,741.7,354.8,741.7z"/>
		</g>
		<g>
			<path class="st0" d="M833.2,779h58.4c3.5,0,6.3,2.8,6.3,6.3v24.1c0,3.5-2.8,6.3-6.3,6.3h-58.4c-3.5,0-6.3-2.8-6.3-6.3v-24.1
				C826.9,781.8,829.7,779,833.2,779z"/>
		</g>
		<g>
			<path class="st0" d="M656.8,670.4h338.4c16.6,0,30.1,13.5,30.1,30.1l0,0c0,16.6-13.5,30.1-30.1,30.1H656.8
				c-16.6,0-30.1-13.5-30.1-30.1l0,0C626.7,683.9,640.1,670.4,656.8,670.4z"/>
		</g>
		<g>
			<path class="st0" d="M417,686.9h105.7c-7.8,0-14.9,3.4-20,8.5c-5.1,5.1-8.3,11.2-8.3,19c0,15.6,12.7,27.3,28.3,27.3H417
				c7.8,0,14.9-2.1,20-7.2c5.1-5.1,8.3-11.9,8.3-19.7C445.3,699.2,432.7,686.9,417,686.9z"/>
		</g>
		<g>
			<path class="st0" d="M850.5,363.6h272.4c28.1,0,50.9,22.8,50.9,50.9l0,0c0,28.1-22.8,50.9-50.9,50.9H850.5
				c-28.1,0-50.9-22.8-50.9-50.9l0,0C799.6,386.3,822.4,363.6,850.5,363.6z"/>
		</g>
		<g>
			<path class="st0" d="M734.3,564.1H1138c18.2,0,33,14.8,33,33l0,0c0,18.2-14.8,33-33,33H734.3c-18.2,0-33-14.8-33-33l0,0
				C701.3,578.8,716.1,564.1,734.3,564.1z"/>
		</g>
		<g>
			<path class="st0" d="M911.7,465.6h189.8c-14,0-26.8,5.5-36,14.7c-9.2,9.2-14.9,20.1-14.9,34.1c0,28.1,22.8,49,50.9,49H911.7
				c14,0,26.7-4,36-13.1c9.2-9.2,14.9-20.9,14.9-34.9C962.5,487.3,939.8,465.6,911.7,465.6z"/>
		</g>
		<g>
			<path class="st0" d="M603.6,319.3H284.4c-29.8,0-54-24.2-54-54l0,0c0-29.8,24.2-54,54-54h319.2c29.8,0,54,24.2,54,54l0,0
				C657.6,295.2,633.4,319.3,603.6,319.3z"/>
		</g>
		<g>
			<path class="st0" d="M736.6,630.6H275.2c-43.1,0-78-34.9-78-78l0,0c0-43.1,34.9-78,78-78h461.3c43.1,0,78,34.9,78,78l0,0
				C814.6,595.7,779.7,630.6,736.6,630.6z"/>
		</g>
		<g>
			<path class="st0" d="M997.6,196.3H742.9c-23.8,0-43.1-19.3-43.1-43.1l0,0c0-23.8,19.3-43.1,43.1-43.1h254.7
				c23.8,0,43.1,19.3,43.1,43.1l0,0C1040.7,177,1021.4,196.3,997.6,196.3z"/>
		</g>
		<g>
			<path class="st0" d="M919.3,47.2h-60.5c-12.9,0-23.4-10.5-23.4-23.4l0,0c0-12.9,10.5-23.4,23.4-23.4h60.5
				c12.9,0,23.4,10.5,23.4,23.4l0,0C942.7,36.7,932.2,47.2,919.3,47.2z"/>
		</g>
	</g>
	<g>
		<g>
			<path class="st1" d="M740.9,186.1c0-0.5-59.7-48-59.7-48s-59.7,47.4-59.7,48V186h119.4V186.1z"/>
		</g>
		<g>
			<g>
				<rect x="621.5" y="186" class="st2" width="119.4" height="17.4"/>
			</g>
		</g>
	</g>
	<g>
		<g>
			<path class="st3" d="M740.9,230.7v87.7h30.8c13.2,0,20.9-14.9,13.3-25.7L740.9,230.7z"/>
		</g>
	</g>
	<g>
		<g>
			<path class="st3" d="M591.2,318.4h30.3v-87.7l-43.6,62C570.3,303.5,578,318.4,591.2,318.4z"/>
		</g>
	</g>
	<g>
		<g>
			<path class="st4" d="M621.5,203.3v154c0,18.3,13.7,32.5,32.1,32.5h-0.1v12.3h54.2v-12.3h0.9c18.3,0,32.4-14.2,32.4-32.5v-154
				H621.5z"/>
		</g>
	</g>
	<g>
		<g>
			<path class="st1" d="M621.5,357.6c0.1,18.2,13.8,32.2,32,32.2h-0.1v12.3h54.2v-12.3h0.9c18.2,0,32.2-14,32.4-32.2H621.5z"/>
		</g>
	</g>
	<g>
		<path class="st2" d="M630.8,352.1c-3,0-5.5-2.5-5.5-5.5s2.5-5.5,5.5-5.5c3,0,5.5,2.5,5.5,5.5S633.9,352.1,630.8,352.1z"/>
	</g>
	<g>
		<path class="st2" d="M647.9,352.1c-3,0-5.5-2.5-5.5-5.5s2.5-5.5,5.5-5.5c3,0,5.5,2.5,5.5,5.5S650.9,352.1,647.9,352.1z"/>
	</g>
	<g>
		<path class="st2" d="M664.9,352.1c-3,0-5.5-2.5-5.5-5.5s2.5-5.5,5.5-5.5c3,0,5.5,2.5,5.5,5.5S667.9,352.1,664.9,352.1z"/>
	</g>
	<g>
		<path class="st2" d="M681.9,352.1c-3,0-5.5-2.5-5.5-5.5s2.5-5.5,5.5-5.5c3,0,5.5,2.5,5.5,5.5S684.9,352.1,681.9,352.1z"/>
	</g>
	<g>
		<path class="st2" d="M698.9,352.1c-3,0-5.5-2.5-5.5-5.5s2.5-5.5,5.5-5.5c3,0,5.5,2.5,5.5,5.5S701.9,352.1,698.9,352.1z"/>
	</g>
	<g>
		<path class="st2" d="M715.9,352.1c-3,0-5.5-2.5-5.5-5.5s2.5-5.5,5.5-5.5s5.5,2.5,5.5,5.5S718.9,352.1,715.9,352.1z"/>
	</g>
	<g>
		<path class="st2" d="M732.9,352.1c-3,0-5.5-2.5-5.5-5.5s2.5-5.5,5.5-5.5c3,0,5.5,2.5,5.5,5.5S736,352.1,732.9,352.1z"/>
	</g>
	<g>
		<path class="st5" d="M708.8,254.9c0,15.2-12.4,27.6-27.6,27.6s-27.6-12.4-27.6-27.6c0-15.2,12.4-27.6,27.6-27.6
			S708.8,239.6,708.8,254.9z"/>
	</g>
	<g>
		<path class="st6" d="M886.9,500.8c-19.5,0-36.5,10.8-45.3,26.8c-8.8-25.8-33.2-44.4-62-44.4c-22.5,0-42.3,11.3-54.1,28.6
			c-23.2,2.1-41.9,19.6-46,42.1c-4.1-13.8-14.3-25-27.5-30.5c-9.6-26-34.6-44.5-63.9-44.5c-29.2,0-54.2,18.4-63.8,44.3
			c-7.8-5.7-17.5-9-27.9-9c-26.3,0-47.6,21.3-47.6,47.6c0,26.3,21.3,47.6,47.6,47.6c15.9,0,30-7.8,38.6-19.8
			c12.5,15.5,31.6,25.4,53,25.4c8.8,0,17.2-1.7,25-4.7c6.3,3,13.3,4.7,20.7,4.7c23.1,0,42.3-16.4,46.7-38.2
			c6,21.8,26,37.9,49.8,37.9c8.6,0,16.7-2.1,23.8-5.8c7.8,3.3,16.5,5.2,25.5,5.2c27.2,0,50.5-16.6,60.4-40.1
			c8.2,17.7,26.1,30,46.9,30c28.5,0,51.6-23.1,51.6-51.6C938.5,523.9,915.4,500.8,886.9,500.8z"/>
	</g>
	<g id="XMLID_486_">
		<g id="XMLID_654_">
			<g>
				<path class="st6" d="M574.1,358.4L574.1,358.4l40,0.1v-1.9c0-17.1-4.6-31.1-21.5-31.4h0C588.3,325.5,574.1,328.8,574.1,358.4z"
					/>
			</g>
		</g>
		<g id="XMLID_495_">
			<g id="XMLID_653_">
				<g>
					<path class="st4" d="M359.6,592.3h214.5V358.4c0-31,15.7-33.2,19-33.3c0,0-142.2,0-197.3,0c-38.6,0-36.1,33.4-36.1,33.4V592.3z
						"/>
				</g>
			</g>
			<g id="XMLID_496_">
				<g>
					<path class="st4" d="M593.6,325.1H593C593.4,325.1,593.6,325.1,593.6,325.1z"/>
				</g>
			</g>
		</g>
		<g id="XMLID_490_">
			<g id="XMLID_491_">
				<g>
					<path class="st4" d="M593.6,325.1H593C593.4,325.1,593.6,325.1,593.6,325.1z"/>
				</g>
			</g>
		</g>
	</g>
	<g>
		<g>
			<g>
				<rect x="538.5" y="356.6" class="st6" width="5.5" height="172.7"/>
			</g>
		</g>
		<g>
			<g>
				<rect x="511.1" y="356.6" class="st6" width="5.5" height="172.7"/>
			</g>
		</g>
		<g>
			<g>
				<rect x="480.9" y="356.6" class="st6" width="5.5" height="172.7"/>
			</g>
		</g>
		<g>
			<g>
				<rect x="450.8" y="356.6" class="st6" width="5.5" height="172.7"/>
			</g>
		</g>
		<g>
			<g>
				<rect x="420.6" y="356.6" class="st6" width="5.5" height="172.7"/>
			</g>
		</g>
		<g>
			<g>
				<rect x="393.2" y="356.6" class="st6" width="5.5" height="172.7"/>
			</g>
		</g>
		<g>
			<g>
				<rect x="382.3" y="515.5" class="st6" width="169.9" height="5.5"/>
			</g>
		</g>
		<g>
			<g>
				<rect x="382.3" y="485.4" class="st6" width="169.9" height="5.5"/>
			</g>
		</g>
		<g>
			<g>
				<rect x="382.3" y="455.2" class="st6" width="169.9" height="5.5"/>
			</g>
		</g>
		<g>
			<g>
				<rect x="382.3" y="425.1" class="st6" width="169.9" height="5.5"/>
			</g>
		</g>
		<g>
			<g>
				<rect x="382.3" y="397.7" class="st6" width="169.9" height="5.5"/>
			</g>
		</g>
		<g>
			<g>
				<rect x="382.3" y="367.5" class="st6" width="169.9" height="5.5"/>
			</g>
		</g>
		<g>
			<g>
				<g>
					
						<rect x="526.7" y="404.9" transform="matrix(0.7071 -0.7071 0.7071 0.7071 -136.7722 495.2512)" class="st6" width="5.5" height="15.7"/>
				</g>
			</g>
			<g>
				<g>
					
						<rect x="521.6" y="410" transform="matrix(0.7071 -0.7071 0.7071 0.7071 -136.7703 495.2665)" class="st6" width="15.7" height="5.5"/>
				</g>
			</g>
		</g>
		<g>
			<g>
				<g>
					
						<rect x="435.6" y="377.2" transform="matrix(0.7071 -0.7071 0.7071 0.7071 -143.8983 422.7567)" class="st6" width="5.5" height="15.7"/>
				</g>
			</g>
			<g>
				<g>
					
						<rect x="430.5" y="382.3" transform="matrix(0.7071 -0.7071 0.7071 0.7071 -143.8975 422.77)" class="st6" width="15.7" height="5.5"/>
				</g>
			</g>
		</g>
		<g>
			<g>
				<polygon class="st6" points="497,453.7 488.9,445.5 492.7,441.7 497,445.9 504.8,438.1 508.7,442 				"/>
			</g>
		</g>
		<g>
			<g>
				<polygon class="st6" points="407.2,422.3 399.1,414.1 402.9,410.3 407.2,414.5 415,406.7 418.9,410.6 				"/>
			</g>
		</g>
	</g>
	<g>
		<g id="XMLID_482_">
			<g id="XMLID_485_">
				<g>
					<g>
						<g>
							<path class="st7" d="M610.6,406.8c-0.4-1-12.8-20.7-12.8-20.7s-11.9,19.1-12.7,20.7H610.6z"/>
						</g>
					</g>
				</g>
			</g>
			<g id="XMLID_483_">
				<g>
					<g>
						<g>
							<polygon class="st8" points="591.7,396 603.9,396 597.8,386.1 							"/>
						</g>
					</g>
				</g>
			</g>
		</g>
		<g id="XMLID_481_">
			<g>
				<g>
					<g>
						<polygon class="st9" points="610.6,407.5 585,407.6 585.1,577.6 610.6,577.6 						"/>
					</g>
				</g>
			</g>
		</g>
		<g id="XMLID_479_">
			<g>
				<g>
					<g>
						<polygon class="st10" points="602.2,407.5 593.4,407.6 593.5,577.6 602.2,577.6 						"/>
					</g>
				</g>
			</g>
		</g>
		<g>
			<g>
				<g>
					<path class="st10" d="M585,577.6v5.6c0,5.2,4.2,9.4,9.4,9.4h7.1c5.2,0,9.4-4.2,9.4-9.4v-5.6H585z"/>
				</g>
			</g>
		</g>
	</g>
	<g>
		<g id="XMLID_146_">
			<g id="XMLID_162_">
				<g id="XMLID_163_">
					<g>
						<g>
							<path class="st6" d="M1015.5,476.4c-0.1-1-1-1.9-2-2.1l-3.8-0.7c-1-0.2-2-1.1-2.3-2l-1.5-3.8c-0.4-0.9-0.3-2.2,0.3-3l2.3-3.1
								c0.6-0.8,0.6-2.1,0-2.9l-2-2.4c-0.7-0.7-1.9-0.9-2.8-0.5l-3.5,1.7c-0.9,0.4-2.2,0.3-3-0.3l-3.5-2.1c-0.9-0.4-1.6-1.6-1.6-2.6
								l0-3.9c0-1-0.8-2-1.7-2.3l-3.1-0.7c-1-0.2-2.1,0.4-2.6,1.2l-0.6,1.1l-0.7,1.3l-0.5,0.9c-0.5,0.9-1.6,1.6-2.6,1.6l-4,0.3
								c-1,0.1-2.2-0.4-2.8-1.2l-2.3-3.1c-0.6-0.8-1.8-1.2-2.7-0.9l-2.9,1.2c-0.9,0.4-1.5,1.5-1.4,2.5l0.5,3.8
								c0.1,1-0.4,2.2-1.2,2.8l-3.1,2.6c-0.7,0.7-2,1-3,0.7l-3.7-1.2c-0.9-0.3-2.2,0.1-2.7,0.9c0,0-0.3,0.4-0.9,1.3
								c-0.6,1-0.8,1.4-0.8,1.4c-0.5,0.9-0.3,2.2,0.4,2.8l2.7,2.8c0.7,0.7,1,2,0.7,3l-1,4c-0.2,1-1.1,2-2,2.3l-3.7,1.2
								c-0.9,0.3-1.7,1.4-1.6,2.3l0.2,3.2c0.1,1,1,1.9,2,2.1l3.8,0.7c1,0.2,2,1.1,2.3,2l1.5,3.8c0.4,0.9,0.3,2.2-0.3,3l-2.3,3.1
								c-0.6,0.8-0.6,2.1,0.1,2.8l2,2.4c0.7,0.7,1.9,1,2.8,0.5l3.5-1.7c0.9-0.4,2.2-0.3,3,0.3l3.5,2.2c0.9,0.4,1.6,1.6,1.6,2.6
								l0,3.9c0,1,0.8,2,1.7,2.3l3.1,0.7c1,0.2,2.1-0.4,2.6-1.2l1.8-3.4c0.5-0.9,1.6-1.6,2.6-1.6l4-0.3c1-0.1,2.2,0.4,2.8,1.2
								l2.3,3.1c0.6,0.8,1.8,1.2,2.7,0.9l2.9-1.2c0.9-0.4,1.5-1.5,1.4-2.5l-0.5-3.8c-0.1-1,0.4-2.2,1.2-2.8l3.1-2.6
								c0.7-0.7,2-1,3-0.7l3.7,1.2c0.9,0.3,2.1-0.1,2.7-0.9c0,0,0.3-0.4,0.9-1.3c0.6-1,0.8-1.4,0.8-1.4c0.5-0.8,0.3-2.1-0.4-2.8
								l-2.7-2.8c-0.7-0.7-1-2.1-0.7-3l1-4c0.2-1,1.1-2,2-2.3l3.7-1.2c0.9-0.3,1.7-1.4,1.6-2.3L1015.5,476.4z M997.3,491.2
								c-5.8,9.4-18.2,12.3-27.6,6.4c-9.4-5.8-12.3-18.2-6.4-27.6c3.3-5.4,8.8-8.6,14.6-9.3c0.7-0.1,1.3-0.1,2-0.1
								c0.6,0,1.2,0,1.8,0.1c0.7,0,1.3,0.1,2,0.2c2.5,0.4,4.9,1.3,7.1,2.7C1000.3,469.4,1003.2,481.7,997.3,491.2z"/>
						</g>
					</g>
				</g>
			</g>
			<g id="XMLID_147_">
				<g id="XMLID_148_">
					<g>
						<g>
							<path class="st6" d="M987.8,468.4c-1.3-0.9-2.8-1.4-4.2-1.8c-2-0.5-4-0.5-5.9-0.2c-3.8,0.7-7.4,2.9-9.6,6.5
								c-4.2,6.7-2.1,15.5,4.6,19.7c6.7,4.2,15.5,2.1,19.7-4.6C996.6,481.4,994.5,472.6,987.8,468.4z M984.7,483.3
								c-1.5,2.4-4.7,3.2-7.1,1.7c-2.4-1.5-3.2-4.7-1.7-7.1c0.4-0.6,0.9-1.2,1.5-1.6c1.6-1.1,3.8-1.2,5.6-0.1
								c0.1,0.1,0.2,0.1,0.3,0.2C985.5,478,986.1,481,984.7,483.3z"/>
						</g>
					</g>
				</g>
			</g>
		</g>
	</g>
	<g>
		<g>
			<g>
				<path class="st1" d="M884.2,511.9l0.5-3.4c0.3-1.9,0.4-3.9,0.4-5.8c0-18.2-12.3-33.9-30-38.3l-3-0.7v-31.8l4.6,0.7
					c34.8,5.3,60,34.9,59.9,70.2c0,4.6-0.5,9.2-1.4,13.8l-0.9,4.2L884.2,511.9z"/>
			</g>
			<g>
				<path class="st4" d="M798.5,449.5l3.6-2.8c9.8-7.6,21.4-12.6,33.6-14.3l4.5-0.6v31.7l-3.1,0.7c-4.8,1.1-9.2,3-13.3,5.7l-2.7,1.8
					L798.5,449.5z"/>
			</g>
			<g>
				<path class="st3" d="M835.7,572.9c-34.8-5-61-35.2-61-70.3c0-14.6,4.5-28.7,12.8-40.6l2.7-3.8l22.8,22.2l-1.5,2.7
					c-3.4,6-5.2,12.7-5.3,19.6c0,18.7,12.7,34.5,30.8,38.5l3.1,0.7v31.7L835.7,572.9z"/>
			</g>
			<g>
				<path class="st2" d="M852.2,541.7l3-0.8c9.2-2.3,17.3-7.8,22.8-15.6l1.6-2.3l30.9,9l-2.3,4.3c-10.4,19.4-29.7,33-51.4,36.4
					l-4.6,0.7V541.7z"/>
			</g>
		</g>
		<g>
			<path class="st4" d="M846,402.7h-0.7c-22.8,0.2-41.2,17.6-41.2,41.5c0,8.1,2,13.1,5.9,19.5c9.7,16.1,15.1,40.3,15.1,40.3h20.2
				h0.7h20.2c0,0,5.4-24.2,15.1-40.3c3.9-6.4,5.9-11.4,5.9-19.5C887.2,420.3,868.8,402.9,846,402.7z"/>
		</g>
		<g>
			<path class="st6" d="M852.3,481.3L852.3,481.3c1.6,0,2.8,1.2,2.8,2.7v22c0,1.5-1.2,2.7-2.7,2.7h-0.1c-1.5,0-2.7-1.2-2.7-2.7v-22
				C849.6,482.5,850.8,481.3,852.3,481.3z"/>
		</g>
		<g>
			<path class="st6" d="M840.2,481.3L840.2,481.3c1.6,0,2.8,1.2,2.8,2.7v22c0,1.5-1.2,2.7-2.7,2.7h-0.1c-1.5,0-2.7-1.2-2.7-2.7v-22
				C837.5,482.5,838.7,481.3,840.2,481.3z"/>
		</g>
		<g id="XMLID_157_">
			<g id="XMLID_159_">
				<g>
					<g>
						<polygon class="st2" points="824.1,500.9 824.1,515.7 828.7,523.6 845.6,523.6 862.6,523.6 867.2,515.7 867.2,500.9 						"/>
					</g>
				</g>
			</g>
		</g>
	</g>
	<g>
		<path class="st4" d="M930.7,525.2c-34.2,0-63.9,19.1-79.2,47.2c-28.7-14.2-64.3,3.2-69.8,30c-1.7-7.9-15.9-7-15.9-7
			c10.6-7.7,17.5-20.2,17.5-34.4c0-23.5-19.1-42.6-42.6-42.6c-5.6,0-11,0.7-15.9,2.7l-17.2-119h-53.7l-17.4,120.3
			c-4.9-1.9-10.2-2.8-15.7-2.8c-23.5,0-42.6,19.2-42.6,42.7c0,13.8,6.6,26.1,16.7,33.8c0,0-12-1.3-14.7,6.6
			c0-26.8-40.3-51.3-68.9-30.4c-15.3-28-45-47.2-79.1-47.2c-49.8,0-90.1,41.7-90.1,90.4h678.8C1020.8,566.9,980.5,525.2,930.7,525.2
			z"/>
	</g>
	<g>
		<g>
			<g>
				<path class="st11" d="M836.9,384.5c-0.5-1.3-12.1-32.2-12.1-51.1h6.9c0,17.7,11.5,48.4,11.6,48.7L836.9,384.5z"/>
			</g>
		</g>
		<g>
			<g>
				<path class="st11" d="M806.8,359.1l-11.5-19.3c-0.5-0.8-0.6-1.8-0.4-2.7c0.3-0.9,0.9-1.7,1.7-2.1l18.5-9.7l3.2,6.1l-15.3,8
					l9.6,16.2L806.8,359.1z"/>
			</g>
		</g>
		<g>
			<g>
				<path class="st12" d="M840.1,264c0,0-4.5-5.5-6.6-7.2c-3.7-3.2-6.8,0.3-6.8,0.3c-18.7-2.9-22.2,23.8-13.7,30.4
					c6.9,5.4,12.6,1.7,12.6,1.7s3.9,2.9,9.8,3.8c3.7,0.6,8.1-1.9,8.1-1.9s5.2,3.7,9.2-1.8c4-5.5-1.9-11.3-5-11.4
					c0,0,3.8-4.5-1.4-7.5C844.4,269.3,840.1,264,840.1,264z"/>
			</g>
		</g>
		<g>
			<g>
				<path class="st11" d="M817,297.1c-1.3-0.6-2.3-2.5-0.8-4.3c1.5-1.7,3.8-2.7,6.2-2.8l0.6,0c2.2-0.1,4.1,0.9,5.4,2.4
					C827.5,295.6,820.4,298.4,817,297.1z"/>
			</g>
		</g>
		<g>
			<g>
				<path class="st11" d="M820.8,285.1l-0.1,2.8l-0.1,5.2l4,0.1l0.1-6.6l0.1-2.6C823.6,284.8,822.2,285.2,820.8,285.1z"/>
			</g>
		</g>
		<g>
			<g>
				<g>
					<path class="st11" d="M820.8,285.1l-0.1,2.8c1.4-0.2,3.1-0.8,4-1.9l0-2.1C823.6,284.8,822.2,285.2,820.8,285.1z"/>
				</g>
			</g>
		</g>
		<g>
			<g>
				<path class="st11" d="M818.6,285.1L818.6,285.1c3.4,1.7,7.2,1.6,10.3,0c2.2-1.1,4-2.8,5.2-5.2l2-4.1c1.5-3,1.6-6.2,0.6-9.1
					c-1-2.7-2.9-5-5.7-6.4l0,0c-1.8-0.9-3.8-1.3-5.7-1.2c-4.1,0.2-7.9,2.5-9.9,6.4l-2,4.1c-1.9,3.7-1.5,8,0.5,11.3
					C815,282.6,816.6,284.1,818.6,285.1z"/>
			</g>
		</g>
		<g>
			<g>
				<path class="st12" d="M831.4,273.1c-8.3,1.4-9.2-7.6-8.8-11.3c1-7.7,11.1-6.2,14.6-2.4c2.2,2.4,6.1,8.8,4.4,16.8
					c-1.7,8-9.8,13-9.8,13c-9-6.6,0.3-12.9,0.3-12.9L831.4,273.1z"/>
			</g>
		</g>
		<g>
			<g>
				<path class="st1" d="M813.4,324.9c-1.3,5.9,2.4,11.8,8.3,13.2c5.9,1.3,11.8-2.4,13.2-8.3c1.3-5.9-2.4-11.8-8.3-13.2
					C820.6,315.3,814.7,319,813.4,324.9z"/>
			</g>
		</g>
		<g>
			<g>
				<path class="st13" d="M819.5,278.8c-0.9,1.2-2.5,1.6-3.9,0.9c-1.4-0.7-2-2.2-1.6-3.6L819.5,278.8z"/>
			</g>
		</g>
		<g>
			<g>
				<path class="st1" d="M805.3,330.5c14.5,12.6,32.5,18.8,32.5,18.8s3.1-18.4-3.7-26.4c-3.4-4-21,1.8-21,1.8L805.3,330.5z"/>
			</g>
		</g>
		<g>
			<g>
				<path class="st1" d="M811.2,298.9c-0.8,2.1,1.3,4.2,3.5,4.4s4.2-1.3,4.4-3.5c0.2-2.2-3-7-4.3-5.2
					C813.7,296.4,811.8,297.2,811.2,298.9z"/>
			</g>
		</g>
		<g>
			<g>
				<path class="st1" d="M828.5,292.4c0.9,1.1,1.6,2.5,1.6,4.1c0,0-1,18.1,4,26.4c2.1,3.6-21.1,3.5-21.1,3.5l0.6-26.7
					c-0.1-2.7,0.9-5.1,2.6-6.8C816.4,296.8,824.6,292,828.5,292.4z"/>
			</g>
		</g>
		<g>
			<g>
				<path class="st1" d="M825.1,299c-4.1,0-32-1.3-47.4-35.6l6.3-2.8c14.4,32,40.3,31.6,41.4,31.6l0.2,6.9
					C825.5,299,825.3,299,825.1,299z"/>
			</g>
		</g>
		<g>
			<g>
				<path class="st11" d="M783.7,255.1c-1.2-0.8-2.6-1-4-0.8l-4.7,7.6c0.4,1.3,1.3,2.4,2.5,3.2c2.8,1.7,6.4,0.8,8.1-1.9
					C787.3,260.4,786.5,256.8,783.7,255.1z"/>
			</g>
		</g>
		<g>
			<g>
				<g>
					<path class="st12" d="M808.2,361c0.7,2.4,3.2,3.7,5.6,3c2.4-0.7,3.7-3.2,3-5.6c-0.7-2.4-3.2-3.7-5.6-3
						C808.9,356.1,807.5,358.6,808.2,361z"/>
				</g>
			</g>
			<g>
				<g>
					<path class="st12" d="M797.4,368.9l16.2-4.8c1.7-0.5,2.7-2.3,2.2-4l0,0c-0.5-1.7-3.9-4.8-5.6-4.3L796,365
						c-1.6,1-1.2,3.6,0.7,3.9C796.9,368.9,797.2,368.9,797.4,368.9z"/>
				</g>
			</g>
		</g>
		<g>
			<g>
				<g>
					<path class="st12" d="M837.4,388.3c1.5,2,4.3,2.3,6.3,0.8c2-1.5,2.3-4.3,0.8-6.3c-1.5-2-4.3-2.3-6.3-0.8
						C836.2,383.6,835.9,386.4,837.4,388.3z"/>
				</g>
			</g>
			<g>
				<g>
					<path class="st12" d="M830.2,399.6l13.4-10.4c1.4-1.1,1.7-3.1,0.6-4.6l0,0c-1.1-1.4-5.3-3.1-6.8-2l-10,13.9
						c-1.1,1.5,0.2,3.7,2,3.4C829.7,399.8,830,399.7,830.2,399.6z"/>
				</g>
			</g>
		</g>
		<g>
			<g>
				<path class="st14" d="M820.4,324.2c-1.8,0-3.7-0.2-5.6-0.6l0.2-1c9.4,2,16.7-2,16.8-2l0.5,0.9
					C831.9,321.6,827.2,324.2,820.4,324.2z"/>
			</g>
		</g>
	</g>
	<g>
		<g>
			<g>
				<path class="st5" d="M756.7,459.5l2-2l3.4,3.4c0.7,0.7,1.7,1.2,2.3,0.6l3-3l-2.3-2.3c-0.7-0.7-0.5-1.2,0.1-1.8l3.2-3.2
					c0.6-0.6,1.2-0.9,1.8-0.2l2.3,2.3l2.6-2.6c0.6-0.6,0.4-2.1-0.2-2.7l-3.4-3.4l1.6-1.6c0.6-0.6,0.7-1.6,0-2.3l-3.7-3.7
					c-0.7-0.7-1.7-0.5-2.3,0.1l-1.6,1.6l-3-3c-0.7-0.7-1.9-0.5-2.4,0.1l-2.6,2.6l1.6,1.6c0.7,0.7,1.1,1.9,0.5,2.5l-3.2,3.2
					c-0.6,0.6-1.8,0.1-2.5-0.6l-1.6-1.6l-3,3c-0.6,0.6-0.3,1.4,0.4,2l3,3l-2,2c-0.6,0.6-0.7,1.5,0,2.2l3.7,3.7
					C755.1,460.2,756.1,460.1,756.7,459.5z"/>
			</g>
		</g>
		<g>
			<g>
				<path class="st15" d="M754.8,435.5l-2.1-2.1l3.5-3.5c0.7-0.7,1.5-1.9,0.9-2.5l-3.1-3.1l-2.5,2.5c-0.7,0.7-0.9,0.5-1.5-0.1
					l-3.2-3.2c-0.6-0.6-1.1-1.1-0.4-1.8l2.5-2.5l-2.5-2.5c-0.6-0.6-2.1-0.1-2.7,0.6l-3.5,3.5l-1.8-1.8c-0.6-0.6-1.7-1-2.4-0.3
					l-3.7,3.7c-0.7,0.7-0.4,2,0.1,2.6l1.8,1.8l-2.9,2.9c-0.7,0.7-0.6,1.5,0,2.1l2.5,2.5l1.5-1.5c0.7-0.7,2.2-1.2,2.8-0.6l3.2,3.2
					c0.6,0.6-0.2,1.8-0.9,2.5l-1.5,1.5l3.1,3.1c0.6,0.6,1.2,0.4,1.9-0.3l2.9-2.9l2.1,2.1c0.6,0.6,1.6,0.6,2.3-0.1l3.7-3.7
					C755.5,437,755.4,436.1,754.8,435.5z"/>
			</g>
		</g>
		<g>
			<g>
				<g>
					<g>
						<path class="st16" d="M760.2,446.2l0,4.2c0,0.2-0.1,0.5-0.3,0.6c-0.2,0.2-0.4,0.3-0.6,0.3l-4.2-0.1l0-1.8l3.3,0.1l0-3.3
							L760.2,446.2z"/>
					</g>
				</g>
				<g>
					<g>
						
							<rect x="751.7" y="434.3" transform="matrix(0.7072 -0.707 0.707 0.7072 -93.3551 662.0679)" class="st16" width="1.8" height="18.9"/>
					</g>
				</g>
			</g>
			<g>
				<g>
					<g>
						<path class="st16" d="M748.7,428.1C748.7,428.1,748.7,428.1,748.7,428.1l4.2,0.1l0,1.8l-3.3-0.1l0,3.3l-1.8,0l0-4.2
							c0-0.2,0.1-0.5,0.3-0.6C748.3,428.2,748.5,428.1,748.7,428.1z"/>
					</g>
				</g>
				<g>
					<g>
						
							<rect x="754.5" y="426.2" transform="matrix(0.707 -0.7072 0.7072 0.707 -86.8108 661.8435)" class="st16" width="1.8" height="18.9"/>
					</g>
				</g>
			</g>
		</g>
	</g>
	<g>
		<path class="st17" d="M769.2,358c-8,0-16.6,6.2-16.6,16.4c0,15.6,16.7,32.2,16.7,32.2s16.7-16.8,16.7-32.2
			C785.9,364.2,776.7,358,769.2,358z M773.4,381.5c-1.1,0.7-2.5,1.1-4.1,1.1c-2.3,0-4-0.8-5.3-2.1c-4.7-4.3-2.9-14.3,5.3-14.3
			C778.2,366.2,779.6,377.9,773.4,381.5z"/>
	</g>
	<g>
		<path class="st17" d="M583,154.6c-5.3,0-11,4.1-11,10.9c0,10.3,11,21.3,11,21.3s11-11.1,11-21.3C594.1,158.6,588,154.6,583,154.6z
			 M585.8,170.1c-0.7,0.4-1.6,0.7-2.7,0.7c-1.5,0-2.7-0.5-3.5-1.4c-3.1-2.9-1.9-9.5,3.5-9.5C589,160,589.9,167.8,585.8,170.1z"/>
	</g>
	<g>
		<g>
			<g>
				<path class="st4" d="M804.5,206c0,10.6-8.6,19.3-19.3,19.3c-10.6,0-19.3-8.6-19.3-19.3c0-10.6,8.6-19.3,19.3-19.3
					C795.8,186.8,804.5,195.4,804.5,206z"/>
			</g>
		</g>
		<g>
			<g>
				<path class="st6" d="M800.3,206c0,8.3-6.8,15.1-15.1,15.1c-8.3,0-15.1-6.8-15.1-15.1c0-8.3,6.8-15.1,15.1-15.1
					C793.5,190.9,800.3,197.7,800.3,206z"/>
			</g>
		</g>
		<g>
			<g>
				<path class="st4" d="M795.4,206c0,5.6-4.6,10.2-10.2,10.2c-5.6,0-10.2-4.6-10.2-10.2c0-5.6,4.6-10.2,10.2-10.2
					C790.8,195.8,795.4,200.4,795.4,206z"/>
			</g>
		</g>
		<g>
			<g>
				<path class="st6" d="M790,206c0,2.6-2.1,4.8-4.8,4.8c-2.6,0-4.8-2.1-4.8-4.8c0-2.6,2.1-4.8,4.8-4.8
					C787.8,201.3,790,203.4,790,206z"/>
			</g>
		</g>
		<g>
			<g>
				<g>
					<path class="st3" d="M813.7,207.6h-28.5c-0.8,0-1.5-0.7-1.5-1.5c0-0.8,0.7-1.5,1.5-1.5h28.5c0.8,0,1.5,0.7,1.5,1.5
						C815.2,206.9,814.5,207.6,813.7,207.6z"/>
				</g>
			</g>
			<g>
				<g>
					<g>
						<polygon class="st3" points="812.9,205.7 817.8,202.8 823.7,202.8 820.4,206 823.7,209.3 817.8,209.3 812.9,206.4 						"/>
					</g>
				</g>
			</g>
		</g>
	</g>
	<g>
		<g>
			<g>
				<path class="st2" d="M932.5,464.8c-3.6,0-6.4-4.6-6.4-10.3c0-5.7,2.9-10.2,6.5-10.2c3.6,0,6.4,4.6,6.4,10.3
					C938.9,460.3,936,464.8,932.5,464.8z"/>
			</g>
		</g>
		<g>
			<g>
				<path class="st2" d="M963.7,469.7c-4.1-2.4-8.7-8.3-7-13.6c4.1-12.2-5.5-16.6-10.2-17.5c-4.7-0.9-8.9,0.3-11.5,2.4
					c-4.3,3.4-3,9.3-0.6,14.1c-2.6,1.5-3.8,4.7-2.3,7.1c3.2,5.2,0.4,12.2-1.5,16.3c-3.1,6.7,1.2,15,8.8,18.8
					c7.5,3.8,17.3,3.4,24.9,0c3.8-1.7,7.1-4.1,8.9-7.4C976.8,482.8,971.5,474.1,963.7,469.7z"/>
			</g>
		</g>
		<g>
			<g>
				<path class="st11" d="M911.8,516.5c-1.8,0.3-3.7,0.4-5.7,0.5c-1.4,0-2.7-1.1-2.7-2.6c0-1.4,1.1-2.7,2.6-2.7
					c9.2-0.3,16.1-3,20.5-8.1c6.7-7.8,5.4-18.6,5.4-18.7c-0.2-1.4,0.9-2.7,2.3-2.9c1.4-0.2,2.8,0.8,2.9,2.3
					c0.1,0.5,1.6,13.3-6.6,22.8C926.1,512.2,919.8,515.4,911.8,516.5z"/>
			</g>
		</g>
		<g>
			<path class="st5" d="M933.9,480.1c-2.5,0.4-4.2,2.6-3.9,5.1c0,0.1,1.1,10.2-4.9,17.2c-3,3.5-7.3,5.7-12.8,6.7
				c1.6,2.7,1.9,6.2,0.6,9.1c8.1-1.3,14.6-4.6,19.1-9.9c8.7-10.2,7.1-23.7,7.1-24.3C938.7,481.6,936.4,479.8,933.9,480.1z"/>
		</g>
		<g>
			<g>
				<path class="st11" d="M934.6,484.6c-1.3-0.7-2.4-2.7-0.8-4.6c1.6-1.8,4-2.9,6.7-3l0.7,0c2.3-0.1,4.4,0.9,5.8,2.6
					C945.8,483,938.2,486,934.6,484.6z"/>
			</g>
		</g>
		<g>
			<g>
				<path class="st11" d="M939,471.8l-0.1,3l-0.1,5.6l4.3,0.1l0.1-7.1l0.1-2.8C942,471.4,940.6,471.8,939,471.8z"/>
			</g>
		</g>
		<g>
			<g>
				<g>
					<path class="st11" d="M939,472.5l-0.1,3c1.5-0.2,3.4-0.9,4.3-2l0-2.2C942,472.1,940.6,472.5,939,472.5z"/>
				</g>
			</g>
		</g>
		<g>
			<g>
				<path class="st11" d="M940.1,474L940.1,474c4,0,7.6-2,9.9-5c1.5-2.1,2.4-4.7,2.4-7.5l0-4.9c0-3.5-1.6-6.7-4-9
					c-2.2-2.1-5.3-3.3-8.6-3.3l0,0c-2.2,0-4.2,0.6-6,1.6c-3.8,2.2-6.3,6.2-6.3,10.9l0,4.9c0,4.5,2.5,8.4,6.1,10.5
					C935.5,473.4,937.7,474,940.1,474z"/>
			</g>
		</g>
		<g>
			<g>
				<path class="st12" d="M930.7,514.4c-1.4,6.3,2.5,12.6,8.9,14.1c6.3,1.4,12.6-2.5,14.1-8.9c1.4-6.3-2.5-12.6-8.9-14.1
					C938.4,504,932.1,508,930.7,514.4z"/>
			</g>
		</g>
		<g>
			<g>
				<path class="st13" d="M939.3,467.6c-0.3,1.5-1.6,2.7-3.2,2.7c-1.6,0-3-1.1-3.3-2.7L939.3,467.6z"/>
			</g>
		</g>
		<g>
			<g>
				<path class="st5" d="M928.3,486.6c-0.8,2.2,1.4,4.5,3.8,4.7c2.3,0.3,4.5-1.4,4.7-3.8c0.3-2.3-3.2-7.5-4.6-5.5
					C931,483.8,929,484.7,928.3,486.6z"/>
			</g>
		</g>
		<g>
			<g>
				<path class="st5" d="M946.9,479.6c1,1.2,1.7,2.7,1.7,4.4c0,0-1.1,19.3,4.2,28.2l-22.5,1.9l0.6-26.8c-0.1-2.8,1-5.4,2.8-7.3
					C933.9,484.3,942.8,479.1,946.9,479.6z"/>
			</g>
		</g>
		<g>
			<g>
				<g>
					<g>
						<path class="st2" d="M931.7,565.9c-2.1,0.1-3.1,2.1-3.3,2.6c-1,3-0.6,6.2-2.6,11.4c-1.3,3.5-2.7,4.2-3.6,7.1
							c-0.8,2.5,1.4,3.3,3.7,2.4c0.9-0.3,6.4-1.8,6.5-6.2c0.1-3.2-0.3-5.6,0.7-8.4c1-2.7,1.9-1.2,2.2-0.4c0.2,0.6,1,2.3,1.2,2.9
							c0.1,0.2,0.3,0.3,0.5,0.2l0,0c0.2-0.1,0.3-0.3,0.2-0.5c-0.3-0.6-0.9-2.8-1.1-5.5C936,568,933.6,565.8,931.7,565.9z"/>
					</g>
				</g>
			</g>
			<g>
				<g>
					<g>
						<path class="st11" d="M929.6,581c1.1-2.6,2.5-10.4,1.8-12.2c-0.8-2-5.1-2.2-5.3-0.4c-0.5,3.2,0.9,8.7-1.8,14.6
							C924.7,584.6,928.2,584,929.6,581z"/>
					</g>
				</g>
			</g>
		</g>
		<g>
			<g>
				<path class="st12" d="M945.8,527.8l-27.7,12.9l2.6-6.3l10.3,33.3c0.6,2-0.5,4.2-2.5,4.8c-1.9,0.6-4-0.4-4.7-2.3l-12.6-32.5
					c-0.9-2.4,0.2-5.1,2.4-6.2l0.2-0.1l27.6-13.2c2.6-1.3,5.7-0.1,7,2.5C949.6,523.4,948.5,526.5,945.8,527.8
					C945.9,527.8,945.8,527.8,945.8,527.8z"/>
			</g>
		</g>
		<g>
			<g>
				<g>
					<g>
						<path class="st2" d="M913.1,555.4c-1.9-0.9-3.7,0.4-4.1,0.8c-2.3,2.2-3.4,5.2-7.6,8.9c-2.8,2.5-4.3,2.5-6.5,4.6
							c-1.9,1.8-0.2,3.5,2.1,3.8c0.9,0.1,6.5,1.4,8.6-2.4c1.6-2.8,2.4-5.1,4.6-7.1c2.2-2,2.2-0.2,2.1,0.7c-0.1,0.6-0.2,2.5-0.3,3.1
							c0,0.2,0.1,0.4,0.4,0.4l0,0c0.2,0,0.4-0.1,0.4-0.4c0-0.7,0.5-2.9,1.6-5.4C915.9,559.3,914.8,556.2,913.1,555.4z"/>
					</g>
				</g>
			</g>
			<g>
				<g>
					<g>
						<path class="st11" d="M904.1,567.8c2.2-1.7,7.1-8.1,7.3-9.9c0.2-2.2-3.4-4.3-4.5-2.8c-1.9,2.6-3.3,8.1-8.3,12.1
							C898.1,568.7,901.6,569.8,904.1,567.8z"/>
					</g>
				</g>
			</g>
		</g>
		<g>
			<g>
				<path class="st12" d="M943.9,528.6l-30.5-1.5l5.2-4.3l-6.4,34.3c-0.4,2.1-2.4,3.4-4.5,3.1c-2-0.4-3.3-2.2-3.1-4.2l4-34.6
					c0.3-2.6,2.5-4.4,5-4.3l0.2,0l30.6,1.2c2.9,0.1,5.2,2.6,5,5.4C949.3,526.5,946.8,528.7,943.9,528.6
					C943.9,528.6,943.9,528.6,943.9,528.6z"/>
			</g>
		</g>
		<g>
			<g>
				<path class="st11" d="M946.1,517c-1.3,0.2-2.8,0.4-4.3,0.5c-1.4,0.1-2.7-1-2.8-2.4c-0.1-1.4,1-2.7,2.4-2.8
					c4.9-0.3,11-1.5,12.6-5.4c2.5-6.2-6.1-17.4-9.2-20.9c-1-1.1-0.9-2.7,0.2-3.7c1.1-1,2.7-0.9,3.7,0.1c1.5,1.6,14.4,16,10.2,26.4
					C957.1,513.1,952.8,515.8,946.1,517z"/>
			</g>
		</g>
		<g>
			<path class="st5" d="M950,481.1c-1-1.1-2.6-1.7-4.1-1.4c-1,0.2-2,0.7-2.7,1.5c-1.5,1.8-1.4,4.5,0.2,6.2c3.6,4,10.6,14,8.7,18.7
				c-0.3,0.8-1,1.5-1.9,2c-1.6,1-2.5,2.8-2.2,4.7c0,0,0,0.1,0,0.1c0.6,3,3.9,4.7,6.5,3.1c2.8-1.6,4.8-3.8,5.9-6.6
				C965.1,498.3,952.6,483.8,950,481.1z"/>
		</g>
		<g>
			<g>
				<path class="st11" d="M930.6,514.4c0.1,1.5,0.8,2.9,1.8,3.9l9.6-0.8c0.8-1.2,1.3-2.6,1.2-4.2c-0.3-3.5-3.3-6.1-6.8-5.8
					C932.9,507.9,930.3,511,930.6,514.4z"/>
			</g>
		</g>
		<g>
			<g>
				<path class="st11" d="M897.9,515.6c0.1,1.6,0.7,2.9,1.7,4l9.6-0.4c0.9-1.1,1.4-2.6,1.3-4.1c-0.1-3.5-3.1-6.2-6.6-6.1
					C900.5,509.2,897.8,512.1,897.9,515.6z"/>
			</g>
		</g>
		<g>
			<g>
				<path class="st2" d="M954.5,454.1c-1.4,4-7.6,5.4-13.9,3.2c-6.3-2.2-10.3-7.2-8.9-11.2c1.4-4,7.6-5.4,13.9-3.2
					C951.8,445.2,955.8,450.2,954.5,454.1z"/>
			</g>
		</g>
		<g>
			<g>
				<path class="st12" d="M947.8,518.1c0-0.9-0.7-1.6-1.6-1.6h-57.2c-1.2,0-2.2,0.7-2.2,1.6c0,0.9,1,1.6,2.2,1.6h57.2
					C947.1,519.6,947.8,518.9,947.8,518.1L947.8,518.1z"/>
			</g>
			<g>
				<path class="st4" d="M950.1,518.1c0,0.9-0.8,1.6-1.7,1.6h-21.7c-0.9,0-1.7-0.7-1.7-1.6c0-0.9,0.8-1.6,1.7-1.6h21.7
					C949.3,516.5,950.1,517.2,950.1,518.1z"/>
			</g>
			<g>
				<path class="st4" d="M887,486.9v28.8c0,1.3,1,2.3,2.3,2.3h38c1.3,0,2.3-1,2.3-2.3v-28.8c0-1.3-1-2.3-2.3-2.3h-38
					C888,484.6,887,485.6,887,486.9z"/>
			</g>
			<g>
				<path class="st2" d="M885.2,486.9v28.8c0,1.3,1,2.3,2.3,2.3h38c1.3,0,2.3-1,2.3-2.3v-28.8c0-1.3-1-2.3-2.3-2.3h-38
					C886.3,484.6,885.2,485.6,885.2,486.9z"/>
			</g>
			<g>
				<path class="st4" d="M912.8,501.3L912.8,501.3c0-1.4-1.1-2.4-2.5-2.4h-7.6c-1.4,0-2.5,1.1-2.5,2.4l0,0c0,1.4,1.1,2.5,2.5,2.5
					h7.6C911.7,503.8,912.8,502.7,912.8,501.3z"/>
			</g>
		</g>
	</g>
	<g>
		<g>
			<g>
				<g>
					<path class="st1" d="M628.2,512.5c-1.3,0-2.6-0.6-3.4-1.7L610,490.6c-1.1-1.6-1.1-3.7,0.1-5.2l19.3-23.4c1.5-1.8,4.2-2.1,6-0.6
						c1.8,1.5,2.1,4.2,0.6,6l-17.2,20.8l12.8,17.5c1.4,1.9,1,4.6-0.9,5.9C629.9,512.2,629.1,512.5,628.2,512.5z"/>
				</g>
			</g>
		</g>
		<g>
			<g>
				<g>
					<path class="st1" d="M656.5,512.4c-0.9,0-1.8-0.3-2.5-0.8c-1.9-1.4-2.3-4.1-0.9-5.9l12.8-17.6l-17.1-20.8
						c-1.5-1.8-1.2-4.5,0.6-6c1.8-1.5,4.5-1.2,6,0.6l19.2,23.3c1.2,1.5,1.3,3.7,0.1,5.2l-14.8,20.2
						C659.1,511.8,657.8,512.4,656.5,512.4z"/>
				</g>
			</g>
		</g>
		<g>
			<g>
				<g>
					<path class="st3" d="M655.1,437.9c0,6.8-5.5,12.3-12.3,12.3c-6.8,0-12.3-5.5-12.3-12.3s5.5-12.3,12.3-12.3
						C649.6,425.6,655.1,431.1,655.1,437.9z"/>
				</g>
			</g>
		</g>
		<g>
			<g>
				<g>
					<polygon class="st11" points="647.3,451 647.2,462.6 647.2,470.3 638.3,470.3 638.7,451.6 638.8,446.3 					"/>
				</g>
			</g>
		</g>
		<g>
			<g>
				<g>
					<path class="st1" d="M629.4,469.3c0-3.6,3.2-7.2,6.4-8.9c4.9-2.5,12.4-0.8,14.8,0.7c4.1,2.4,6.5,7.4,6.2,12.5l0.3,27.2h-28.9
						C628.3,500.7,629.4,477.6,629.4,469.3z"/>
				</g>
			</g>
		</g>
		<g>
			<path class="st0" d="M643.2,477.5c2.1-6.5,4.5-11.1,6.6-16.9c-6.4-2.4-12.7-1.1-14,0c2.1,5.8,4.4,10.4,6.6,16.9
				c0.1,0.5,0.4,1.2,0.4,1.2c0,0,0,0,0,0C642.8,478.7,643.1,478,643.2,477.5z"/>
		</g>
		<g>
			<polygon class="st16" points="643.5,461 642.8,461 642,461 640.5,469.9 641.6,475.2 642.8,478.7 644,475.2 645,469.9 			"/>
		</g>
		<g>
			<g>
				<g>
					<path class="st11" d="M645.1,428.5h-4.7c-4.1,0-8,3.4-7.5,7.5c0.4,3,0,5.2,0,9.6c0,3.7,4.3,10.9,8,10.9h3.5c3.7,0,8-7.2,8-10.9
						c0-4.4-0.4-6.6,0-9.6C653.1,431.8,649.2,428.5,645.1,428.5z"/>
				</g>
			</g>
		</g>
		<g>
			<g>
				<g>
					<path class="st13" d="M639,450.1c0.3,1.8,1.9,3.1,3.8,3.1c1.9,0,3.4-1.4,3.8-3.1H639z"/>
				</g>
			</g>
		</g>
		<g>
			<g>
				<g>
					<path class="st12" d="M647.4,526.8h-9.3c-6.7,0-11.7-6.1-10.4-12.7l0.6-13.4h28.9l0.6,13.4
						C659.1,520.7,654.1,526.8,647.4,526.8z"/>
				</g>
			</g>
		</g>
		<g>
			<g>
				<g>
					<g>
						<path class="st16" d="M661.8,517.5h-36.7c-1.6,0-2.9-1.3-2.9-2.9v-20.5c0-1.6,1.3-2.9,2.9-2.9h36.7c1.6,0,2.9,1.3,2.9,2.9
							v20.5C664.6,516.3,663.4,517.5,661.8,517.5z"/>
					</g>
				</g>
			</g>
			<g>
				<g>
					<g>
						<path class="st4" d="M661.8,518.8h-36.7c-1.6,0-2.9-1.3-2.9-2.9v-20.5c0-1.6,1.3-2.9,2.9-2.9h36.7c1.6,0,2.9,1.3,2.9,2.9v20.5
							C664.6,517.5,663.4,518.8,661.8,518.8z"/>
					</g>
				</g>
			</g>
			<g>
				<g>
					<g>
						<path class="st16" d="M647.7,507.8h-8.5c-1.2,0-2.2-1-2.2-2.2v0c0-1.2,1-2.2,2.2-2.2h8.5c1.2,0,2.2,1,2.2,2.2v0
							C649.8,506.9,648.9,507.8,647.7,507.8z"/>
					</g>
				</g>
			</g>
		</g>
		<g>
			<path class="st15" d="M643.9,461.5c-0.4,0.4-2,0.4-2.4-0.1c-0.4-0.4-0.5-2.3-0.5-2.3l3.6,0.1
				C644.6,459.3,644.3,461.2,643.9,461.5z"/>
		</g>
		<g>
			<polygon class="st4" points="638.9,463.8 635.9,460.2 638.4,456.9 642.8,459.2 			"/>
		</g>
		<g>
			<polygon class="st4" points="646.6,463.8 649.6,460.2 647.1,456.9 642.8,459.2 			"/>
		</g>
		<g>
			<g>
				<g>
					<g>
						<path class="st1" d="M647.8,558.6l2.5-9.3l-0.2,0c-0.6,0-1-0.6-0.9-1.1c0.1-0.4,0.5-0.7,0.9-0.7l0.6,0l0.3-1.1l-0.3,0
							c-0.6,0-1-0.6-0.9-1.1c0.1-0.4,0.5-0.7,0.9-0.7l0.7,0l1.6-5.9c0.1-0.1,0.2-0.2,0.3-0.3c0.1-0.2,0.2-0.4,0.3-0.7
							c1.5-2.5,4.9-3.3,7.4-1.8c2.5,1.5,3.3,4.9,1.8,7.4c0,0,0,0,0,0.1c0,0,0,0,0,0l-10.6,17.4c-0.2,0.3-0.4,0.5-0.7,0.7
							C649.6,562.7,647.2,560.8,647.8,558.6z"/>
					</g>
				</g>
			</g>
			<g id="_x38_._Right_shoe_68_">
				<g>
					<g>
						<g>
							<path class="st3" d="M654.2,544.8c2.5,1.5,5.9,0.7,7.4-1.8c1.5-2.5,0.7-5.9-1.8-7.4c-2.5-1.5-5.9-0.7-7.4,1.8
								C650.9,540,651.7,543.3,654.2,544.8z"/>
						</g>
					</g>
				</g>
				<g>
					<g>
						<g>
							<path class="st2" d="M651,560.5l10.6-17.4c1.1-1.8,0.5-4.2-1.3-5.4l0,0c-1.8-1.1-7.3-1.2-8.4,0.7l-5.3,19.9
								c-0.6,2.2,1.8,4.1,3.7,2.9C650.6,561,650.8,560.8,651,560.5z"/>
						</g>
					</g>
				</g>
				<g>
					<g>
						<g>
							<path class="st4" d="M652.5,545.4L652.5,545.4c0.1-0.6-0.3-1.1-0.9-1.1l-2.1-0.1c-0.4,0-0.8,0.3-0.9,0.7l0,0
								c-0.1,0.6,0.3,1.1,0.8,1.1l2.1,0.1C652,546.2,652.4,545.9,652.5,545.4z"/>
						</g>
					</g>
				</g>
				<g>
					<g>
						<g>
							<path class="st4" d="M651.8,548.3L651.8,548.3c0.1-0.6-0.3-1.1-0.8-1.1l-2.1-0.1c-0.4,0-0.8,0.3-0.9,0.7l0,0
								c-0.1,0.6,0.3,1.1,0.8,1.1l2.1,0.1C651.4,549,651.8,548.7,651.8,548.3z"/>
						</g>
					</g>
				</g>
			</g>
		</g>
		<g>
			<g>
				<g>
					<path class="st12" d="M628.4,511.6l32.3,23.1l-10.1,8.7l-29-22.2c-2.6-1.9-3.2-5.6-1.4-8.2l0.1-0.1
						C622.1,510.3,625.8,509.7,628.4,511.6z"/>
				</g>
			</g>
		</g>
		<g>
			<g>
				<g>
					<g>
						<path class="st1" d="M645.6,573.6l0.6-9.7l0.2,0.1c0.5,0.2,1.1-0.2,1.2-0.8c0-0.4-0.2-0.8-0.6-1l-0.6-0.2l0.1-1.1l0.3,0.1
							c0.5,0.2,1.1-0.2,1.2-0.8c0-0.4-0.2-0.8-0.6-1l-0.7-0.2l0.4-6.1c0-0.1-0.1-0.3-0.1-0.4c0-0.2-0.1-0.5-0.1-0.7
							c-0.7-2.9-3.5-4.7-6.4-4.1c-2.9,0.7-4.7,3.5-4.1,6.4c0,0,0,0,0,0.1c0,0,0,0,0,0l4.5,19.9c0.1,0.3,0.2,0.6,0.4,0.9
							C642.6,576.9,645.5,575.9,645.6,573.6z"/>
					</g>
				</g>
			</g>
			<g id="_x38_._Right_shoe_67_">
				<g>
					<g>
						<g>
							<path class="st1" d="M644,558.5c-2.9,0.7-5.8-1.2-6.4-4.1c-0.7-2.9,1.2-5.8,4.1-6.4c2.9-0.7,5.8,1.2,6.4,4.1
								C648.7,555,646.9,557.9,644,558.5z"/>
						</g>
					</g>
				</g>
				<g>
					<g>
						<g>
							<path class="st2" d="M642,574.5l-4.5-19.9c-0.5-2.1,0.9-4.2,3-4.7l0,0c2.1-0.5,7.3,1.2,7.8,3.3l-1.4,20.5
								c-0.1,2.3-3,3.3-4.5,1.6C642.3,575.1,642.1,574.8,642,574.5z"/>
						</g>
					</g>
				</g>
				<g>
					<g>
						<g>
							<path class="st4" d="M645.4,559.7L645.4,559.7c0.1-0.6,0.6-0.9,1.2-0.8l2,0.6c0.4,0.1,0.7,0.5,0.6,1l0,0
								c-0.1,0.6-0.6,0.9-1.2,0.8l-2-0.6C645.6,560.5,645.4,560.1,645.4,559.7z"/>
						</g>
					</g>
				</g>
				<g>
					<g>
						<g>
							<path class="st4" d="M645.1,562.6L645.1,562.6c0.1-0.6,0.6-0.9,1.2-0.8l2,0.6c0.4,0.1,0.7,0.5,0.6,1l0,0
								c-0.1,0.6-0.6,0.9-1.2,0.8l-2-0.6C645.4,563.4,645.1,563,645.1,562.6z"/>
						</g>
					</g>
				</g>
			</g>
		</g>
		<g>
			<g>
				<g>
					<path class="st12" d="M651.8,516.7l-15.3,36.6l12.3,1.5l14-33.5c1.3-3-0.2-6.4-3.2-7.7l-0.1,0
						C656.5,512.3,653,513.7,651.8,516.7z"/>
				</g>
			</g>
		</g>
		<g>
			<g>
				<g>
					<path class="st3" d="M642.2,433.6c6.3-3.5,10.6-0.1,12.5,3.6c-1-5.8-5.9-10.1-12-10.1c-5.8,0-10.6,4-11.8,9.4
						C634.8,437.5,638.3,435.8,642.2,433.6z"/>
				</g>
			</g>
		</g>
	</g>
	<g>
		<g>
			<path class="st4" d="M905.5,363.1c-5.2,0-10.4-1.8-14.4-5.5c-6-5.6-15.8-5.6-21.8,0c-1,1-2.7,0.9-3.6-0.1c-1-1-0.9-2.7,0.1-3.6
				c7.9-7.4,20.9-7.4,28.8,0c6,5.6,15.8,5.6,21.9,0c7.9-7.4,20.9-7.4,28.8,0c6,5.6,15.8,5.6,21.8,0c7.9-7.4,20.9-7.4,28.8,0
				c1,1,1.1,2.6,0.1,3.6c-1,1-2.6,1.1-3.6,0.1c-6-5.6-15.8-5.6-21.8,0c-7.9,7.4-20.9,7.4-28.8,0c-6-5.6-15.8-5.6-21.8,0
				C916,361.2,910.7,363.1,905.5,363.1z"/>
		</g>
	</g>
	<g>
		<g>
			<path class="st4" d="M849.8,230.3c-3.5,0-7-1.2-9.7-3.7c-4-3.8-10.6-3.8-14.7,0c-0.7,0.6-1.8,0.6-2.4-0.1
				c-0.6-0.7-0.6-1.8,0.1-2.4c5.3-5,14-4.9,19.3,0c4,3.8,10.6,3.8,14.7,0c5.3-5,14-5,19.3,0c4,3.8,10.6,3.8,14.7,0
				c5.3-5,14-4.9,19.3,0c0.7,0.6,0.7,1.7,0.1,2.4c-0.6,0.7-1.7,0.7-2.4,0.1c-4-3.8-10.6-3.8-14.7,0c-5.3,4.9-14,5-19.3,0
				c-4-3.8-10.6-3.8-14.7,0C856.8,229,853.3,230.3,849.8,230.3z"/>
		</g>
	</g>
	<g>
		<path class="st6" d="M1036.8,623.4H326.1c-2.3,0-4.1-1.8-4.1-4.1s1.8-4.1,4.1-4.1h710.8c2.3,0,4.1,1.8,4.1,4.1
			S1039.1,623.4,1036.8,623.4z"/>
	</g>
	<g>
		<g>
			<g>
				<path class="st4" d="M485.5,272c-1.1-1.6,0.4-4.3-0.5-7.5c-2.9-9.7,0.5-13.9,0.5-13.9c-0.1-3.6,2.9-6.7,7.4-8.3
					c2.1-0.8,4.5-1.2,7.1-1.2c3.9,0,7.5,0.9,10.1,2.5c2.8,1.7,4.9,4.1,4.7,6.8c-0.2,1.9-2.2,4.4-0.1,7.7c5.2,8,2.9,12.6,0.2,14
					c-2.5,1.3-5.4,1.4-6.9,2.3C500.3,278.6,489.5,277.7,485.5,272z"/>
			</g>
		</g>
		<g>
			<path class="st11" d="M461.7,307.5c-1.8-0.2-3.6-0.5-5.4-0.9c-1.4-0.3-2.2-1.7-1.9-3.1c0.3-1.4,1.7-2.2,3.1-1.9
				c8.7,2,15.9,1.2,21.2-2.6c8.2-5.7,9.6-16.2,9.7-16.3c0.2-1.4,1.5-2.4,2.9-2.2c1.4,0.2,2.4,1.5,2.2,2.9
				c-0.1,0.5-1.8,12.8-11.8,19.8C476.2,306.9,469.5,308.4,461.7,307.5z"/>
		</g>
		<g>
			<path class="st12" d="M487.1,286.6c-0.5,0-1,0.1-1.4,0.1c0.9-2.4,1.1-4.2,1.1-4.2c0.3-2,2-3.5,4-3.5c0.2,0,0.3,0,0.5,0
				c2.2,0.3,3.8,2.3,3.5,4.5c0,0.3-0.5,3.2-2,7C492.1,288.4,490.1,286.6,487.1,286.6z"/>
		</g>
		<g>
			<g>
				<path class="st11" d="M491.9,284.5c-1.3-0.7-2.4-2.6-0.8-4.5c1.5-1.8,3.9-2.8,6.5-2.9l0.7,0c2.3-0.1,4.3,0.9,5.7,2.5
					C502.8,283,495.4,285.8,491.9,284.5z"/>
			</g>
		</g>
		<g>
			<g>
				<path class="st11" d="M496.2,272l-0.1,2.9l-0.1,5.4l4.2,0.1l0.1-6.9l0.1-2.7C499.1,271.6,497.7,272.1,496.2,272z"/>
			</g>
		</g>
		<g>
			<g>
				<g>
					<path class="st11" d="M496.2,272.7l-0.1,2.9c1.5-0.2,3.3-0.9,4.2-2l0-2.1C499.1,272.3,497.7,272.8,496.2,272.7z"/>
				</g>
			</g>
		</g>
		<g>
			<g>
				<path class="st11" d="M497.2,274.2L497.2,274.2c3.9,0,7.4-2,9.6-4.9c1.5-2,2.4-4.6,2.3-7.3l0-4.7c0-3.4-1.5-6.5-3.8-8.7
					c-2.2-2-5.1-3.3-8.3-3.2l0,0c-2.1,0-4.1,0.6-5.8,1.6c-3.7,2.1-6.1,6.1-6.1,10.6l0,4.7c0,4.4,2.4,8.2,5.9,10.2
					C492.8,273.6,494.9,274.2,497.2,274.2z"/>
			</g>
		</g>
		<g>
			<g>
				<path class="st2" d="M484.3,313.4c-1.4,6.2,6.2,12.3,12.4,13.7s12.3-2.5,13.7-8.6c1.4-6.2-2.5-12.3-8.6-13.7
					C495.6,303.4,485.7,307.2,484.3,313.4z"/>
			</g>
		</g>
		<g>
			<g>
				<path class="st13" d="M496.4,267.9c-0.3,1.5-1.6,2.6-3.1,2.7c-1.6,0-2.9-1.1-3.2-2.6L496.4,267.9z"/>
			</g>
		</g>
		<g>
			<g>
				<path class="st12" d="M485.1,287.3c-0.8,2.2,1.4,4.8,3.7,5c2.3,0.2,5.1-2.7,5.3-5c0.2-2.3-3.2-7.3-4.4-5.4
					C488.4,283.7,485.8,285.4,485.1,287.3z"/>
			</g>
		</g>
		<g>
			<g>
				<path class="st12" d="M503.9,279.6c1,1.2,1.6,2.6,1.7,4.3c0,0-3.7,17.9,4.1,27.4c0,0-14.1,8.5-25.5,2.7c0-8.1,5-13.7,4.2-26.9
					c-0.2-2.8,0.9-5.3,2.7-7.1C491.2,284.2,499.8,279.2,503.9,279.6z"/>
			</g>
		</g>
		<g>
			<g>
				<g>
					<g>
						<path class="st2" d="M488.4,364.6c-2-0.3-3.3,1.4-3.6,1.9c-1.4,2.7-1.7,5.8-4.4,10.4c-1.9,3.1-3.3,3.6-4.6,6.2
							c-1.2,2.2,0.8,3.4,3.1,2.9c0.9-0.2,6.4-0.6,7.2-4.8c0.6-3.1,5.6-4.1,5.7-5.1c0.1-0.7-0.4-2.8-0.1-5.5
							C492.1,367.4,490.2,364.9,488.4,364.6z"/>
					</g>
				</g>
			</g>
			<g>
				<g>
					<g>
						<path class="st11" d="M483.7,378.7c1.5-2.3,4.2-9.6,3.8-11.3c-0.4-2.1-4.5-3-5-1.2c-1,2.9-0.7,8.4-4.2,13.6
							C478.4,381.3,481.9,381.4,483.7,378.7z"/>
					</g>
				</g>
			</g>
		</g>
		<g>
			<g>
				<g>
					<g>
						<path class="st2" d="M425.5,336.2c1.4-1.5,0.8-3.5,0.6-4c-1.3-2.8-3.7-4.8-5.7-9.8c-1.4-3.4-0.9-4.8-2.2-7.4
							c-1.1-2.3-3.2-1.3-4.2,0.7c-0.4,0.8-3.3,5.5-0.5,8.7c2.1,2.3-0.1,6.9,0.7,7.7c0.5,0.5,2.5,1.4,4.5,3.2
							C421.1,337.5,424.2,337.5,425.5,336.2z"/>
					</g>
				</g>
			</g>
			<g>
				<g>
					<g>
						<path class="st11" d="M417,324c0.9,2.6,5.2,9.1,6.8,9.8c1.9,0.9,5-1.8,4-3.3c-1.8-2.5-6.4-5.6-8.4-11.5
							C418.1,318.2,415.9,321,417,324z"/>
					</g>
				</g>
			</g>
		</g>
		<g>
			<path class="st2" d="M472.4,329.9l0.2-0.1l27-12.4c2.6-1.2,5.6-0.1,6.8,2.5c1.2,2.6,0.1,5.6-2.5,6.8c0,0,0,0-0.1,0L480.6,337
				l8.2,28.2l-7.1,2.3l-11.8-31.8C469.1,333.5,470.2,330.9,472.4,329.9z"/>
		</g>
		<g>
			<path class="st11" d="M497.2,314.4c-1.3,0-2.7-0.1-4.2-0.2c-1.4-0.1-2.4-1.4-2.3-2.8c0.1-1.4,1.4-2.4,2.8-2.3
				c4.7,0.5,10.8,0.3,12.9-3.2c3.4-5.5-3-17.7-5.5-21.5c-0.8-1.2-0.4-2.8,0.7-3.5c1.2-0.8,2.8-0.4,3.5,0.7
				c1.2,1.8,11.2,17.7,5.6,26.9C508.4,312.5,503.9,314.4,497.2,314.4z"/>
		</g>
		<g>
			<g>
				<path class="st4" d="M510.5,258.6c0,0-8.5,3.1-13.9-0.7c-5.3-3.7-7.8-9.4-5.4-12.8s8.5-3.1,13.9,0.7
					C510.4,249.5,510.5,258.6,510.5,258.6z"/>
			</g>
		</g>
		<g>
			<path class="st2" d="M499.8,316.2c0,0-4.7,0.1-11.8,0.4c-3.5,0.2-7.7,0.4-12.1,0.6c-4.4,0.3-9.1,0.5-13.9,0.8l-1.8,0.1l-0.4,0
				l-0.1,0l-0.5,0l-0.2,0l-0.9,0.1l-1.7,0.3l-0.1,0l-0.4,0.1l-0.1,0l-0.2,0.1l-0.4,0.1l-0.8,0.2c-2.3,0.6-4.5,1.1-6.6,1.6
				c-2.1,0.5-4.2,1-6.2,1.6c-2,0.5-3.8,1-5.5,1.5c-3.4,0.9-6.3,1.7-8.3,2.3c-2,0.6-3.1,0.9-3.1,0.9l1.4,6.4c0,0,1.2-0.2,3.2-0.5
				c2-0.4,5-0.8,8.4-1.5c1.7-0.3,3.6-0.7,5.6-1c2-0.4,4.1-0.8,6.3-1.2c2.2-0.4,4.4-0.9,6.7-1.3l0.9-0.2l0.4-0.1l0.2,0l0.1,0
				c0.1,0-0.7,0.1-0.3,0.1l0,0l0.1,0l1.8-0.2l0.9-0.1l0.2,0l0,0c0.1,0-0.7,0.1-0.4,0l0.1,0l0.1,0l0.4,0l1.8-0.1
				c4.7-0.2,9.4-0.4,13.9-0.5c4.4-0.2,8.6-0.4,12.1-0.6c7.1-0.4,11.8-0.7,11.8-0.7L499.8,316.2z"/>
		</g>
		<g>
			<g>
				<path class="st12" d="M498.3,319.2c0-0.8-0.7-1.5-1.5-1.5h-55.5c-1.2,0-2.1,0.7-2.1,1.5s1,1.5,2.1,1.5h55.5
					C497.6,320.7,498.3,320,498.3,319.2L498.3,319.2z"/>
			</g>
			<g>
				<path class="st4" d="M500.5,319.2c0,0.8-0.7,1.5-1.7,1.5h-21.1c-0.9,0-1.7-0.7-1.7-1.5s0.7-1.5,1.7-1.5h21.1
					C499.7,317.7,500.5,318.4,500.5,319.2z"/>
			</g>
			<g>
				<path class="st4" d="M439.2,288.9v28c0,1.2,1,2.3,2.3,2.3h36.9c1.2,0,2.3-1,2.3-2.3v-28c0-1.2-1-2.3-2.3-2.3h-36.9
					C440.2,286.7,439.2,287.7,439.2,288.9z"/>
			</g>
			<g>
				<path class="st4" d="M437.5,288.9v28c0,1.2,1,2.3,2.3,2.3h36.9c1.2,0,2.3-1,2.3-2.3v-28c0-1.2-1-2.3-2.3-2.3h-36.9
					C438.5,286.7,437.5,287.7,437.5,288.9z"/>
			</g>
			<g>
				<path class="st6" d="M464.3,302.9L464.3,302.9c0-1.3-1.1-2.4-2.4-2.4h-7.4c-1.3,0-2.4,1.1-2.4,2.4l0,0c0,1.3,1.1,2.4,2.4,2.4
					h7.4C463.2,305.3,464.3,304.2,464.3,302.9z"/>
			</g>
		</g>
		<g>
			<path class="st12" d="M508.1,286.2c-3,0-4.9,1.7-5.7,3.9c-0.9-1.9-1.9-3.6-2.7-4.8c-1.2-1.9-0.7-4.4,1.2-5.6
				c0.7-0.4,1.4-0.7,2.2-0.7c1.4,0,2.6,0.7,3.4,1.8c0.6,0.9,1.8,2.9,3.1,5.5C509.1,286.3,508.6,286.2,508.1,286.2z"/>
		</g>
		<g>
			<g>
				<path class="st11" d="M481.9,309.7c-0.6,1.4-0.7,2.9-0.3,4.2l8.6,3.8c1.3-0.6,2.3-1.7,2.9-3c1.4-3.1,0-6.7-3.1-8.1
					C486.9,305.1,483.3,306.5,481.9,309.7z"/>
			</g>
		</g>
	</g>
	<g>
		<g>
			<path class="st6" d="M820.2,643.2H710.6c-2.3,0-4.1-1.8-4.1-4.1c0-2.3,1.8-4.1,4.1-4.1h109.6c2.3,0,4.1,1.8,4.1,4.1
				C824.3,641.4,822.5,643.2,820.2,643.2z"/>
		</g>
		<g>
			<path class="st6" d="M677.7,643.2h-27.4c-2.3,0-4.1-1.8-4.1-4.1c0-2.3,1.8-4.1,4.1-4.1h27.4c2.3,0,4.1,1.8,4.1,4.1
				C681.8,641.4,680,643.2,677.7,643.2z"/>
		</g>
	</g>
	<g>
		<g>
			<g>
				<g>
					<path class="st2" d="M754,623.6c-1.4,0-2.8-0.6-3.7-1.9l-15.7-21.5c-1.2-1.7-1.2-4,0.2-5.6l20.6-25c1.6-1.9,4.5-2.2,6.4-0.6
						c1.9,1.6,2.2,4.5,0.6,6.4L744,597.7l13.7,18.7c1.5,2,1,4.9-1,6.4C755.9,623.3,754.9,623.6,754,623.6z"/>
				</g>
			</g>
		</g>
		<g>
			<g>
				<g>
					<path class="st2" d="M784.2,623.6c-0.9,0-1.9-0.3-2.7-0.9c-2-1.5-2.5-4.3-1-6.4l13.7-18.7L776,575.4c-1.6-1.9-1.3-4.8,0.6-6.4
						c1.9-1.6,4.8-1.3,6.4,0.6l20.5,24.9c1.3,1.6,1.4,3.9,0.2,5.6l-15.8,21.6C787,622.9,785.6,623.6,784.2,623.6z"/>
				</g>
			</g>
		</g>
		<g>
			<g>
				<g>
					<path class="st12" d="M757.1,541.8c0,7.2,5.9,13.1,13.1,13.1c7.2,0,13.1-5.9,13.1-13.1c0-7.2-5.9-10.5-13.1-10.5
						C763,531.3,757.1,534.6,757.1,541.8z"/>
				</g>
			</g>
		</g>
		<g>
			<g>
				<g>
					<polygon class="st11" points="765.4,557.9 765.5,570.4 765.5,578.6 775.1,578.6 774.6,558.6 774.4,552.9 					"/>
				</g>
			</g>
		</g>
		<g>
			<g>
				<g>
					<path class="st2" d="M755.4,577.5c0-3.9,3.4-7.7,6.9-9.5c5.2-2.7,13.3-0.8,15.8,0.7c4.4,2.6,7,7.9,6.7,13.3l0.3,29.1h-30.9
						C754.1,611.1,755.3,586.3,755.4,577.5z"/>
				</g>
			</g>
		</g>
		<g>
			<g>
				<g>
					<path class="st11" d="M776.4,568c-3.8-1.6-9.2-2.1-13.5-0.3l3.2,3.2c2,2,5.3,2,7.4,0C774.5,569.9,775.4,569,776.4,568z"/>
				</g>
			</g>
		</g>
		<g>
			<g>
				<g>
					<path class="st11" d="M767.8,534.3h5c4.4,0,8.5,3.6,8,8c-0.4,3.2,0,5.6,0,10.3c0,4-4.6,11.6-8.6,11.6h-3.7
						c-4,0-8.6-7.7-8.6-11.6c0-4.7,0.4-7.1,0-10.3C759.2,537.9,763.4,534.3,767.8,534.3z"/>
				</g>
			</g>
		</g>
		<g>
			<g>
				<g>
					<path class="st13" d="M774.3,557.1c-0.4,1.9-2,3.3-4,3.3c-2,0-3.7-1.4-4-3.3H774.3z"/>
				</g>
			</g>
		</g>
		<g>
			<g>
				<g>
					<path class="st3" d="M774.5,638.9h-9.9c-7.1,0-12.5-6.5-11.1-13.5l0.6-14.3H785l0.6,14.3C787,632.4,781.7,638.9,774.5,638.9z"
						/>
				</g>
			</g>
		</g>
		<g>
			<g>
				<g>
					<path class="st3" d="M724.4,623l42.2-4l1.2,12.6l-42.2,4c-3.5,0.3-6.5-2.2-6.8-5.7l0-0.1C718.4,626.4,720.9,623.3,724.4,623z"
						/>
				</g>
			</g>
		</g>
		<g>
			<g>
				<g>
					<path class="st3" d="M808.6,623l-42.2-4l-1.2,12.6l42.2,4c3.5,0.3,6.5-2.2,6.9-5.7l0-0.1C814.6,626.4,812,623.3,808.6,623z"/>
				</g>
			</g>
		</g>
		<g>
			<g>
				<g>
					<path class="st4" d="M786.1,631.5h-33c-1.7,0-3.1-1.4-3.1-3.1v-21.9c0-1.7,1.4-3.1,3.1-3.1h33c1.7,0,3.1,1.4,3.1,3.1v21.9
						C789.2,630.2,787.8,631.5,786.1,631.5z"/>
				</g>
			</g>
		</g>
		<g>
			<g>
				<g>
					<path class="st6" d="M786.1,632.8h-33c-1.7,0-3.1-1.4-3.1-3.1v-21.9c0-1.7,1.4-3.1,3.1-3.1h33c1.7,0,3.1,1.4,3.1,3.1v21.9
						C789.2,631.5,787.8,632.8,786.1,632.8z"/>
				</g>
			</g>
		</g>
		<g>
			<g>
				<g>
					<path class="st4" d="M774.1,621.2h-9c-1.3,0-2.3-1-2.3-2.3v0c0-1.3,1-2.3,2.3-2.3h9c1.3,0,2.3,1,2.3,2.3v0
						C776.4,620.1,775.4,621.2,774.1,621.2z"/>
				</g>
			</g>
		</g>
		<g>
			<g>
				<g>
					<g>
						<path class="st4" d="M753,644.4l12.3-0.7l0,0.2c-0.1,0.7,0.4,1.4,1.2,1.3c0.6,0,1-0.4,1.1-1l0.1-0.7l1.4-0.1l-0.1,0.4
							c-0.1,0.7,0.4,1.4,1.2,1.3c0.6,0,1-0.4,1.1-1l0.1-0.9l7.7-0.5c0.2-0.1,0.3-0.1,0.5-0.2c0.3-0.1,0.6-0.1,0.9-0.3
							c3.6-1.3,5.4-5.2,4.1-8.8c-1.3-3.6-5.2-5.4-8.8-4.1c0,0-0.1,0-0.1,0c0,0,0,0,0,0l-24.4,8.8c-0.4,0.1-0.7,0.4-1,0.7
							C748.3,641.1,750.1,644.6,753,644.4z"/>
					</g>
				</g>
			</g>
			<g id="_x38_._Right_shoe_66_">
				<g>
					<g>
						<g>
							<path class="st1" d="M771.7,639.9c-1.3-3.6,0.6-7.5,4.1-8.8c3.6-1.3,7.5,0.6,8.8,4.1c1.3,3.6-0.6,7.5-4.1,8.8
								C776.9,645.3,773,643.5,771.7,639.9z"/>
						</g>
					</g>
				</g>
				<g>
					<g>
						<g>
							<path class="st1" d="M751.3,640l24.4-8.8c2.6-0.9,5.4,0.4,6.4,3l0,0c0.9,2.6-0.4,9.4-3,10.4l-26.1,1.6
								c-2.9,0.2-4.7-3.3-2.7-5.4C750.6,640.4,750.9,640.2,751.3,640z"/>
						</g>
					</g>
				</g>
				<g>
					<g>
						<g>
							<path class="st4" d="M770.5,641.9L770.5,641.9c0.7,0,1.3,0.6,1.2,1.3l-0.4,2.6c-0.1,0.5-0.6,0.9-1.1,1l0,0
								c-0.7,0-1.3-0.6-1.2-1.3l0.4-2.6C769.5,642.3,770,641.9,770.5,641.9z"/>
						</g>
					</g>
				</g>
				<g>
					<g>
						<g>
							<path class="st4" d="M766.8,642L766.8,642c0.7,0,1.3,0.6,1.2,1.3l-0.4,2.6c-0.1,0.5-0.6,1-1.1,1l0,0c-0.7,0-1.3-0.6-1.2-1.3
								l0.4-2.6C765.8,642.4,766.2,642,766.8,642z"/>
						</g>
					</g>
				</g>
			</g>
		</g>
		<g>
			<g>
				<g>
					<path class="st11" d="M806,625.6l-28.5,7.7c-2.7,0.7-4.4,3.6-3.6,6.3l0,0.1c0.7,2.7,3.6,4.4,6.3,3.6l28.5-7.7
						c2.7-0.7,4.4-3.6,3.6-6.3l0-0.1C811.6,626.5,808.7,624.9,806,625.6z"/>
				</g>
			</g>
		</g>
		<g>
			<g>
				<g>
					<g>
						<path class="st4" d="M780,644.4l-12.3-0.7l0,0.2c0.1,0.7-0.4,1.4-1.2,1.3c-0.6,0-1-0.4-1.1-1l-0.1-0.7l-1.4-0.1l0.1,0.4
							c0.1,0.7-0.4,1.4-1.2,1.3c-0.6,0-1-0.4-1.1-1l-0.1-0.9l-7.7-0.5c-0.2-0.1-0.3-0.1-0.5-0.2c-0.3-0.1-0.6-0.1-0.9-0.3
							c-3.6-1.3-5.4-5.2-4.1-8.8c1.3-3.6,5.2-5.4,8.8-4.1c0,0,0.1,0,0.1,0c0,0,0,0,0,0l24.4,8.8c0.4,0.1,0.7,0.4,1,0.7
							C784.7,641.1,782.9,644.6,780,644.4z"/>
					</g>
				</g>
			</g>
			<g id="_x38_._Right_shoe_65_">
				<g>
					<g>
						<g>
							<path class="st1" d="M761.2,639.9c1.3-3.6-0.6-7.5-4.1-8.8c-3.6-1.3-7.5,0.6-8.8,4.1c-1.3,3.6,0.6,7.5,4.1,8.8
								C756,645.3,759.9,643.5,761.2,639.9z"/>
						</g>
					</g>
				</g>
				<g>
					<g>
						<g>
							<path class="st1" d="M781.6,640l-24.4-8.8c-2.6-0.9-5.4,0.4-6.4,3l0,0c-0.9,2.6,0.4,9.4,3,10.4l26.1,1.6
								c2.9,0.2,4.7-3.3,2.7-5.4C782.4,640.4,782,640.2,781.6,640z"/>
						</g>
					</g>
				</g>
				<g>
					<g>
						<g>
							<path class="st4" d="M762.4,641.9L762.4,641.9c-0.7,0-1.3,0.6-1.2,1.3l0.4,2.6c0.1,0.5,0.6,0.9,1.1,1l0,0
								c0.7,0,1.3-0.6,1.2-1.3l-0.4-2.6C763.5,642.3,763,641.9,762.4,641.9z"/>
						</g>
					</g>
				</g>
				<g>
					<g>
						<g>
							<path class="st4" d="M766.2,642L766.2,642c-0.7,0-1.3,0.6-1.2,1.3l0.4,2.6c0.1,0.5,0.6,1,1.1,1l0,0c0.7,0,1.3-0.6,1.2-1.3
								l-0.4-2.6C767.2,642.4,766.7,642,766.2,642z"/>
						</g>
					</g>
				</g>
			</g>
		</g>
		<g>
			<g>
				<g>
					<path class="st11" d="M726.9,625.6l28.5,7.7c2.7,0.7,4.4,3.6,3.6,6.3l0,0.1c-0.7,2.7-3.6,4.4-6.3,3.6l-28.5-7.7
						c-2.7-0.7-4.4-3.6-3.6-6.3l0-0.1C721.4,626.5,724.2,624.9,726.9,625.6z"/>
				</g>
			</g>
		</g>
		<g>
			<g>
				<g>
					<path class="st12" d="M771,529.2c12,0,11.7,12.8,11.7,12.8c-12.5,2.4-17.3-6.5-17.3-8.2C765.4,533.9,766.7,529.2,771,529.2z"/>
				</g>
			</g>
		</g>
		<g>
			<g>
				<g>
					<path class="st12" d="M764.8,532.1c-9.5-1.3-7.4,11.3-7.4,11.3c6.3-1.2,10-6.3,9.8-7.5L764.8,532.1z"/>
				</g>
			</g>
		</g>
	</g>
	<g>
		<g>
			<g>
				<path class="st6" d="M913.3,384.9l-13.9,9.7c-0.4,0.1-0.9,0.3-1.1,0.7c-0.2,0.3-0.3,0.7-0.3,1.1c0,0.4,0.1,0.7,0.3,1.1
					c0.3,0.4,0.7,0.6,1.1,0.7l13.9,9.7c0.8,0.5,1.8,0.3,2.3-0.4c0.5-0.8,0.3-1.8-0.4-2.3l-12.5-8.7l12.5-8.7
					c0.8-0.5,0.9-1.6,0.4-2.3C915.1,384.6,914.1,384.4,913.3,384.9z"/>
			</g>
		</g>
		<g>
			<g>
				<path class="st6" d="M928.2,384.9l-13.9,9.7c-0.4,0.1-0.9,0.3-1.1,0.7c-0.2,0.3-0.3,0.7-0.3,1.1c0,0.4,0.1,0.7,0.3,1.1
					c0.3,0.4,0.7,0.6,1.1,0.7l13.9,9.7c0.8,0.5,1.8,0.3,2.3-0.4c0.5-0.8,0.3-1.8-0.4-2.3l-12.5-8.7l12.5-8.7
					c0.8-0.5,0.9-1.6,0.4-2.3C930,384.6,929,384.4,928.2,384.9z"/>
			</g>
		</g>
		<g>
			<g>
				<path class="st6" d="M943.2,384.3l-13.9,9.7c-0.4,0.1-0.9,0.3-1.1,0.7c-0.2,0.3-0.3,0.7-0.3,1.1c0,0.4,0.1,0.7,0.3,1.1
					c0.3,0.4,0.7,0.6,1.1,0.7l13.9,9.7c0.8,0.5,1.8,0.3,2.3-0.4c0.5-0.8,0.3-1.8-0.4-2.3l-12.5-8.7l12.5-8.7
					c0.8-0.5,0.9-1.6,0.4-2.3C944.9,383.9,943.9,383.8,943.2,384.3z"/>
			</g>
		</g>
		<g>
			<g>
				<path class="st6" d="M958.1,384.3l-13.9,9.7c-0.4,0.1-0.9,0.3-1.1,0.7c-0.2,0.3-0.3,0.7-0.3,1.1c0,0.4,0.1,0.7,0.3,1.1
					c0.3,0.4,0.7,0.6,1.1,0.7l13.9,9.7c0.8,0.5,1.8,0.3,2.3-0.4c0.5-0.8,0.3-1.8-0.4-2.3l-12.5-8.7L960,387c0.8-0.5,0.9-1.6,0.4-2.3
					C959.9,383.9,958.8,383.8,958.1,384.3z"/>
			</g>
		</g>
	</g>
	<g>
		<g>
			<g>
				<path class="st6" d="M876.1,308.3l-10,7c-0.3,0-0.6,0.2-0.8,0.5c-0.2,0.2-0.2,0.5-0.2,0.8c0,0.3,0,0.5,0.2,0.8
					c0.2,0.3,0.5,0.5,0.8,0.5l10,7c0.5,0.4,1.3,0.2,1.7-0.3c0.4-0.5,0.2-1.3-0.3-1.7l-9-6.3l9-6.3c0.5-0.4,0.7-1.1,0.3-1.7
					C877.4,308.1,876.7,308,876.1,308.3z"/>
			</g>
		</g>
		<g>
			<g>
				<path class="st6" d="M886.9,308.3l-10,7c-0.3,0-0.6,0.2-0.8,0.5c-0.2,0.2-0.2,0.5-0.2,0.8c0,0.3,0,0.5,0.2,0.8
					c0.2,0.3,0.5,0.5,0.8,0.5l10,7c0.5,0.4,1.3,0.2,1.7-0.3c0.4-0.5,0.2-1.3-0.3-1.7l-9-6.3l9-6.3c0.5-0.4,0.7-1.1,0.3-1.7
					C888.1,308.1,887.4,308,886.9,308.3z"/>
			</g>
		</g>
		<g>
			<g>
				<path class="st6" d="M897.6,307.9l-10,7c-0.3,0-0.6,0.2-0.8,0.5c-0.2,0.2-0.2,0.5-0.2,0.8c0,0.3,0,0.5,0.2,0.8
					c0.2,0.3,0.5,0.5,0.8,0.5l10,7c0.5,0.4,1.3,0.2,1.7-0.3c0.4-0.5,0.2-1.3-0.3-1.7l-9-6.3l9-6.3c0.5-0.4,0.7-1.1,0.3-1.7
					C898.9,307.6,898.1,307.5,897.6,307.9z"/>
			</g>
		</g>
		<g>
			<g>
				<path class="st6" d="M908.3,307.9l-10,7c-0.3,0-0.6,0.2-0.8,0.5c-0.2,0.2-0.2,0.5-0.2,0.8c0,0.3,0,0.5,0.2,0.8
					c0.2,0.3,0.5,0.5,0.8,0.5l10,7c0.5,0.4,1.3,0.2,1.7-0.3c0.4-0.5,0.2-1.3-0.3-1.7l-9-6.3l9-6.3c0.5-0.4,0.7-1.1,0.3-1.7
					C909.6,307.6,908.9,307.5,908.3,307.9z"/>
			</g>
		</g>
	</g>
	<g>
		<g>
			<g>
				<path class="st6" d="M565.9,278.6l10-7c0.3,0,0.6-0.2,0.8-0.5c0.2-0.2,0.2-0.5,0.2-0.8c0-0.3,0-0.5-0.2-0.8
					c-0.2-0.3-0.5-0.5-0.8-0.5l-10-7c-0.5-0.4-1.3-0.2-1.7,0.3c-0.4,0.5-0.2,1.3,0.3,1.7l9,6.3l-9,6.3c-0.5,0.4-0.7,1.1-0.3,1.7
					C564.6,278.8,565.3,279,565.9,278.6z"/>
			</g>
		</g>
		<g>
			<g>
				<path class="st6" d="M555.2,278.6l10-7c0.3,0,0.6-0.2,0.8-0.5c0.2-0.2,0.2-0.5,0.2-0.8c0-0.3,0-0.5-0.2-0.8
					c-0.2-0.3-0.5-0.5-0.8-0.5l-10-7c-0.5-0.4-1.3-0.2-1.7,0.3c-0.4,0.5-0.2,1.3,0.3,1.7l9,6.3l-9,6.3c-0.5,0.4-0.7,1.1-0.3,1.7
					C553.9,278.8,554.6,279,555.2,278.6z"/>
			</g>
		</g>
		<g>
			<g>
				<path class="st6" d="M544.4,279.1l10-7c0.3,0,0.6-0.2,0.8-0.5c0.2-0.2,0.2-0.5,0.2-0.8c0-0.3,0-0.5-0.2-0.8
					c-0.2-0.3-0.5-0.5-0.8-0.5l-10-7c-0.5-0.4-1.3-0.2-1.7,0.3c-0.4,0.5-0.2,1.3,0.3,1.7l9,6.3l-9,6.3c-0.5,0.4-0.7,1.1-0.3,1.7
					C543.1,279.3,543.9,279.4,544.4,279.1z"/>
			</g>
		</g>
		<g>
			<g>
				<path class="st6" d="M533.7,279.1l10-7c0.3,0,0.6-0.2,0.8-0.5c0.2-0.2,0.2-0.5,0.2-0.8c0-0.3,0-0.5-0.2-0.8
					c-0.2-0.3-0.5-0.5-0.8-0.5l-10-7c-0.5-0.4-1.3-0.2-1.7,0.3c-0.4,0.5-0.2,1.3,0.3,1.7l9,6.3l-9,6.3c-0.5,0.4-0.7,1.1-0.3,1.7
					C532.4,279.3,533.2,279.4,533.7,279.1z"/>
			</g>
		</g>
	</g>
	<g>
		<g>
			<g>
				<g>
					<path class="st7" d="M781.6,135.7c6.8,0,12.8,3.9,15.6,9.7c1.7-0.8,3.7-1.3,5.8-1.3c5.5,0,10.2,3.3,12.2,8.1
						c1.9-1.7,4.4-2.7,7.1-2.7c5.8,0,10.6,4.7,10.6,10.6c0,5.8-4.7,10.6-10.6,10.6h-40.7c-9.6,0-17.5-7.8-17.5-17.5
						S771.9,135.7,781.6,135.7z"/>
				</g>
			</g>
		</g>
	</g>
	<g>
		<g>
			<g>
				<g>
					<path class="st7" d="M591.8,196.9c-6.8,0-12.8,3.9-15.6,9.7c-1.7-0.8-3.7-1.3-5.8-1.3c-5.5,0-10.2,3.3-12.2,8.1
						c-1.9-1.7-4.4-2.7-7.1-2.7c-5.8,0-10.6,4.7-10.6,10.6s4.7,10.6,10.6,10.6h40.7c9.6,0,17.5-7.8,17.5-17.5
						C609.2,204.7,601.4,196.9,591.8,196.9z"/>
				</g>
			</g>
		</g>
	</g>
	<g>
		<g>
			<path class="st2" d="M433.3,264.3h-10.7c-5.6,0-10.1-4.5-10.1-10.1l0,0c0-5.6,4.5-10.1,10.1-10.1h10.7c5.6,0,10.1,4.5,10.1,10.1
				l0,0C443.4,259.7,438.9,264.3,433.3,264.3z"/>
		</g>
		<g>
			<path class="st12" d="M428.4,264.3h-5.8c-5.6,0-10.1-4.5-10.1-10.1l0,0c0-5.6,4.5-10.1,10.1-10.1h5.8V264.3z"/>
		</g>
		<g>
			<polygon class="st4" points="434.9,254.4 424,260.6 424,248.1 			"/>
		</g>
	</g>
</g>
</svg>
