<?xml version="1.0" encoding="utf-8"?>
<!-- Generator: Adobe Illustrator 27.5.0, SVG Export Plug-In . SVG Version: 6.00 Build 0)  -->
<svg version="1.1" id="Camada_1" xmlns="http://www.w3.org/2000/svg" xmlns:xlink="http://www.w3.org/1999/xlink" x="0px" y="0px"
	 viewBox="0 0 1239 1000" style="enable-background:new 0 0 1239 1000;" xml:space="preserve">
<style type="text/css">
	.st0{fill:#5400FF;}
	.st1{fill:none;stroke:#4911D1;stroke-miterlimit:10;}
	.st2{fill:#7689F4;}
	.st3{fill:none;stroke:#6C81E0;stroke-width:0.9146;stroke-miterlimit:10;}
	.st4{fill:#816EF5;}
	.st5{fill:#7D62D6;}
	.st6{fill:#6138FB;}
	.st7{fill:#4631DA;}
	.st8{fill:#FBB99D;}
	.st9{fill:#FFFFFF;}
	.st10{fill:#C8D3FB;}
	.st11{fill:url(#SVGID_1_);}
	.st12{fill:url(#SVGID_00000001651901622795274000000008667763862933911742_);}
	.st13{fill:#312890;}
	.st14{fill:#BFCBF1;}
	.st15{fill:#835F59;}
	.st16{opacity:0.42;fill:#FFFFFF;}
	.st17{fill:#6A6AE8;}
	.st18{fill:url(#SVGID_00000157306518071720290470000009188108398699138190_);}
	.st19{fill:url(#SVGID_00000063632608359426626520000015276387143131213995_);}
	.st20{fill:url(#SVGID_00000150099782235031071840000001086458245277493664_);}
	.st21{fill:url(#SVGID_00000134958186858747342000000015147289991409606059_);}
	.st22{fill:url(#SVGID_00000152980844506346758110000011489775717981021845_);}
	.st23{fill:url(#SVGID_00000046302618076827353460000016107926445735632031_);}
	.st24{fill:url(#SVGID_00000054948542834271889060000004128619979752995516_);}
	.st25{fill:#1C0A76;}
	.st26{fill:url(#SVGID_00000152958570603999846610000016428695320410698897_);}
	.st27{fill:#1C0A75;}
	.st28{fill:url(#SVGID_00000183933570398727868660000010047489190243659683_);}
	.st29{fill:url(#SVGID_00000114055470027875324180000007089953170537147794_);}
	.st30{fill:url(#SVGID_00000107547021178022036490000012855826581498618275_);}
	.st31{fill:url(#SVGID_00000139981569098424676350000009003016186410270898_);}
	.st32{fill:url(#SVGID_00000041295802316245039780000012781813466892993202_);}
	.st33{fill:url(#SVGID_00000027566439198996256550000002707396559685501869_);}
	.st34{fill:url(#SVGID_00000075154299245773321860000006347245188267579286_);}
	.st35{fill:url(#SVGID_00000134207986659798366750000015442870328749139615_);}
	.st36{fill:url(#SVGID_00000021105928231486425110000014896782756952924587_);}
	.st37{fill:url(#SVGID_00000036946160769944903670000010292216172407603350_);}
	.st38{fill:#FFD2A7;}
	.st39{fill:url(#SVGID_00000170267583367554265070000003262270506024535172_);}
	.st40{fill:url(#SVGID_00000117648424293683947260000010086665578615096475_);}
	.st41{fill:url(#SVGID_00000018228130134806543060000016253113711416726914_);}
	.st42{fill:#D35600;}
	.st43{fill:#002DAA;}
	.st44{fill:#FFBC8E;}
	.st45{fill:#3B31A1;}
	.st46{fill:url(#SVGID_00000093855891791097488200000001202181442506579117_);}
	.st47{opacity:0.34;fill:#DAE7FF;}
	.st48{fill:url(#SVGID_00000101075106613686723570000001912158075646438586_);}
	.st49{fill:#FF988C;}
	.st50{fill:url(#SVGID_00000025436750161486234650000001703285584063567513_);}
	.st51{fill:url(#SVGID_00000109750865046765667800000017650090269098514354_);}
	.st52{fill:url(#SVGID_00000182486423201652357620000004960792174051630750_);}
	.st53{fill:url(#SVGID_00000080895489051875130080000004883262754765324431_);}
</style>
<path class="st0" d="M481.7,932.9c68.3-140.8,113.5-292.4,133.1-447.7c3.4-27.4,4-60.3-18.1-76.9c-21.2-16-53.2-7.1-71.3,12.3
	c-18.1,19.4-25.5,46.1-32.3,71.6c9.5-63.6,19.4-127.6,28.9-191.2c4.3-29.5,8.3-62.4-20.9-83.3c-19.4-13.5-45.5-13.5-66.4-2.5
	c-44.6,23.1-59,71.3-71.3,116.5c-28.6-87.3-57.2-174.3-85.8-261.6c-7.4-22.8-22.1-50.4-45.8-47.3c-18.4,2.2-28.6,22.1-34.1,40
	c-28.6,88.2-27.4,186,3.1,273.9c-19.1-27.4-39.4-56-68.9-71.9c-29.5-16-71-14.8-91.9,11.4c-18.4,23.7-14.5,57.5-7.7,86.7
	c22.4,100.2,62.4,196.8,117.8,283.5c-25.2-16.9-52-34.4-82.1-36.9c-30.1-2.2-64.6,17.2-67,47.3c-2.2,25.2,17.2,46.4,35.7,63.6
	c77.5,71.9,167,130.7,263.5,173.1C357.5,919.4,419.3,932.3,481.7,932.9z"/>
<path class="st1" d="M232.3,23.2c0,0,37.5,701.3,201.1,884.6"/>
<path class="st1" d="M61.1,269.1c0,0,253.3,555,349.3,649.7"/>
<path class="st1" d="M11.3,635c0,0,280.1,123.6,367.7,287.5"/>
<path class="st2" d="M959.2,271.9c4.6-11.4,45.5-115.6,52.3-200.8c8.6-104.2-10.8-61.8-10.8-61.8c-2.8,4.9-12.9,30.7-21.5,84.2
	c-8,50.1-24.9,124.8-21.5,170.3c-10.8,33.8-50.4,158-62.1,186l3.4,1.5C910.3,425,945.9,313.1,959.2,271.9z"/>
<path class="st3" d="M1007.7,1.7c-7.7,89.2-24.3,176.8-48.3,263.2c-17.8,64-42.4,126.7-63.6,189.7c-0.3,1.2,1.5,1.5,1.8,0.3
	c21.2-63,45.8-125.8,63.6-189.7c24-86.4,40.6-174,48.3-263.2C1009.6,0.7,1007.7,0.4,1007.7,1.7z"/>
<path class="st4" d="M907.2,957.2c0,0,41.8-259.2,101.5-329c48-56.3,75.6-89.5,145.4-106.1c69.8-16.9,82.7-21.5,82.7-21.5
	s-21.8,28.3-58.4,79.9c-36.6,51.3-128.5,112.5-159.6,155c-27.4,36.9-53.5,37.2-100.8,235.5L907.2,957.2z"/>
<path class="st5" d="M1236.2,499.1c-91.6,36.9-182.3,103-232.4,188.8c-48,82.1-74.4,180.8-88.9,274.6c-0.3,1.8,2.8,2.2,3.1,0.3
	c14.1-92.9,40.6-191.5,88.2-273c50.1-85.5,140.2-151.3,231.5-187.9C1239.3,501,1237.7,498.5,1236.2,499.1z"/>
<path class="st6" d="M946.6,499.1c2.8-16.9,27.7-170.6,79.9-277.9c63.9-131.3,56.9-66.4,56.9-66.4c-0.3,8-6.5,46.1-34.1,116.2
	c-26.1,65.5-58.7,167.3-95,219.5c-11.1,48-52,225.4-57.8,267.5l-5.2-0.6C896.4,717.7,933,557.8,946.6,499.1z"/>
<path class="st7" d="M1078.2,139.7C1023.7,251.9,981.6,368.8,949,489c-24.3,89.5-39.4,182.9-58.7,273.6c-0.3,1.5,2.2,2.2,2.5,0.6
	c19.4-90.7,34.7-183.6,58.7-273c32.3-120.2,74.7-237.4,129.1-349.3C1081.2,139.4,1078.8,138.2,1078.2,139.7z"/>
<path class="st0" d="M935.8,700.5c5.2-44.9,16.6-112.2,32.9-154.7c4.3-11.4,9.5-22.1,16.3-32.3c7.7-10.8,17.2-20,26.7-29.2
	c34.4-33.2,70.1-67,114.1-85.8c-29.5,37.5-49.8,81.2-69.8,124.2c-8.9,19.1-30.4,55.6-42.7,72.9C986.8,632.6,968.1,662.1,935.8,700.5
	z"/>
<path class="st7" d="M1124.9,397.7c-44,31.4-87.6,73.8-111.6,123c-30.4,62.1-53.8,127.6-85.8,189.4c-0.9,1.5,1.5,3.1,2.2,1.5
	c28.6-55.3,54.7-111.9,77.8-170c23.1-57.8,68.9-105.8,119.3-141.7C1128,398.6,1126.1,396.7,1124.9,397.7z"/>
<path class="st8" d="M513.7,488.1c3.1,1.2,6.5-0.3,7.4-3.4c1.2-3.1-0.3-6.5-3.4-7.4c-3.1-1.2-6.5,0.3-7.4,3.4
	C509,483.7,510.6,486.8,513.7,488.1z"/>
<path class="st9" d="M934.9,334.3c0,3.7-3.1,6.8-6.8,6.8c-3.7,0-6.8-3.1-6.8-6.8c0-3.7,3.1-6.8,6.8-6.8
	C931.8,327.9,934.9,330.6,934.9,334.3z"/>
<g>
	<g>
		<rect x="163.4" y="993.3" class="st10" width="881.4" height="6.7"/>
	</g>
	<g>
		<linearGradient id="SVGID_1_" gradientUnits="userSpaceOnUse" x1="110.8247" y1="654.4851" x2="1278.7203" y2="285.3098">
			<stop  offset="0" style="stop-color:#FFFFFF"/>
			<stop  offset="1" style="stop-color:#D3DBEB"/>
		</linearGradient>
		<path class="st11" d="M136.6,515.6c34.9-226.6,231.8-645,520.5-476.8C905,183.3,734.5,358.5,938.3,430.6
			c348,123.1,45.5,642-376.5,552.3C139.7,893.2,104.1,726.4,136.6,515.6z"/>
		
			<linearGradient id="SVGID_00000066497566460507891850000008769805344204876678_" gradientUnits="userSpaceOnUse" x1="69.7022" y1="524.4102" x2="1237.6071" y2="155.2319">
			<stop  offset="0" style="stop-color:#FFFFFF"/>
			<stop  offset="1" style="stop-color:#D3DBEB"/>
		</linearGradient>
		<path style="fill:url(#SVGID_00000066497566460507891850000008769805344204876678_);" d="M836.5,113.4
			C820.1,196,848.9,350,1010.3,402.7c161.5,52.7,105.4-74,0-177.2C904.9,122.3,861.2-11.1,836.5,113.4z"/>
	</g>
	<g>
		<g>
			<g>
				<g>
					<path class="st10" d="M918,741.9h-82.7v-45.2H918V741.9z M840,737.3h73.4v-36H840V737.3z"/>
				</g>
				<g>
					<path class="st10" d="M974.7,782.5h-82.7v-45.3h82.7V782.5z M896.7,777.9h73.4v-36h-73.4V777.9z"/>
				</g>
			</g>
			<g>
				<g>
					<path class="st10" d="M713.9,352.2h-82.7v-45.3h82.7V352.2z M635.9,347.5h73.4v-36h-73.4V347.5z"/>
				</g>
			</g>
			<g>
				<g>
					<path class="st10" d="M568.5,852.8h-82.7v-45.2h82.7V852.8z M490.4,848.2h73.4v-36h-73.4V848.2z"/>
				</g>
				<g>
					<path class="st10" d="M646.6,852.8h-82.7v-45.2h82.7V852.8z M568.5,848.2h73.4v-36h-73.4V848.2z"/>
				</g>
				<g>
					<path class="st10" d="M607.5,893.5h-82.7v-45.2h82.7V893.5z M529.4,888.8h73.4v-36h-73.4V888.8z"/>
				</g>
			</g>
		</g>
		<g>
			<g>
				<g>
					<path class="st10" d="M448.4,592h-82.7v-45.3h82.7V592z M370.4,587.4h73.4v-36h-73.4V587.4z"/>
				</g>
				<g>
					<path class="st10" d="M391.7,632.6h-82.7v-45.2h82.7V632.6z M313.7,628h73.4v-36h-73.4V628z"/>
				</g>
			</g>
			<g>
				<g>
					<path class="st10" d="M310.1,405.4h-82.7v-45.3h82.7V405.4z M232.1,400.8h73.4v-36h-73.4V400.8z"/>
				</g>
				<g>
					<path class="st10" d="M388.2,405.4h-82.7v-45.3h82.7V405.4z M310.2,400.8h73.4v-36h-73.4V400.8z"/>
				</g>
				<g>
					<path class="st10" d="M349.1,446h-82.7v-45.3h82.7V446z M271.1,441.4h73.4v-36h-73.4V441.4z"/>
				</g>
			</g>
		</g>
	</g>
</g>
<g>
	<polygon class="st13" points="487.1,994.3 490.9,994.2 485.5,877 481.7,877.1 	"/>
	<path class="st13" d="M399.8,870.3c0-8,52.4-8.7,68.5-8.7c16.1,0,68.5,0.6,68.5,8.7c0,8-52.4,8.7-68.5,8.7
		C452.3,879,399.8,878.4,399.8,870.3z M468.4,865.4c-35.3,0-58.2,2.7-63.8,4.9c5.6,2.2,28.5,4.9,63.8,4.9c35.3,0,58.2-2.6,63.8-4.9
		C526.6,868.1,503.6,865.4,468.4,865.4z"/>
	<path class="st10" d="M533.1,809.3c3.2,8,5,16.8,5,26c0,38.5-31.2,69.7-69.7,69.7s-69.7-31.2-69.7-69.7c0-9.2,1.8-17.9,5-26H533.1z
		"/>
	<path class="st14" d="M403.6,809.3c0,5.7,29,10.2,64.7,10.2c35.7,0,64.7-4.6,64.7-10.2c0-5.7-29-10.2-64.7-10.2
		C432.6,799,403.6,803.6,403.6,809.3z"/>
	<path class="st15" d="M410,809.3c0,4.2,26.1,7.6,58.3,7.6c32.2,0,58.3-3.4,58.3-7.6c0-4.2-26.1-7.6-58.3-7.6
		C436.1,801.7,410,805.1,410,809.3z"/>
	<path class="st16" d="M410,832.8c0.2-5.2,8.3-5.2,8.1,0c-0.4,12.4,1.2,24.8,10.2,34.1c3.6,3.8-2.1,9.5-5.7,5.7
		C412.1,861.8,409.5,847.4,410,832.8z"/>
	<path class="st13" d="M468.4,879c16.1,0,68.5-0.6,68.5-8.7h-3.8c0-0.4,0.2-0.6,0.2-0.6c-2.3,2.3-26.1,5.5-64.9,5.5
		c-38.8,0-62.6-3.2-64.9-5.5c0.1,0.1,0.2,0.3,0.2,0.6h-3.8C399.8,878.4,452.3,879,468.4,879z"/>
	<polygon class="st13" points="546.6,994.2 550.4,994 535.9,871.3 532.2,871.6 	"/>
	<polygon class="st13" points="393.4,994.2 405.5,872.1 401.7,871.8 389.6,994 	"/>
	
		<rect x="399.1" y="933.8" transform="matrix(2.041311e-02 -0.9998 0.9998 2.041311e-02 -487.149 1374.1029)" class="st13" width="117.2" height="3.8"/>
	<path class="st10" d="M410,809.3c0,3.1,14,5.7,34.2,6.9c1.2,0.1,2.4,0.1,3.6,0.2c1.7,0.1,3.4,0.2,5.2,0.2c1.1,0.1,2.3,0.1,3.5,0.1
		c2.6,0.1,5.3,0.1,8.1,0.1c1.2,0,2.4,0,3.6,0h0c5.4,0,10.6-0.1,15.6-0.3c1.2,0,2.5-0.1,3.7-0.1c22.7-1,39-3.8,39-7.1
		c0-3-13.6-5.6-33.3-6.9c-1.3-0.1-2.6-0.1-3.9-0.2c-5.9-0.3-12.2-0.5-18.8-0.5H467c-4,0-7.9,0.1-11.7,0.2c-1.2,0-2.4,0.1-3.5,0.1
		c-2,0.1-3.9,0.2-5.8,0.3c-1.2,0-2.4,0.1-3.6,0.2C423.1,803.7,410,806.3,410,809.3z"/>
	<g>
		<g>
			<g>
				<path class="st17" d="M467.5,741.4c-2.6-1.5-4.9-3.7-6.7-5.5c-2.9-3-7.5-7.8-7.5-12.3c0-3.7,3.9-4.6,6.5-2.4
					c2.3,2,3.3,4.9,5.1,7.3c2.2,2.8,5.8,5.1,9.5,6.6c5-7.2,5.9-17,4.2-25.6c-2-10-8.5-24.1-18.3-37.4c-1.2,3.5-3.1,6.9-4.5,9.2
					c-1.9,3.1-4.8,8.9-8.4,10.2c-3.8,1.3-4.5-2.1-3.9-5c0-0.1,0-0.3,0.1-0.4c0,0,0,0,0,0c0.1-0.3,0.1-0.5,0.2-0.7
					c0.1-0.2,0.2-0.4,0.4-0.5c2.1-4,4.4-7.8,6.2-11.9c1.3-3.1,2.2-6.2,3-9.3c-8.6-9.7-19-18.2-30.5-23.1c2.3,4.9,4,10.3,5.4,15.1
					c1.5,4.9,5.6,15.4,1.8,20.2c-1,1.3-3.1,2.2-4.7,1.3c-2.6-1.5-2.3-6.8-2.3-9.2c-0.1-5.9-0.1-11-2.1-16.7c-1.7-5-4.4-9.4-7.3-13.7
					c-7.2-1.7-14.7-1.9-22.5-0.1c2.3,2,4,4.5,4.5,7.4c0.4,2.7-1.2,9-4.8,9.2c-4.7,0.3-5-10.6-5.6-14.9c-4.2,1.5-8.5,3.6-12.8,6.5
					c-7.4,4.8-13,11.2-17.3,18.3c0.1,0.1,0.1,0.3,0.2,0.4c1.5,11.9,16.7,16,25.8,20.6c2.8,1.4,13.3,6.3,12,10.6
					c-0.7,2.2-4.5,2.3-6.2,1.9c-4.5-0.8-8.6-4.5-12.1-7.2c-8.1-6.3-16.2-12.4-22.9-20c-7.4,15.9-9.1,34.3-8.9,47.8
					c0.2-0.1,0.5-0.1,0.8,0c5.2,2.2,11.3,3.2,17,2.7c3.6-0.3,7.3-1.2,11-0.7c3.1,0.4,7.8,4.2,4.4,7.2c-2.9,2.6-9.5,2-13,1.5
					c-7.2-0.9-13.6-3.2-19.9-6.3c0.2,4,0.6,7.4,1,10c2.1,13.2,10.1,25.3,21.2,32.7c3.7,2.5,7.8,4.4,12,5.8
					c8.2-7.1,14.4-14.9,18-25.6c1.4-4.3,4.5-16,10.6-15.6c2.7,0.2,4.6,3.5,5.1,5.8c0.9,4-1.6,8-3.7,11.1c-3.2,4.6-6.8,8.9-9.9,13.5
					c-3.1,4.5-6.2,8.9-9.5,13.2c7.8,1,15.7,0.4,23.1-1.9c11.7-3.6,23.9-15.7,17.4-28.2C440.9,746.2,456.3,748,467.5,741.4z
					 M364.5,708.3c-0.2,0.1-0.3,0.1-0.5,0.1c-0.3,0.4-1,0.6-1.5,0.1c-0.2-0.2-0.3-0.3-0.5-0.5c-1.2-0.8-2-2.4-2.4-3.8
					c-0.1-0.3,0-0.6,0.1-0.8c-0.2-0.8-0.3-1.6-0.3-2.3c0-1.8,0.8-3.9,3-3.5c2.5,0.4,4.8,3,5.1,5.4
					C367.9,705.1,366.7,707.6,364.5,708.3z M440.8,711.2c-1.3,1.6-3.5,1.8-5,0.4c-1.7-1.5-2.1-4-1.5-6c0.1-0.4,0.3-0.6,0.6-0.6
					c0,0,0,0,0.1-0.1c1.9-0.8,4.4-0.8,6,0.5C442.7,707,442.1,709.6,440.8,711.2z"/>
			</g>
		</g>
	</g>
	<g>
		<g>
			
				<linearGradient id="SVGID_00000129892089927521795540000003873932403845956496_" gradientUnits="userSpaceOnUse" x1="454.8709" y1="643.1481" x2="589.5207" y2="643.1481">
				<stop  offset="0" style="stop-color:#6A6AE8"/>
				<stop  offset="1" style="stop-color:#312890"/>
			</linearGradient>
			<path style="fill:url(#SVGID_00000129892089927521795540000003873932403845956496_);" d="M567,672.6c6.4,2.4,12.9,4,19.7,4.8
				c3.7-12.8,3.1-26.8,1.7-40.2c-4.7,4.8-9.9,9-16.3,12c-5.4,2.5-14.6,6.7-19.4,1.2c-0.3-0.4-0.4-1,0-1.4c5.2-4.3,12.1-3.9,18.3-5.8
				c6.1-1.9,12.7-6,16.8-11.4c-0.1-1.1-0.3-2.2-0.4-3.3c-1.2-9.9-3-19.7-4.9-29.4c-0.1,0.2-0.2,0.4-0.3,0.6
				c-0.8,1.7-2.4,5.3-4.6,5.7c-2.1,0.3-2.8-2.1-2.4-3.7c0.6-2.5,3-4.4,4-6.8c0.6-1.4,1.1-2.9,1.5-4.4c-1.7-7.8-3.4-15.5-5.2-23.2
				c-0.1-0.6-0.7-0.8-1.2-0.7c-7.7,1.1-15.4,2.1-23.2,3.4c-8.4,8.3-14.4,18-15.4,30.2c-0.3,3.5,1.9,21.5-6.4,19.3
				c-8.7-2.3-4.6-18.6-2.9-24c2.7-8.5,7.1-16.2,12.3-23.2c-17.5,3.5-34.7,8.4-50.5,16.8c-5.9,12.4-5.1,25.2,2.6,37.4
				c1.7,2.6,11.4,15,3.5,16.4c-6.6,1.2-11.8-11.9-12.9-16.7c-1.7-7.2-0.7-14.7-0.2-22c0.3-4.4,1.1-8.5,2.5-12.5
				c-0.2,0.1-0.4,0.2-0.6,0.3c-11.9,7.1-23.2,16.2-26.8,30.2c-1.6,6.2-1.8,12.5-1.1,18.9c3.1,4.5,6.3,8.8,10.2,12.6
				c3.9,3.9,8.4,5.7,13,8.7c3.2,2.1,8.7,8.9,4,12.3c-3.8,2.8-11-0.6-14.7-2.2c-1.5-0.6-3-1.3-4.4-2c-0.6,37.7,32.3,18.2,32.3,18.4
				c-0.2,34.5,35,34.8,56.7,26.8c-2.2-0.4-4.4-0.8-6.5-1.2c-4.3-0.7-8.7-1-13-1.8c-4.7-0.9-11.2-3.9-10.2-9.8c0.8-5.1,7.5-1,10,0.4
				c8.4,4.6,18.3,8.9,28.1,8.4c1-0.6,2.1-1.3,3.1-2c7.5-5.3,13.8-12.3,18.2-20.4c-8.4-0.2-16.7-0.8-25-2.3c-6-1-15.5-2.6-18.4-8.9
				c-0.3-0.7,0.1-1.4,0.8-1.5c7.2-0.5,14.1,1.4,20.4,4.7c7.6,4,15.5,5.7,23.7,4.7c1-2,1.8-4.1,2.5-6.2c0-0.1,0.1-0.3,0.1-0.4
				c-6.7-0.8-13.3-2.4-19.6-4.8C565.3,674.1,565.8,672.2,567,672.6z M554.1,601.7c0.1-0.3,0.2-0.5,0.5-0.6c0.3-1.6,1.4-2.8,3.3-3.1
				c4.6-0.7,7.8,4.7,4,7.8c-1.5,1.2-3.6,1.9-5.5,1.3C554,606.3,553.7,603.8,554.1,601.7z M511.6,694.3c-1.4,1.2-3.3,1.4-4.7,0.2
				c-0.6-0.5-0.3-1.1,0.2-1.4c0-1.3,0.5-2.7,1.3-3.5c1.3-1.3,3.4-1,4.4,0.6C513.7,691.6,512.8,693.3,511.6,694.3z M515.6,620.1
				c-0.4,2.3-1.5,5.7-3.8,6.8c-2.7,1.3-3.9-2.1-4.2-4.1c0-0.2,0-0.3,0-0.4c-1.2-2.2-1.8-4.9-1.5-7.1c0.4-3.5,3.9-4.4,6.8-2.7
				C515.5,614.1,516,617.3,515.6,620.1z M541.5,656.8c-1.2,1.4-3.2,1.5-4.8,0.8c-2.1-0.9-2.9-3.1-2.7-5.3c0.1-0.8,1-1.1,1.5-0.8
				c1.3-1.6,3.4-2,5-0.5C542,652.4,543,655.1,541.5,656.8z"/>
		</g>
	</g>
	<g>
		<g>
			
				<linearGradient id="SVGID_00000104669003343986415440000006338560574347773103_" gradientUnits="userSpaceOnUse" x1="330.444" y1="793.2095" x2="429.886" y2="793.2095">
				<stop  offset="0" style="stop-color:#6A6AE8"/>
				<stop  offset="1" style="stop-color:#312890"/>
			</linearGradient>
			<path style="fill:url(#SVGID_00000104669003343986415440000006338560574347773103_);" d="M400.4,820.1c1.9,3.9,3.3,8,4.1,12.2
				c-8.3,3-17.6,3.3-26.5,3.1c3-3.2,5.5-6.7,7.2-10.9c1.4-3.5,3.8-9.6-0.2-12.3c-0.3-0.2-0.7-0.2-0.9,0.1c-2.6,3.5-2,7.9-3,11.9
				c-1,4-3.4,8.3-6.7,11.2c-0.7,0-1.5-0.1-2.2-0.1c-6.6-0.3-13.2-0.9-19.7-1.6c0.1-0.1,0.2-0.1,0.4-0.2c1.1-0.6,3.4-1.8,3.5-3.2
				c0.1-1.3-1.5-1.7-2.6-1.3c-1.6,0.5-2.8,2.1-4.3,2.9c-0.9,0.4-1.9,0.8-2.8,1.2c-5.2-0.7-10.4-1.4-15.6-2.1
				c-0.4-0.1-0.5-0.4-0.5-0.7c0.3-4.9,0.7-9.9,1.1-14.8c5.1-5.7,11.2-10,19.2-11.3c2.3-0.3,14.3,0.1,12.5-5c-2-5.4-12.5-2-16-0.6
				c-5.5,2.1-10.4,5.3-14.8,9c1.4-11.3,3.9-22.4,8.7-32.8c7.9-4.4,16.5-4.5,24.9-0.3c1.8,0.9,10.5,6.5,11,1.4
				c0.4-4.2-8.4-6.9-11.7-7.3c-4.9-0.7-9.8,0.3-14.6,1c-2.9,0.4-5.6,1.1-8.2,2.2c0.1-0.1,0.1-0.3,0.2-0.4
				c4.1-7.9,9.6-15.5,18.7-18.5c4-1.3,8.2-1.8,12.5-1.7c3.1,1.7,6.1,3.6,8.9,5.8c2.8,2.3,4.2,5,6.4,7.8c1.6,1.9,6.3,5.1,8.4,1.9
				c1.7-2.6-0.9-6.9-2.1-9.2c-0.5-0.9-1-1.8-1.5-2.7c25-2.3,13.6,19.5,13.7,19.5c22.9-1.9,24.8,20.4,20.5,34.5
				c-0.4-1.4-0.7-2.7-1.1-4.1c-0.7-2.7-1.1-5.5-1.8-8.1c-0.8-2.9-3.1-6.9-7-6c-3.4,0.8-0.3,4.8,0.7,6.3c3.5,5.1,6.8,11.1,6.9,17.4
				c-0.4,0.7-0.7,1.4-1.2,2c-3.1,5-7.5,9.4-12.6,12.6c-0.6-5.3-1.3-10.5-2.7-15.7c-1-3.7-2.5-9.7-6.8-11.2c-0.5-0.2-0.9,0.1-0.9,0.6
				c0,4.6,1.6,8.8,4.1,12.7c3,4.6,4.5,9.5,4.2,14.8c-1.3,0.7-2.6,1.4-4,1.9c-0.1,0-0.2,0.1-0.2,0.1c-0.9-4.2-2.2-8.3-4.1-12.2
				C401.3,818.9,400,819.3,400.4,820.1z M352.8,815.5c-0.2,0-0.3,0.2-0.4,0.3c-1,0.3-1.8,1.1-1.9,2.3c-0.2,2.9,3.5,4.7,5.4,2.1
				c0.7-1,1.1-2.4,0.6-3.5C355.8,815.2,354.2,815.1,352.8,815.5z M412.1,783.9c0.7-1,0.8-2.1-0.1-3c-0.3-0.4-0.8-0.1-0.9,0.2
				c-0.9,0.1-1.7,0.4-2.3,1c-0.8,0.9-0.5,2.2,0.6,2.8C410.4,785.4,411.5,784.8,412.1,783.9z M363.1,790.2c1.5-0.3,3.7-1.2,4.3-2.7
				c0.8-1.8-1.6-2.3-2.9-2.4c-0.1,0-0.2,0-0.3,0c-1.5-0.6-3.3-0.9-4.8-0.6c-2.3,0.5-2.7,2.7-1.5,4.4
				C359.1,790.5,361.3,790.6,363.1,790.2z M388.6,804.8c0.8-0.8,0.8-2.1,0.3-3.1c-0.7-1.3-2.2-1.7-3.6-1.4c-0.5,0.1-0.7,0.7-0.5,1
				c-1,0.9-1.1,2.3-0.1,3.2C385.8,805.3,387.6,805.8,388.6,804.8z"/>
		</g>
	</g>
	<g>
		<g>
			<path class="st17" d="M598.3,739.3c-2.3-0.1-4.6-0.3-6.9-0.5c-4.7-0.4-11.3,0.4-15.1-2.8c-0.4-0.4-0.6-1.2-0.1-1.6
				c7.3-6.1,15.2,0.6,23,0.9c1-6,0.9-12.3,0.4-17.6c-0.4-4.5-1.3-8.7-2.9-12.6c-4.3,5.9-8.1,12.2-13.8,16.8
				c-2.3,1.8-8.1,7.3-11.1,5.1c-3.3-2.4,2.4-6.3,4.2-7.5c7.2-4.8,14.2-9.5,19.8-16.5c-2.8-5.7-7.1-10.3-13.1-13.2
				c-4.2-2-8.8-3.5-13.5-4.5c1.1,7.3-0.1,18.2-6.8,20c-4.8,1.3-7.8-4.3-8.1-8.7c-0.4-5.1,2.9-9.7,6.9-12.6
				c-7.2-0.8-14.6-0.8-21.4-0.3c-1.3,0.1-2.6,0.2-3.8,0.4c0,0.1-0.1,0.3-0.1,0.4c-3.4,6.6-7.3,14.1-7.9,21.6
				c-0.3,2.8,0.9,6.5-0.6,9.1c-2.3,4.1-6.7,0.7-7.3-2.6c-1.2-6.1,1.7-13.8,3.6-19.6c0.8-2.4,1.7-5,2.7-7.5
				c-8.6,1.8-17.1,4.8-24.5,10c-2.5,1.7-4.7,3.7-6.9,5.9c-0.9,7.4-0.6,14.9,2.1,21.6c2,4.8,7.4,13.9,2.1,18.9
				c-3.7,3.5-5.9-3.1-6.6-5.9c-2.4-8.6-3.4-17.9-3.8-27.1c-3.7,5.4-6.7,11.4-9.1,17.6c-2.3,6.1-4.1,12.5-5.5,18.9
				c4.5,3.2,9.8,4.5,14.7,7.3c2.3,1.3,6.8,4.1,4.6,7.6c-4.6,7.2-14.9-1.1-20.7-7.4c-0.5,5.9,1.4,10.5,5.5,14.7
				c8.8,9.2,22.7,12.1,33.4,3.8c-0.4,10.7,7.6,19.5,18,18c3.8-0.5,6.9-2.4,9.6-4.9c-2.4,0.2-4.9,0.4-7.3,0.3
				c-3.1-0.1-8.5-0.4-9.7-4.1c-1.2-3.6,2.1-3.8,4.3-2.9c2.8,1.1,4.6,2.6,7.9,2.7c3.6,0.1,7.2-1.1,10.7-2.5
				c3.9-4.7,7.7-8.9,13.3-11.8c2.1-1.1,4.4-2,6.6-2.9c-4.4-0.4-10.8-1.2-12.3-5.2c-2.4-6.7,7.7-7.1,11.2-6.6
				c4.6,0.7,8.9,2.2,13.6,2.5c4,0.3,7.8-0.2,11.5-1.3c0.8-0.6,1.5-1.1,2.3-1.8C594.8,748.4,597,744.1,598.3,739.3z M516,744.2
				c-2.1-0.1-3-2.5-3.3-4.4c-0.2-1.8,0.1-3.7,0.8-5.3c0-0.1,0-0.3,0.1-0.5c0.4-1.3,1.2-2.8,2.5-3.2c1-0.3,2,0.2,2.7,1
				c1.6,1.7,2.2,4.6,1.8,7C520.2,741,518.4,744.3,516,744.2z M541.7,719.5c-1.2-2.2-0.3-4.9,1.5-6.5c0.2-0.2,0.4-0.2,0.6-0.2
				c1.8-1.3,4-1,5.1,1.2c1.2,2.4,0.3,5.4-1.9,6.9C545.1,722.1,542.8,721.5,541.7,719.5z M537.6,766.2c-1.3,2.1-4.2,3-5.9,1.2
				c-1.3-1.5-1.4-3.6-0.7-5.5c-0.4-0.4-0.5-1,0-1.5C534.6,757.4,540.2,761.8,537.6,766.2z"/>
		</g>
	</g>
	<g>
		<path class="st13" d="M483.9,816.6c1.2,0,2.5-0.1,3.7-0.1c1.3-3.7,2.7-7.4,4.3-11.1c0.4-1,0.9-1.9,1.4-2.9c8.9-18.4,22-34.3,38-47
			c1.8-1.5-0.8-4-2.6-2.6c-16.3,13-29.7,29.2-38.8,48c-0.2,0.4-0.4,0.9-0.6,1.4C487.3,806.9,485.5,811.7,483.9,816.6z"/>
	</g>
	<g>
		<path class="st13" d="M464.7,816.8c1.2,0,2.4,0,3.6,0c0.7-5.1,1.5-10.1,2.3-15.1c1.5-8.7,3.3-17.4,5.2-26
			c4.1-18.2,8.9-36.3,13.8-54.3c4.7-17.6,9.8-35.2,20.7-50.2c1.4-1.9-1.8-3.7-3.1-1.8c-10.5,14.3-15.7,31.1-20.3,48
			c-5.5,20.1-10.8,40.3-15.3,60.7c-1.7,7.8-3.3,15.7-4.6,23.6C466.1,806.7,465.3,811.8,464.7,816.8z"/>
	</g>
	<g>
		<path class="st13" d="M421.5,733.9c4.7,9.7,8.6,19.6,11.8,29.7c0.5,1.5,0.9,2.9,1.3,4.4h0c3.3,11.3,5.8,22.8,7.6,34.5
			c0.8,4.5,1.4,9.1,1.9,13.7c1.2,0.1,2.4,0.1,3.6,0.2c-0.6-4.7-1.2-9.4-2-14.1c-1.7-10.4-3.8-20.8-6.5-30.9c-0.5-1.9-1-3.8-1.6-5.6
			c-3.4-11.5-7.7-22.7-13.1-33.7C423.7,729.9,420.5,731.8,421.5,733.9z"/>
	</g>
	<g>
		<path class="st13" d="M388,789.4c9.4-6.2,18.7-12.5,28.1-18.6c5.3-3.4,10.5-5.9,16.8-3.6c0.6,0.2,1.2,0.5,1.8,0.8
			c1.7,0.9,3.3,2.1,4.7,3.4c1.8,1.8,3.4,3.8,4.7,6c4.3,7.2,6.5,15.7,7.7,24.7c0.7,4.8,1,9.7,1.3,14.5c1.1,0.1,2.3,0.1,3.5,0.1
			c-0.3-4.8-0.7-9.9-1.3-14.8c-1.6-12.3-4.8-24.1-12.7-32.2c-1.5-1.5-3.1-2.9-4.9-4c-1.4-0.9-2.9-1.6-4.4-2.1
			c-3.8-1.3-7.9-1.4-12,0.2c-5.4,2.1-10.5,6.3-15.4,9.6c-6.5,4.4-13.1,8.7-19.6,13.1C384.4,787.6,386.1,790.6,388,789.4z"/>
	</g>
</g>
<path class="st10" d="M706.7,391.4H202.5c-2.7,0-4.9-2.2-4.9-4.9V183c0-2.7,2.2-4.9,4.9-4.9h504.1c2.7,0,4.9,2.2,4.9,4.9v203.5
	C711.6,389.2,709.4,391.4,706.7,391.4z"/>
<linearGradient id="SVGID_00000153669030511168873010000004212620599079606929_" gradientUnits="userSpaceOnUse" x1="420.4923" y1="231.5242" x2="461.9505" y2="231.5242">
	<stop  offset="0" style="stop-color:#FFAE00"/>
	<stop  offset="1" style="stop-color:#FF7800"/>
</linearGradient>
<polygon style="fill:url(#SVGID_00000153669030511168873010000004212620599079606929_);" points="441.2,211.8 446.1,226.9 
	462,226.9 449.1,236.2 454,251.2 441.2,241.9 428.4,251.2 433.3,236.2 420.5,226.9 436.3,226.9 "/>
<linearGradient id="SVGID_00000011736873116255471020000008283282776331283841_" gradientUnits="userSpaceOnUse" x1="472.4141" y1="231.5242" x2="513.8728" y2="231.5242">
	<stop  offset="0" style="stop-color:#FFAE00"/>
	<stop  offset="1" style="stop-color:#FF7800"/>
</linearGradient>
<polygon style="fill:url(#SVGID_00000011736873116255471020000008283282776331283841_);" points="493.1,211.8 498,226.9 
	513.9,226.9 501.1,236.2 506,251.2 493.1,241.9 480.3,251.2 485.2,236.2 472.4,226.9 488.2,226.9 "/>
<linearGradient id="SVGID_00000016043206341301953070000008835611898600621247_" gradientUnits="userSpaceOnUse" x1="524.3364" y1="231.5242" x2="565.7927" y2="231.5242">
	<stop  offset="0" style="stop-color:#FFAE00"/>
	<stop  offset="1" style="stop-color:#FF7800"/>
</linearGradient>
<polygon style="fill:url(#SVGID_00000016043206341301953070000008835611898600621247_);" points="545.1,211.8 550,226.9 
	565.8,226.9 553,236.2 557.9,251.2 545.1,241.9 532.3,251.2 537.1,236.2 524.3,226.9 540.2,226.9 "/>
<linearGradient id="SVGID_00000168084141150405318960000014342484740776585123_" gradientUnits="userSpaceOnUse" x1="576.2587" y1="231.5242" x2="617.7145" y2="231.5242">
	<stop  offset="0" style="stop-color:#FFAE00"/>
	<stop  offset="1" style="stop-color:#FF7800"/>
</linearGradient>
<polygon style="fill:url(#SVGID_00000168084141150405318960000014342484740776585123_);" points="597,211.8 601.9,226.9 
	617.7,226.9 604.9,236.2 609.8,251.2 597,241.9 584.2,251.2 589.1,236.2 576.3,226.9 592.1,226.9 "/>
<linearGradient id="SVGID_00000086668534452339437040000008644638992852540818_" gradientUnits="userSpaceOnUse" x1="627.5873" y1="231.5242" x2="669.0431" y2="231.5242">
	<stop  offset="0" style="stop-color:#FFAE00"/>
	<stop  offset="1" style="stop-color:#FF7800"/>
</linearGradient>
<polygon style="fill:url(#SVGID_00000086668534452339437040000008644638992852540818_);" points="648.3,211.8 653.2,226.9 
	669,226.9 656.2,236.2 661.1,251.2 648.3,241.9 635.5,251.2 640.4,236.2 627.6,226.9 643.4,226.9 "/>
<g>
	<g>
		<polygon class="st25" points="429.4,281.4 429.4,288.5 551.4,288.5 551.6,281.4 		"/>
	</g>
	<g>
		<polygon class="st25" points="429.4,302.8 429.4,310 688.3,310 688.5,302.8 		"/>
	</g>
	<g>
		<polygon class="st25" points="429.4,324.3 429.4,331.5 634.1,331.5 634.3,324.3 		"/>
	</g>
	<g>
		<polygon class="st25" points="429.4,347.1 429.4,354.2 688.3,354.2 688.5,347.1 		"/>
	</g>
	<g>
		<polygon class="st25" points="564.2,288.5 601.9,288.5 602,281.4 564.3,281.4 		"/>
	</g>
</g>
<path class="st9" d="M387,281c1,20.3-6,39.1-18.2,53.4c-13.2,15.5-32.6,25.8-54.6,26.8c-22.1,1.1-42.4-7.3-57-21.5
	c-13.5-13.1-22.3-31.1-23.3-51.3c-2.1-42.3,30.5-78.2,72.8-80.3C349,206.2,385,238.7,387,281z"/>
<g>
	<g>
		<g>
			<g>
				
					<linearGradient id="SVGID_00000176008672054348307870000007460095529218328460_" gradientUnits="userSpaceOnUse" x1="848.5106" y1="714.4731" x2="887.9718" y2="714.4731">
					<stop  offset="0" style="stop-color:#6A6AE8"/>
					<stop  offset="1" style="stop-color:#312890"/>
				</linearGradient>
				<path style="fill:url(#SVGID_00000176008672054348307870000007460095529218328460_);" d="M853,798.1c2,0,3.8-1.3,4.3-3.3
					l30.6-158.3c0.6-2.4-0.8-4.8-3.2-5.4c-2.4-0.6-4.8,0.8-5.4,3.2l-30.6,158.3c-0.6,2.4,0.8,4.8,3.2,5.4
					C852.2,798,852.6,798.1,853,798.1z"/>
			</g>
			<g>
				<path class="st27" d="M857.4,798.1c2,0,3.8-1.3,4.3-3.3l30.6-158.3c0.6-2.4-0.8-4.8-3.2-5.4c-2.4-0.6-4.8,0.8-5.4,3.2
					l-30.6,158.3c-0.6,2.4,0.8,4.8,3.2,5.4C856.7,798,857,798.1,857.4,798.1z"/>
			</g>
		</g>
		<g>
			<g>
				
					<linearGradient id="SVGID_00000022548811578314202240000008965765355450230972_" gradientUnits="userSpaceOnUse" x1="974.2081" y1="714.4731" x2="1013.6674" y2="714.4731">
					<stop  offset="0" style="stop-color:#6A6AE8"/>
					<stop  offset="1" style="stop-color:#312890"/>
				</linearGradient>
				<path style="fill:url(#SVGID_00000022548811578314202240000008965765355450230972_);" d="M978.7,798.1c2,0,3.8-1.3,4.3-3.3
					l30.6-158.3c0.6-2.4-0.8-4.8-3.2-5.4c-2.4-0.6-4.8,0.8-5.4,3.2l-30.6,158.3c-0.6,2.4,0.8,4.8,3.2,5.4
					C977.9,798,978.3,798.1,978.7,798.1z"/>
			</g>
			<g>
				<path class="st27" d="M983.1,798.1c2,0,3.8-1.3,4.3-3.3l30.6-158.3c0.6-2.4-0.8-4.8-3.2-5.4c-2.4-0.6-4.8,0.8-5.4,3.2
					l-30.6,158.3c-0.6,2.4,0.8,4.8,3.2,5.4C982.4,798,982.7,798.1,983.1,798.1z"/>
			</g>
		</g>
		
			<linearGradient id="SVGID_00000169538476397272443130000008481290505828915855_" gradientUnits="userSpaceOnUse" x1="717.7976" y1="896.1818" x2="764.8361" y2="896.1818">
			<stop  offset="0" style="stop-color:#6A6AE8"/>
			<stop  offset="1" style="stop-color:#312890"/>
		</linearGradient>
		<polygon style="fill:url(#SVGID_00000169538476397272443130000008481290505828915855_);" points="754.1,799.3 764.8,799.3 
			728.6,993.1 717.8,993.1 		"/>
		
			<linearGradient id="SVGID_00000009558763519614911200000006500532496020323223_" gradientUnits="userSpaceOnUse" x1="711.5848" y1="795.8416" x2="835.5089" y2="795.8416">
			<stop  offset="0" style="stop-color:#6A6AE8"/>
			<stop  offset="1" style="stop-color:#312890"/>
		</linearGradient>
		<polygon style="fill:url(#SVGID_00000009558763519614911200000006500532496020323223_);" points="711.6,802.2 835.5,802.2 
			835.5,789.5 711.6,789.5 		"/>
		<polygon class="st27" points="860.7,799.3 850,799.3 886.2,993.1 897,993.1 		"/>
		<polygon class="st27" points="987.4,799.3 976.6,799.3 1012.9,993.1 1023.7,993.1 		"/>
		
			<linearGradient id="SVGID_00000064344782648569633900000015892050054800013447_" gradientUnits="userSpaceOnUse" x1="844.4595" y1="896.1818" x2="891.5005" y2="896.1818">
			<stop  offset="0" style="stop-color:#6A6AE8"/>
			<stop  offset="1" style="stop-color:#312890"/>
		</linearGradient>
		<polygon style="fill:url(#SVGID_00000064344782648569633900000015892050054800013447_);" points="880.7,799.3 891.5,799.3 
			855.2,993.1 844.5,993.1 		"/>
		
			<rect x="835.5" y="789.5" transform="matrix(-1 -1.224647e-16 1.224647e-16 -1 1835.6511 1591.6831)" class="st27" width="164.6" height="12.8"/>
		<path class="st27" d="M872.1,672.3h158c3.6,0,6.8-2.5,7.6-6l10.4-42.5c1.2-5-2.5-9.7-7.6-9.7h-158c-3.6,0-6.8,2.5-7.6,6
			l-10.4,42.5C863.3,667.5,867,672.3,872.1,672.3z"/>
		
			<linearGradient id="SVGID_00000037690078659591144910000002827058155155637137_" gradientUnits="userSpaceOnUse" x1="856.5062" y1="643.2161" x2="1040.6499" y2="643.2161">
			<stop  offset="0" style="stop-color:#6A6AE8"/>
			<stop  offset="1" style="stop-color:#312890"/>
		</linearGradient>
		<path style="fill:url(#SVGID_00000037690078659591144910000002827058155155637137_);" d="M864.4,672.3h158c3.6,0,6.8-2.5,7.6-6
			l10.4-42.5c1.2-5-2.5-9.7-7.6-9.7h-158c-3.6,0-6.8,2.5-7.6,6l-10.4,42.5C855.5,667.5,859.3,672.3,864.4,672.3z"/>
	</g>
	<path class="st17" d="M462.9,553.2h497.3c2.7,0,4.8-2.2,4.8-4.8V347.7c0-2.7-2.2-4.8-4.8-4.8H462.9c-2.7,0-4.8,2.2-4.8,4.8v200.8
		C458.1,551.1,460.3,553.2,462.9,553.2z"/>
	<g>
		<g>
			
				<linearGradient id="SVGID_00000067947767743398504680000002173363204502092441_" gradientUnits="userSpaceOnUse" x1="437.7678" y1="395.5046" x2="478.663" y2="395.5046" gradientTransform="matrix(1 0 0 1 43.1003 0)">
				<stop  offset="0" style="stop-color:#FFAE00"/>
				<stop  offset="1" style="stop-color:#FF7800"/>
			</linearGradient>
			<polygon style="fill:url(#SVGID_00000067947767743398504680000002173363204502092441_);" points="501.3,376.1 506.1,390.9 
				521.8,390.9 509.1,400.1 514,415 501.3,405.8 488.7,415 493.5,400.1 480.9,390.9 496.5,390.9 			"/>
			
				<linearGradient id="SVGID_00000147933872544974268090000014641842979406651531_" gradientUnits="userSpaceOnUse" x1="488.9838" y1="395.5046" x2="529.8813" y2="395.5046" gradientTransform="matrix(1 0 0 1 43.1003 0)">
				<stop  offset="0" style="stop-color:#FFAE00"/>
				<stop  offset="1" style="stop-color:#FF7800"/>
			</linearGradient>
			<polygon style="fill:url(#SVGID_00000147933872544974268090000014641842979406651531_);" points="552.5,376.1 557.4,390.9 
				573,390.9 560.3,400.1 565.2,415 552.5,405.8 539.9,415 544.7,400.1 532.1,390.9 547.7,390.9 			"/>
			
				<linearGradient id="SVGID_00000083078930092598565730000006369235716592653745_" gradientUnits="userSpaceOnUse" x1="540.2017" y1="395.5046" x2="581.0992" y2="395.5046" gradientTransform="matrix(1 0 0 1 43.1003 0)">
				<stop  offset="0" style="stop-color:#FFAE00"/>
				<stop  offset="1" style="stop-color:#FF7800"/>
			</linearGradient>
			<polygon style="fill:url(#SVGID_00000083078930092598565730000006369235716592653745_);" points="603.8,376.1 608.6,390.9 
				624.2,390.9 611.6,400.1 616.4,415 603.8,405.8 591.1,415 595.9,400.1 583.3,390.9 598.9,390.9 			"/>
			
				<linearGradient id="SVGID_00000159469246592437764630000012308026677341059743_" gradientUnits="userSpaceOnUse" x1="591.4196" y1="395.5046" x2="632.3171" y2="395.5046" gradientTransform="matrix(1 0 0 1 43.1003 0)">
				<stop  offset="0" style="stop-color:#FFAE00"/>
				<stop  offset="1" style="stop-color:#FF7800"/>
			</linearGradient>
			<polygon style="fill:url(#SVGID_00000159469246592437764630000012308026677341059743_);" points="655,376.1 659.8,390.9 
				675.4,390.9 662.8,400.1 667.6,415 655,405.8 642.3,415 647.2,400.1 634.5,390.9 650.1,390.9 			"/>
			
				<linearGradient id="SVGID_00000146496559666528542190000010902129965895374733_" gradientUnits="userSpaceOnUse" x1="685.7383" y1="395.5046" x2="726.6334" y2="395.5046">
				<stop  offset="0" style="stop-color:#FFAE00"/>
				<stop  offset="1" style="stop-color:#FF7800"/>
			</linearGradient>
			<polygon style="fill:url(#SVGID_00000146496559666528542190000010902129965895374733_);" points="706.2,376.1 711,390.9 
				726.6,390.9 714,400.1 718.8,415 706.2,405.8 693.5,415 698.4,400.1 685.7,390.9 701.4,390.9 			"/>
		</g>
		<g>
			<g>
				<polygon class="st25" points="489.6,444.7 489.6,451.7 610,451.7 610.2,444.7 				"/>
			</g>
			<g>
				<polygon class="st25" points="489.6,465.9 489.6,472.9 745.1,472.9 745.2,465.9 				"/>
			</g>
			<g>
				<polygon class="st25" points="489.6,487.1 489.6,494.1 691.6,494.1 691.7,487.1 				"/>
			</g>
			<g>
				<polygon class="st25" points="489.6,509.5 489.6,516.6 745.1,516.6 745.2,509.5 				"/>
			</g>
			<g>
				<polygon class="st25" points="622.6,451.7 659.8,451.7 659.9,444.7 622.8,444.7 				"/>
			</g>
		</g>
	</g>
	<path class="st9" d="M778.2,444.3c-1,20,5.9,38.6,18,52.7c13.1,15.3,32.2,25.4,53.9,26.5c21.8,1.1,41.8-7.2,56.2-21.2
		c13.3-12.9,22-30.7,22.9-50.6c2-41.7-30.1-77.2-71.8-79.2C815.8,370.5,780.3,402.6,778.2,444.3z"/>
	<g>
		<path class="st38" d="M838.7,561.5c-9.2,20.8-77.3,89.3-89.2,101.7c-14.3,15-36.1,8.7-33.6-10.1c2.1-16,73.9-113.6,83.9-121.5
			C817.9,517.5,850.3,535.5,838.7,561.5z"/>
		
			<linearGradient id="SVGID_00000121976899989043018080000009506530484467491226_" gradientUnits="userSpaceOnUse" x1="741.7988" y1="580.1633" x2="841.1245" y2="580.1633">
			<stop  offset="0" style="stop-color:#FFAE00"/>
			<stop  offset="1" style="stop-color:#FF7800"/>
		</linearGradient>
		<path style="fill:url(#SVGID_00000121976899989043018080000009506530484467491226_);" d="M792.2,633.6
			c19.9-21.5,41.8-61.6,46.5-72.1c11.6-26-20.8-44-38.9-29.9c-5.6,4.4-36.7,38.6-58,69.4C741.8,612.3,770.3,633.6,792.2,633.6z"/>
		
			<linearGradient id="SVGID_00000116229917583075540040000010643116031671354497_" gradientUnits="userSpaceOnUse" x1="884.1672" y1="712.1794" x2="865.3801" y2="495.0849">
			<stop  offset="0" style="stop-color:#FFAE00"/>
			<stop  offset="1" style="stop-color:#FF7800"/>
		</linearGradient>
		<path style="fill:url(#SVGID_00000116229917583075540040000010643116031671354497_);" d="M877.1,481.7c0,0-5.6,36.2,10.5,36.2
			c16.1,0,45.9,3.4,56.4,17.4c10.5,14,32.9,109,21.6,200.1c0,0-116.4,6.7-170.6-46.8c0,0-19-121.2-3.3-146.1
			c13-20.8,45.6-19.8,45.6-19.8s9-7.9,5.4-25.1C834.1,455.6,877.1,481.7,877.1,481.7z"/>
		
			<linearGradient id="SVGID_00000018934190872867410640000004703961034797656734_" gradientUnits="userSpaceOnUse" x1="772.5634" y1="480.1354" x2="969.158" y2="480.1354">
			<stop  offset="1.090000e-06" style="stop-color:#FFD000"/>
			<stop  offset="1" style="stop-color:#FF7400"/>
		</linearGradient>
		<path style="fill:url(#SVGID_00000018934190872867410640000004703961034797656734_);" d="M876.6,486.6c0.3-3,0.6-5,0.6-5
			s-34.6-21-35.5,5H876.6z"/>
		<path class="st42" d="M944.1,535.3c-2.2-2.9-5.2-5.3-8.7-7.3l-27.2,124l-113.1,36.7c54.2,53.5,170.6,46.8,170.6,46.8
			C977,644.3,954.6,549.2,944.1,535.3z"/>
		<g>
			<path class="st9" d="M856.4,549c-3.2,0-6.4-0.5-9.5-1.4c-10.5-3.1-18.9-11.2-23.9-22.9c6.4-1.2,11.6-1.4,13.7-1.4l1,0l0.2-0.2
				c0.4-0.3,9.3-8.4,5.7-25.8c-1.9-9.3-1.4-15.9,1.6-19.6c1.9-2.3,4.7-3.4,8.6-3.4c9,0,20.4,6.3,22.8,7.7c-0.5,3.6-3.2,24.9,4,33.2
				c1.9,2.2,4.4,3.4,7.3,3.4c3.7,0,7.7,0.2,11.6,0.5C889.1,537.6,872.7,549,856.4,549z"/>
			<path class="st43" d="M853.6,475.1L853.6,475.1c8.3,0,18.9,5.6,22,7.3c-0.6,4.8-2.9,25,4.2,33.3c2.1,2.4,4.7,3.6,7.9,3.6
				c3.3,0,6.9,0.1,10.4,0.4c-10.1,17.6-25.9,28.5-41.7,28.5c-3.2,0-6.3-0.4-9.3-1.3c-10-3-18.1-10.6-23.1-21.6
				c5.9-1.1,10.7-1.2,12.6-1.2l0.7,0l0.6,0l0.4-0.4c0.4-0.3,9.6-8.7,5.9-26.5c-1.9-9.1-1.4-15.5,1.4-19
				C847.3,476.2,850,475.1,853.6,475.1L853.6,475.1z M853.6,473.6c-8.3,0-14.7,5.2-10.8,23.9c3.6,17.2-5.4,25.1-5.4,25.1
				s-0.2,0-0.7,0c-1.9,0-7.7,0.1-14.7,1.6c4.8,11.8,13.4,20.8,24.7,24.1c3.2,1,6.5,1.4,9.7,1.4c16.9,0,33.9-12.2,44-31.2
				c-4.7-0.4-9.1-0.6-12.8-0.6c-16.1,0-10.5-36.2-10.5-36.2S863.9,473.6,853.6,473.6L853.6,473.6z"/>
		</g>
		<path class="st38" d="M900.4,518.5c-12.1,22.8-34,35.7-53.8,29.8c-11.3-3.4-19.9-12.3-24.7-24.1c8.6-1.8,15.4-1.6,15.4-1.6
			s9-7.9,5.4-25.1c-8.7-42,34.4-15.9,34.4-15.9s-5.6,36.2,10.5,36.2C891.3,517.9,895.7,518,900.4,518.5z"/>
		<path class="st44" d="M887.6,517.9c-16.1,0-10.5-36.2-10.5-36.2s-2.2-1.3-5.5-2.9v16.8c0,23-18.7,41.7-41.7,41.7l0,0
			c4.5,5.2,10.2,9.1,16.8,11c19.7,5.9,41.6-7.1,53.8-29.8C895.7,518,891.3,517.9,887.6,517.9z"/>
		<g>
			<rect x="813.1" y="453.3" class="st43" width="13.2" height="1.3"/>
		</g>
		<path class="st38" d="M820.6,428.3v50.4c0,14.9,12.7,26.9,28.4,26.9l0,0c15.7,0,28.4-12,28.4-26.9v-1.2c0,0,16.2-1.1,16.2-17.6
			c0-16.5-10.8-9.8-10.8-9.8v-21.8H820.6z"/>
		<path class="st44" d="M882.7,450v-21.8h-22.1c0,0.2,0,0.3,0,0.5v57c0,10-9.3,18.1-19,17.7c-3-0.1-5.8-1-8.2-2.3
			c4.4,2.8,9.7,4.4,15.5,4.4c15.7,0,28.4-12,28.4-26.9v-1.2c0,0,16.2-1.1,16.2-17.6C893.6,443.3,882.7,450,882.7,450z"/>
		<path class="st25" d="M882.3,450.6c0,0-4.7,14.8-7.9-3.2c-3.2-17.9-8.7-17.1-28.8-15.8c-20,1.3-48.3-6.2-37.5-30.9
			c10.6-24.3,53.5-6.3,53.5-6.3s31.4-9.5,36.7,15.3C903.7,434.5,882.3,450.6,882.3,450.6z"/>
		<g>
			<path class="st38" d="M571,778.4l-6.9-20.2c-21.9,10.7-42.2,13.6-39.8-20.6c1.1-15.8-17.6-21-17.6-21l-5.7,81.8
				c0,0,2.7,8.4,22.7-2.1C545.4,784.9,571,778.4,571,778.4z"/>
			<path class="st25" d="M520.7,770.5c5.1-4.8,13.8,1.5,14.7-5.7c-7.7-2.1-12.3-9.9-11.1-27.2c1.1-15.8-17.6-21-17.6-21l-5.7,81.8
				c0,0,2.6,7.9,20.9-1.2C522.5,788.7,512.9,777.7,520.7,770.5z"/>
		</g>
		<g>
			<path class="st45" d="M964,735.7c0,42.9-44.7,71-96.4,56.6c-51.7-14.4-52.5-55.5-132.2-76.6c0,0-26.2-41.5,7.8-50
				C777.3,657.3,964,735.7,964,735.7z"/>
			<path class="st45" d="M735.1,668.7c0,0-160.7,81.4-187.5,91.3c0,0,5.4,26.8,18.6,48.8c0,0,167-61.8,184-73.1
				C785.6,712.1,735.1,668.7,735.1,668.7z"/>
		</g>
		<g>
			<g>
				<rect x="632.4" y="667.1" class="st10" width="178.8" height="9.4"/>
				<path class="st10" d="M811.2,676.5h82.3v-5.3c0-2.3-1.8-4.1-4.1-4.1h-78.2V676.5z"/>
			</g>
			<g>
				<path class="st10" d="M637.5,667.1h178.1l-23.4-109.6c-0.7-3.2-3.4-5.5-6.4-5.5H625.3c-6.4,0-11.1,6.3-9.7,12.9L637.5,667.1z"/>
				
					<linearGradient id="SVGID_00000083807157588005333290000000466304001632545159_" gradientUnits="userSpaceOnUse" x1="815.5674" y1="609.5195" x2="1016.4551" y2="609.5195" gradientTransform="matrix(-1 0 0 1 1626.8145 0)">
					<stop  offset="0" style="stop-color:#FFFFFF"/>
					<stop  offset="1" style="stop-color:#D3DBEB"/>
				</linearGradient>
				<path style="fill:url(#SVGID_00000083807157588005333290000000466304001632545159_);" d="M633.2,667.1h178.1l-23.4-109.6
					c-0.7-3.2-3.4-5.5-6.4-5.5H617.6c-4.6,0-8.1,4.6-7,9.4L633.2,667.1z"/>
			</g>
			<polygon class="st47" points="703.1,552 652.9,667.1 675.9,667.1 727.9,552 			"/>
			<polygon class="st47" points="740.6,552 690.4,667.1 699.3,667.1 751.4,552 			"/>
		</g>
		<path class="st45" d="M867.6,792.3c0,0-110.5-2.8-145.5-10.1c-16.9-3.5-73.7-26.8-51.8-60C692.1,689.1,793.8,728.7,867.6,792.3z"
			/>
		<path class="st25" d="M680.3,713.8c14.4,0.3,26,9.2,38.8,15.9c6.5,3.4,52.8,26.2,49.7,33c-4.8,10.6-33.2,10.6-54.7,9.3
			c-2,2.3-4.5,4-7.3,5.2c6.1,2.5,11.6,4.2,15.3,4.9c35,7.3,145.5,10.1,145.5,10.1C801.9,735.7,715,697.6,680.3,713.8z"/>
		<g>
			<path class="st38" d="M585.6,972.7c18.9-6.2,28-36.5,32.3-52.7l24.7,9.4c0,0-14.7,27.7-13.6,46.6c1.1,18.9-4.2,17.1-4.2,17.1
				h-64.2C560.5,993.2,566.7,979,585.6,972.7z"/>
			<path class="st25" d="M585.6,972.7c5.7-1.9,10.5-6,14.6-11.2c2.6-3.7,15.4,0.4,17.5,7.5c0,0,5.2,3.7,11.3,3.2c0,1.3,0,2.6,0,3.8
				c1.1,18.9-4.2,17.1-4.2,17.1h-64.2C560.5,993.2,566.7,979,585.6,972.7z"/>
		</g>
		<path class="st45" d="M666.9,728.9c0,0-45.7,155.4-61.8,203.3c0,0,23.6,15.1,41.5,14.1c0,0,33.3-61.9,44.4-85.1
			c21.8-45.7,39.3-75,21.6-100.9C700,741.9,666.9,728.9,666.9,728.9z"/>
		<g>
			<path class="st38" d="M939,530.3c18,13.9,68.5,96.2,77.7,110.7c11.2,17.5-0.1,37.1-17.8,30.3c-15.1-5.9-92.9-98.7-98.1-110.3
				C891.2,540,916.4,512.8,939,530.3z"/>
			
				<linearGradient id="SVGID_00000115490016501806394350000000096966577534284465_" gradientUnits="userSpaceOnUse" x1="953.9581" y1="706.1392" x2="935.1711" y2="489.0471">
				<stop  offset="0" style="stop-color:#FFAE00"/>
				<stop  offset="1" style="stop-color:#FF7800"/>
			</linearGradient>
			<path style="fill:url(#SVGID_00000115490016501806394350000000096966577534284465_);" d="M985.7,587.5
				c-16.7-25.4-37.2-50-46.7-57.3c-22.5-17.4-47.7,9.8-38.2,30.7c2.4,5.2,18.4,30.6,37.8,53.4C962.2,610.1,983.6,591.7,985.7,587.5z
				"/>
			<path class="st38" d="M1004.4,637.7c-28.4,3.1-110.7,39-127.8,35c-17.1-4-31.6-15.6-39.3-4.3c-7.9,11.5-5.1,23-0.4,35
				c3.1,7.9,17.4,3.1,35.5-4.4c18.1-7.5,102.5-12.9,130.3-20.1C1030.2,671.7,1023.6,635.6,1004.4,637.7z"/>
			<path class="st38" d="M985.2,642l1.8,3.5c0,0,25,12.6,25.6,11.9c0.5-0.7,5-9.6,5-9.6s-3.8-9.7-7.5-14.2
				C1006.5,629.2,985.2,642,985.2,642z"/>
		</g>
		<g>
			<g>
				<path class="st43" d="M856,469.1c-8.8,0-12.9-9.2-12.9-15.4c0-5.7,4.6-8.9,12.9-8.9s12.9,3.2,12.9,8.9
					C868.9,459.9,864.8,469.1,856,469.1z M856,446.1c-5.3,0-11.5,1.3-11.5,7.6c0,5.7,3.7,14.1,11.5,14.1s11.5-8.4,11.5-14.1
					C867.6,447.5,861.3,446.1,856,446.1z"/>
			</g>
		</g>
		<g>
			<g>
				<path class="st43" d="M825.3,469.1c-8.8,0-12.9-9.2-12.9-15.4c0-5.7,4.6-8.9,12.9-8.9c8.3,0,12.9,3.2,12.9,8.9
					C838.1,459.9,834,469.1,825.3,469.1z M825.3,446.1c-5.3,0-11.5,1.3-11.5,7.6c0,5.7,3.7,14.1,11.5,14.1c7.9,0,11.5-8.4,11.5-14.1
					C836.8,447.5,830.5,446.1,825.3,446.1z"/>
			</g>
		</g>
		<g>
			<rect x="837.5" y="451.8" class="st43" width="6.5" height="1.3"/>
		</g>
		<g>
			<rect x="867.7" y="453.3" class="st43" width="13.2" height="1.3"/>
		</g>
	</g>
</g>
<g>
	<g>
		<path class="st38" d="M281.2,928.2c1.7-8.4,7-17.3,14.3-26.9l-19.6-12.5c-5.1,8.6-6.8,13.4-16.6,23.8c-6.5,6.8-1.3,28.3,15.1,32.3
			C275.1,945.2,278.6,940.7,281.2,928.2z"/>
		<path class="st27" d="M274.1,922.9c5.5,3,14.6-8,15.6-0.4c-8.1,5.9-12.9,16.7-11.5,35.6c1.3,17.2-18.4,31.6-18.4,31.6l-6.6-89.1
			c0,0,2.7-10,22-8.3C276,901.7,265.9,918.3,274.1,922.9z"/>
		<path class="st38" d="M273.6,971.2c27.8-11.8,18.8-38.6,23.3-55.8l20.9,7.9c0,0-0.2,31.4,1.1,51.3c1.3,20-4.4,18.1-4.4,18.1
			l-68,0.5C246.6,993.3,254.2,979.4,273.6,971.2z"/>
		<path class="st27" d="M272.9,971.5c6-2,11.1-6.4,15.3-11.9c2.8-3.9,16.3,0.3,18.6,7.8c0,0,5.5,3.9,11.9,3.3c0,1.4,0,2.7,0.1,4
			c1.3,20-4.4,18.1-4.4,18.1l-68,0.5C246.6,993.3,253,978.2,272.9,971.5z"/>
		<path class="st45" d="M348.2,477.4c18.7,60.7,54.5,233.1,53,240.6c-1.7,8.9-47.3,38.9-55.1,0.6c-12.1-59.6-123.9-221.4-51.6-268.9
			C321.1,432.3,342.5,458.9,348.2,477.4z"/>
		<path class="st25" d="M275.3,473c4.3-9.6,10.6-17.6,19.2-23.3c0.8-0.5,1.6-1,2.4-1.4c0.1,0,0.2-0.1,0.3-0.1
			c4.1-2.3,8.2-3.5,12-3.9c-7.6,46.9-4.5,92.4,3.3,132.7l12.7-63.8c0,0,10.3,50.5,4,106.7c-1.2,10.4,0.2,20.9,3.7,30.7
			c15.7,43.7,32.7,72.4,35.1,76.1c-3.6-1.9-10.3,1.6-16.9,3.7c-2.1-2.9-3.8-6.7-4.8-11.7C335.6,666.6,249.2,536.8,275.3,473z"/>
		<path class="st45" d="M245.2,544.4c2.4-33.4,16.5-60.8,21.5-68.2c8.2-12.3,34-21.6,47.2-2.1c13.2,19.5,12,29.5,14.2,73.1
			c2.2,43.6-10.7,159.3-6.9,191.2c3.8,31.9-40.5,49.7-42.8,2.8C276.1,694.4,242.5,583.1,245.2,544.4z"/>
		<path class="st45" d="M277.7,750.6c0.2-9-0.2-15.5-0.8-24.5c-2.3-38.4,43.1-16.5,44-6.4c1.1,12.7-1.3,19.8,4.9,63.4
			c6.3,43.6,1.7,68.6-2.4,91.6c-4.1,23-2.8,53-2.8,53c-19.1,8.9-27.6,3-27.6,3s-5.7-46.7-11.7-84
			C275.4,809.3,277.3,771.7,277.7,750.6z"/>
		<path class="st45" d="M269.1,893c0,0,2.1,3.5,7.1,7.1c0.3,0.2,0.5,0.4,0.8,0.6v0c4.5,3,11,6,20.2,7.2c0,0,108.5-178.6,104.3-192.4
			c-1.9-6.3-22.1-36.4-47.7-13.5c-13.8,12.4-29.2,40.2-44.2,95.4c-0.4,1.3-0.7,2.6-1.1,4C298.8,837.9,269.1,893,269.1,893z"/>
		<path class="st25" d="M269.1,893c0,0,2.1,3.5,7.1,7.1c0.3,0.2,0.5,0.4,0.8,0.6v0c20.5-31.5,45.4-87.9,52.4-117.7
			c3.8-16.2,10.1-37.1,15.5-53.9c4-12.4,7.4-22.6,8.9-27.1c-13.8,12.4-29.2,40.2-44.2,95.4c-0.4,1.3-0.7,2.6-1.1,4
			C298.8,837.9,269.1,893,269.1,893z"/>
		<path class="st25" d="M288.7,219.9c12.5,0.4,22.4,10.9,22,23.4c-0.4,12.5-10.9,22.4-23.4,22c-12.5-0.4-22.4-10.9-22-23.4
			C265.6,229.3,276.1,219.5,288.7,219.9z"/>
		<path class="st25" d="M261.5,338c3.2-23.6-10.8-38.4,2.1-65.1c13-26.7,26.7-29.3,39.9-33.1c33.5-9.6,68,32.2,54.8,61.4
			c-12.2,27-0.2,48.3,10.7,70.8c10.8,22.5,14.8,93.4-46.8,99.1c-61.5,5.6-75.4-20.7-81.1-58.2C234.1,368,258.3,361.6,261.5,338z"/>
		<path class="st38" d="M328.4,372.4c1.9,7.5,26,97.8,33.5,107.9c8.7,11.8,24.7,1.7,25.5-15.5c0.8-16.4-11-83.1-23.4-102.5
			C350.6,341.4,324.4,356.2,328.4,372.4z"/>
		<path class="st49" d="M331.5,369.5c45.4,24.9,55.6,90.7,55.9,95.2c0.8-16.6-11-83-23.4-102.4C351.7,343,330.4,368.9,331.5,369.5z"
			/>
		<path class="st44" d="M272.2,440.3c-0.8-9.6-4-18.6-11.6-51.9c-3-13-6.7-23.2-3.3-28.9c4.3-7.2,17.2-7.9,26.4-7.6
			c16.6,0.5,9.9-39.7,9.9-39.7c2.8-8.3,30.3-5.9,28.2,20.7c-2.1,26.6,24.6,15.2,30.7,20.3c8.4,7.1,7.2,21.9,8.7,29.8
			c1.5,7.9,12.9,17.6,10.8,32.1c-2.1,14.4-15.7,13.5-15.7,13.5c-5.1,5.5-9.9,15.5-10.6,22.8c-1.6,16.8,6.2,33.8,6.2,33.8
			c-49.3,19.8-90.1-0.3-90.1-0.3S274.6,469.2,272.2,440.3z"/>
		<path class="st44" d="M283.7,351.9c16.6,0.5,9.9-39.7,9.9-39.7c1.6-4.6,10.7-5.9,18.2-1.6c-5.2,1.2-18.2,23.4-11.9,56.7
			c1.8,9.5,11.8,15.3,21.1,17.5c0,0-59.3,8.5-60.4,3.6C257.6,375.4,274.5,351.6,283.7,351.9z"/>
		
			<linearGradient id="SVGID_00000075143945271305280750000010589256426459109528_" gradientUnits="userSpaceOnUse" x1="1087.3601" y1="362.6064" x2="1363.8704" y2="86.0961" gradientTransform="matrix(-0.9825 0.1863 0.1863 0.9825 1394.0649 -124.6195)">
			<stop  offset="0" style="stop-color:#FFAE00"/>
			<stop  offset="1" style="stop-color:#FF7800"/>
		</linearGradient>
		<path style="fill:url(#SVGID_00000075143945271305280750000010589256426459109528_);" d="M387.6,442.5c0,0-13.4,12.1-35,19.2
			l-8.6-26l1.7-84c0,0,14.3-2.4,23,17C377.4,388.1,383.5,431.5,387.6,442.5z"/>
		<path class="st42" d="M344.9,437.5l1.6-76.3c0.4-2.2,0.9-7.3,1-9.6c4,0,7.1,2.9,8.9,4.3c8.4,7.1,7.2,21.9,8.7,29.8
			c1.5,7.9,12.9,17.6,10.8,32.1c-2,14.4-11.6,16.9-11.6,16.9c-4.7,5-11.6,14.5-12.9,21.5L344.9,437.5z"/>
		
			<linearGradient id="SVGID_00000146475731003132687430000018297714283445393338_" gradientUnits="userSpaceOnUse" x1="1110.1625" y1="390.7667" x2="1271.9922" y2="228.9369" gradientTransform="matrix(-0.9825 0.1863 0.1863 0.9825 1394.0649 -124.6195)">
			<stop  offset="0" style="stop-color:#FFAE00"/>
			<stop  offset="1" style="stop-color:#FF7800"/>
		</linearGradient>
		<path style="fill:url(#SVGID_00000146475731003132687430000018297714283445393338_);" d="M272.2,440.3c-0.8-9.6-4-18.6-11.7-51.9
			c-3-13-6.7-23.2-3.3-28.9c3.9-6.4,14.7-7.7,23.5-7.7c9.9,22.6,30.4,35.5,46.2,28.9c10.2-4.2,15.9-15.6,16.3-29.2
			c4,0,7.4,0.1,9.1,1.6c8.4,7.1,7.2,21.9,8.7,29.8c1.5,7.9,12.9,17.6,10.8,32.1c-2,14.4-15.7,13.5-15.7,13.5
			c-5.1,5.5-10,15.5-10.7,22.8c-1.6,16.8,6.2,33.8,6.2,33.8c-49.3,19.8-90.1-0.3-90.1-0.3S274.6,469.2,272.2,440.3z"/>
		<path class="st42" d="M272.2,440.3c-0.8-9.6-4-18.6-11.7-51.9c-3-13-6.7-23.2-3.3-28.9c3.7-6.2,14-7.6,22.6-7.7
			c0.2,1.4,0.4,2.9,0.6,4.4c3.6,19.2,16.9,34.1,33.8,40.7l-9.7,1.8c-11.1,2.1-18.1,14.2-15.7,24.9c1.8,7.9,7.8,13.4,15.1,15.3
			l4.4,23.1c3.3,17.5-12.4,32.7-29.7,28.6c-10.8-2.6-17.1-5.7-17.1-5.7S274.6,469.2,272.2,440.3z"/>
		<path class="st38" d="M178.1,443.1c5.4-12.2,67.8-73.4,80.5-85.5c4.5-4.3,27.4,23,19.1,38.8c-4.6,8.7-75.3,67.1-87.3,70.9
			C176.6,471.8,171.2,458.8,178.1,443.1z"/>
		<path class="st44" d="M258.1,400.2c6.2-12.2,11.2-24.2,9.5-37.9c7.5,8,15.6,23.6,10.2,34c-4.1,7.9-61.9,56-82.1,68.3
			C199.6,461.8,249.9,416.4,258.1,400.2z"/>
		<path class="st38" d="M293,290c0,0,11.5-33.7,22.7-34.8c11.1-1.1,20-0.3,25.6,11.9c0,0,6.5,10.7,4.3,23.7c0,0,14.9,13-0.7,32.5
			c-15.6,19.5-42.4,6.6-51.3-11.1c0,0-14.9,5-17-8.9C274.5,289.4,283.6,288.7,293,290z"/>
		<path class="st44" d="M293,290c0,0,11.5-33.7,22.7-34.8c8.9-0.9,16.4-0.5,21.9,5.9c-7.5-1.8-33.5,28.1-33.5,45.7
			c0,18,19.3,28.9,34.7,20.9c1.8-0.9,3.6-2.1,5.2-3.4c-15.7,17.8-41.6,5.1-50.4-12.2c0,0-14.9,5-17-8.9
			C274.5,289.4,283.6,288.7,293,290z"/>
		<path class="st38" d="M383.6,451.9c-23.4,2.9-23.4,31.9-7.6,33.8c23.5,2.8,88.4-16.5,101.4-10.4c12.9,6.1,15.9,17.5,28.5,9.4
			c12.6-8.2,13.9-13.6,12.4-23.4c-1.5-9.8-16.5-9.2-32.1-4.9C470.5,460.7,403.1,449.5,383.6,451.9z"/>
		<path class="st25" d="M349.9,271.8c0,0-17.6-2.5-27.7-12.3c-10.1-9.8-15.2-8-15.2-8C337,238,349.9,271.8,349.9,271.8z"/>
		<path class="st25" d="M316.5,253.3c4.8,3.8,6,15.6-6,29c-12.1,13.4-7.9,29.5-17.7,20.8c-9.9-8.7-10-10.1-11.1-22.1
			C280.6,269,305.9,244.9,316.5,253.3z"/>
		
			<linearGradient id="SVGID_00000095323449576629886110000001523124624358977192_" gradientUnits="userSpaceOnUse" x1="1130.4512" y1="118.9048" x2="1244.7285" y2="4.6274" gradientTransform="matrix(-0.7253 0.6884 0.6884 0.7253 1101.3429 -460.3975)">
			<stop  offset="0" style="stop-color:#FFAE00"/>
			<stop  offset="1" style="stop-color:#FF7800"/>
		</linearGradient>
		<path style="fill:url(#SVGID_00000095323449576629886110000001523124624358977192_);" d="M226.3,445c0,0,47.7-41.4,53.8-49.7
			c6.1-8.3-6.6-36-20.6-38.6c0,0-0.3,0.2-0.7,0.7c-4.6,4.2-30.5,27.6-52.9,50.3C205.9,407.7,203.2,425,226.3,445z"/>
		<path class="st42" d="M226.3,445c0,0,47.7-41.4,53.8-49.7c6.1-8.3-6.6-36-20.6-38.6c0,0-0.3,0.2-0.7,0.7l-0.1,0.1
			c0,0,20.5,21.2,12.2,36.4C262.6,409.2,231.9,428.8,226.3,445z"/>
		<g>
			<path class="st38" d="M289.6,415.5c10.7-9.5,32.1-10.8,38.3-1.6c1.7,2.6,2.8,5.1,3.4,7.6c1.6,6,0.3,11.7-2.1,17.5
				c-0.3,0.6-8.4,6.1-8.8,4.8c-5.3-0.7-13-3.8-21.7-7.8c-14.8-6.8-74.4,27.3-97.4,33.6c-22.8,6.2-32.6-20.5-17.9-26.7
				C205.1,433.7,278.9,425,289.6,415.5z"/>
		</g>
	</g>
	<g>
		<g>
			<rect x="386.9" y="448" class="st10" width="175.8" height="9.3"/>
			<path class="st10" d="M386.9,457.3h-80.9v-5.2c0-2.2,1.8-4.1,4.1-4.1h76.9V457.3z"/>
		</g>
		<g>
			<path class="st10" d="M557.7,448H382.6l23.1-107.8c0.7-3.2,3.3-5.4,6.3-5.4h157.7c6.3,0,10.9,6.2,9.5,12.7L557.7,448z"/>
			
				<linearGradient id="SVGID_00000038404142341004533080000011075056162530265739_" gradientUnits="userSpaceOnUse" x1="-99.9324" y1="391.4281" x2="97.6055" y2="391.4281" gradientTransform="matrix(1 0 0 1 486.8021 0)">
				<stop  offset="0" style="stop-color:#FFFFFF"/>
				<stop  offset="1" style="stop-color:#D3DBEB"/>
			</linearGradient>
			<path style="fill:url(#SVGID_00000038404142341004533080000011075056162530265739_);" d="M562,448H386.9l23.1-107.8
				c0.7-3.2,3.3-5.4,6.3-5.4h161c4.6,0,7.9,4.5,6.9,9.2L562,448z"/>
		</g>
		<polygon class="st47" points="493.2,334.8 542.6,448 520,448 468.8,334.8 		"/>
		<polygon class="st47" points="456.4,334.8 505.7,448 496.9,448 445.8,334.8 		"/>
	</g>
</g>
</svg>
